<svg width="32" height="32" viewBox="0 0 32 32" fill="none" xmlns="http://www.w3.org/2000/svg">
<path d="M15.5556 18.9059C15.2157 18.9059 14.9325 18.7867 14.7059 18.5483C14.4793 18.3109 14.366 18.0336 14.366 17.7163C14.366 17.3765 14.4793 17.0874 14.7059 16.849C14.9325 16.6115 15.2157 16.4928 15.5556 16.4928C15.8954 16.4928 16.1786 16.6115 16.4052 16.849C16.6318 17.0874 16.7451 17.3765 16.7451 17.7163C16.7451 18.0336 16.6318 18.3109 16.4052 18.5483C16.1786 18.7867 15.8954 18.9059 15.5556 18.9059ZM10.1176 18.9059C9.77778 18.9059 9.49455 18.7867 9.26797 18.5483C9.04139 18.3109 8.9281 18.0336 8.9281 17.7163C8.9281 17.3765 9.04139 17.0874 9.26797 16.849C9.49455 16.6115 9.77778 16.4928 10.1176 16.4928C10.4575 16.4928 10.7407 16.6115 10.9673 16.849C11.1939 17.0874 11.3072 17.3765 11.3072 17.7163C11.3072 18.0336 11.1939 18.3109 10.9673 18.5483C10.7407 18.7867 10.4575 18.9059 10.1176 18.9059ZM20.9935 18.9059C20.6536 18.9059 20.3704 18.7867 20.1438 18.5483C19.9172 18.3109 19.8039 18.0336 19.8039 17.7163C19.8039 17.3765 19.9172 17.0874 20.1438 16.849C20.3704 16.6115 20.6536 16.4928 20.9935 16.4928C21.3333 16.4928 21.6166 16.6115 21.8431 16.849C22.0697 17.0874 22.183 17.3765 22.183 17.7163C22.183 18.0336 22.0697 18.3109 21.8431 18.5483C21.6166 18.7867 21.3333 18.9059 20.9935 18.9059ZM15.5556 24.2418C15.2157 24.2418 14.9325 24.1231 14.7059 23.8856C14.4793 23.6473 14.366 23.3695 14.366 23.0523C14.366 22.7124 14.4793 22.4238 14.7059 22.1863C14.9325 21.9479 15.2157 21.8288 15.5556 21.8288C15.8954 21.8288 16.1786 21.9479 16.4052 22.1863C16.6318 22.4238 16.7451 22.7124 16.7451 23.0523C16.7451 23.3695 16.6318 23.6473 16.4052 23.8856C16.1786 24.1231 15.8954 24.2418 15.5556 24.2418ZM10.1176 24.2418C9.77778 24.2418 9.49455 24.1231 9.26797 23.8856C9.04139 23.6473 8.9281 23.3695 8.9281 23.0523C8.9281 22.7124 9.04139 22.4238 9.26797 22.1863C9.49455 21.9479 9.77778 21.8288 10.1176 21.8288C10.4575 21.8288 10.7407 21.9479 10.9673 22.1863C11.1939 22.4238 11.3072 22.7124 11.3072 23.0523C11.3072 23.3695 11.1939 23.6473 10.9673 23.8856C10.7407 24.1231 10.4575 24.2418 10.1176 24.2418ZM20.9935 24.2418C20.6536 24.2418 20.3704 24.1231 20.1438 23.8856C19.9172 23.6473 19.8039 23.3695 19.8039 23.0523C19.8039 22.7124 19.9172 22.4238 20.1438 22.1863C20.3704 21.9479 20.6536 21.8288 20.9935 21.8288C21.3333 21.8288 21.6166 21.9479 21.8431 22.1863C22.0697 22.4238 22.183 22.7124 22.183 23.0523C22.183 23.3695 22.0697 23.6473 21.8431 23.8856C21.6166 24.1231 21.3333 24.2418 20.9935 24.2418ZM6.44706 29C5.76732 29 5.18954 28.7621 4.71373 28.2863C4.23791 27.8105 4 27.2327 4 26.5529V8.33595C4 7.65621 4.23791 7.07843 4.71373 6.60261C5.18954 6.1268 5.76732 5.88889 6.44706 5.88889H8.35033V4.05359C8.35033 3.75904 8.4464 3.5098 8.63854 3.30588C8.83158 3.10196 9.07538 3 9.36993 3C9.68715 3 9.94182 3.10196 10.134 3.30588C10.327 3.5098 10.4235 3.75904 10.4235 4.05359V5.88889H20.7216V4.01961C20.7216 3.74771 20.8235 3.5098 21.0274 3.30588C21.2314 3.10196 21.4693 3 21.7412 3C22.0357 3 22.2791 3.10196 22.4712 3.30588C22.6643 3.5098 22.7608 3.74771 22.7608 4.01961V5.88889H24.6641C25.3438 5.88889 25.9216 6.1268 26.3974 6.60261C26.8732 7.07843 27.1111 7.65621 27.1111 8.33595V26.5529C27.1111 27.2327 26.8732 27.8105 26.3974 28.2863C25.9216 28.7621 25.3438 29 24.6641 29H6.44706ZM6.44706 26.9608H24.6641C24.7773 26.9608 24.8739 26.9214 24.9536 26.8425C25.0325 26.7628 25.0719 26.6662 25.0719 26.5529V13.7739H6.03922V26.5529C6.03922 26.6662 6.07909 26.7628 6.15885 26.8425C6.2377 26.9214 6.33377 26.9608 6.44706 26.9608ZM6.03922 11.7346H25.0719V8.33595C25.0719 8.22266 25.0325 8.12659 24.9536 8.04774C24.8739 7.96798 24.7773 7.9281 24.6641 7.9281H6.44706C6.33377 7.9281 6.2377 7.96798 6.15885 8.04774C6.07909 8.12659 6.03922 8.22266 6.03922 8.33595V11.7346ZM6.03922 11.7346V7.9281V11.7346Z" fill="white"/>
</svg>
