<svg width="32" height="32" viewBox="0 0 32 32" fill="none" xmlns="http://www.w3.org/2000/svg">
<path fill-rule="evenodd" clip-rule="evenodd" d="M28.1326 15.0961H26.3803C26.1503 15.0961 25.9296 15.1875 25.7669 15.3502C25.6043 15.5129 25.5129 15.7335 25.5129 15.9635C25.5129 16.1936 25.6043 16.4141 25.7669 16.5768C25.9296 16.7395 26.1503 16.831 26.3803 16.831H28.1326C28.3626 16.831 28.5832 16.7395 28.7459 16.5768C28.9086 16.4141 29 16.1936 29 15.9635C29 15.7335 28.9086 15.5129 28.7459 15.3502C28.5832 15.1875 28.3626 15.0961 28.1326 15.0961V15.0961ZM28.0342 20.1561L26.2809 18.9996C26.0714 18.8717 25.8221 18.8258 25.5809 18.8706C25.3396 18.9155 25.1234 19.0478 24.9739 19.2424C24.861 19.4467 24.8327 19.6872 24.8952 19.9122C24.9577 20.1371 25.106 20.3285 25.3082 20.4453L27.0615 21.6019C27.2058 21.6965 27.3747 21.7468 27.5473 21.7464C27.6916 21.7475 27.8339 21.7126 27.9614 21.6449C28.0889 21.5773 28.1976 21.4791 28.2777 21.359C28.3416 21.2644 28.3861 21.158 28.4085 21.046C28.431 20.9341 28.4309 20.8188 28.4084 20.7069C28.3858 20.595 28.3412 20.4886 28.2772 20.394C28.2132 20.2995 28.131 20.2186 28.0354 20.1561H28.0342ZM25.7789 13.0315C25.9451 13.0329 26.1082 12.9868 26.2491 12.8985L28.0585 11.7593C28.1553 11.6988 28.2391 11.6198 28.305 11.5267C28.371 11.4336 28.4178 11.3282 28.4428 11.2169C28.4678 11.1056 28.4705 10.9904 28.4507 10.8781C28.4309 10.7657 28.389 10.6583 28.3274 10.5622C28.2015 10.3671 28.0036 10.2297 27.7767 10.1799C27.5499 10.1301 27.3126 10.1719 27.1165 10.2962L25.307 11.4355C25.1024 11.5483 24.9502 11.7369 24.883 11.9607C24.8158 12.1844 24.8389 12.4256 24.9473 12.6326C25.0456 12.7586 25.1717 12.8602 25.3158 12.9295C25.4598 12.9987 25.6179 13.0336 25.7777 13.0315H25.7789ZM22.234 7H19.8277C19.6007 7.00068 19.376 7.04612 19.1665 7.1337C18.9571 7.22129 18.7669 7.34925 18.607 7.51038C18.447 7.67151 18.3204 7.86262 18.2344 8.07272C18.1483 8.28282 18.1045 8.50784 18.1055 8.73487V8.78697L8.15373 12.7829C8.03182 12.4439 7.80819 12.1509 7.51338 11.9439C7.21858 11.7368 6.86701 11.6259 6.50677 11.6263H4.75337C4.52428 11.625 4.29718 11.6688 4.08504 11.7552C3.8729 11.8417 3.6799 11.9691 3.51705 12.1302C3.35421 12.2913 3.22471 12.483 3.136 12.6943C3.04728 12.9055 3.00106 13.1321 3 13.3612V19.1441C3.00106 19.3732 3.04728 19.5999 3.136 19.8111C3.22471 20.0223 3.35421 20.214 3.51705 20.3751C3.6799 20.5362 3.8729 20.6636 4.08504 20.7501C4.29718 20.8366 4.52428 20.8804 4.75337 20.879H6.50445C6.86245 20.8791 7.21187 20.7693 7.50555 20.5646C7.79923 20.3598 8.02306 20.0699 8.14681 19.734L9.22934 20.2082C9.16814 20.3262 9.13585 20.457 9.1351 20.5899C9.12055 21.3506 9.32342 22.0997 9.71985 22.7491C10.1163 23.3986 10.6898 23.9215 11.3731 24.2563C11.889 24.5112 12.4574 24.6419 13.0328 24.6379C14.0705 24.6259 15.0695 24.2421 15.8485 23.5564C15.96 23.4576 16.0449 23.3324 16.0954 23.1922L18.1402 24.1175C18.2183 24.508 18.4289 24.8593 18.7365 25.1123C19.044 25.3652 19.4295 25.5041 19.8277 25.5053H22.234C22.4559 25.5031 22.675 25.4557 22.878 25.3663C23.0811 25.2768 23.2638 25.147 23.4152 24.9848C23.5666 24.8226 23.6835 24.6313 23.7588 24.4226C23.8341 24.2139 23.8662 23.992 23.8532 23.7705V8.73487C23.8662 8.51336 23.8341 8.29148 23.7588 8.08274C23.6835 7.87401 23.5666 7.68276 23.4152 7.52055C23.2638 7.35833 23.0811 7.22855 22.878 7.13907C22.675 7.04959 22.4559 7.00228 22.234 7V7ZM6.50445 19.1441H4.75108V13.3612H6.50445V19.1441ZM18.0703 22.0356L8.23932 17.9875V14.5178L18.0703 11.048V22.0356ZM12.1602 22.7063C11.8191 22.5421 11.5257 22.2932 11.3081 21.9835C11.0904 21.6737 10.9557 21.3135 10.9168 20.9369L14.4161 22.4577C14.094 22.6916 13.7166 22.8375 13.321 22.8811C12.9255 22.9247 12.5254 22.8644 12.1602 22.7063V22.7063ZM22.1183 23.7705H19.8052V8.73487H22.1183V23.7705Z" fill="white"/>
</svg>
