<svg width="32" height="32" viewBox="0 0 32 32" fill="none" xmlns="http://www.w3.org/2000/svg">
<path d="M7.18627 29C6.91013 29 6.68199 28.9044 6.50186 28.7132C6.32088 28.5221 6.23039 28.299 6.23039 28.0441C6.23039 27.768 6.32088 27.5398 6.50186 27.3597C6.68199 27.1787 6.91013 27.0882 7.18627 27.0882H25.0294C25.3056 27.0882 25.5341 27.1787 25.7151 27.3597C25.8952 27.5398 25.9853 27.768 25.9853 28.0441C25.9853 28.299 25.8952 28.5221 25.7151 28.7132C25.5341 28.9044 25.3056 29 25.0294 29H7.18627ZM7.18627 4.91176C6.91013 4.91176 6.68199 4.82127 6.50186 4.64029C6.32088 4.46016 6.23039 4.23203 6.23039 3.95588C6.23039 3.70098 6.32088 3.47794 6.50186 3.28676C6.68199 3.09559 6.91013 3 7.18627 3H25.0294C25.3056 3 25.5341 3.09559 25.7151 3.28676C25.8952 3.47794 25.9853 3.70098 25.9853 3.95588C25.9853 4.23203 25.8952 4.46016 25.7151 4.64029C25.5341 4.82127 25.3056 4.91176 25.0294 4.91176H7.18627ZM16.1078 17.9118C17.085 17.9118 17.9134 17.5719 18.5931 16.8922C19.2729 16.2124 19.6127 15.384 19.6127 14.4069C19.6127 13.4297 19.2729 12.6013 18.5931 11.9216C17.9134 11.2418 17.085 10.902 16.1078 10.902C15.1307 10.902 14.3023 11.2418 13.6225 11.9216C12.9428 12.6013 12.6029 13.4297 12.6029 14.4069C12.6029 15.384 12.9428 16.2124 13.6225 16.8922C14.3023 17.5719 15.1307 17.9118 16.1078 17.9118ZM6.29412 25.5588C5.65686 25.5588 5.1152 25.3358 4.66912 24.8897C4.22304 24.4436 4 23.902 4 23.2647V8.73529C4 8.09804 4.22304 7.55637 4.66912 7.11029C5.1152 6.66422 5.65686 6.44118 6.29412 6.44118H25.9216C26.5588 6.44118 27.1005 6.66422 27.5466 7.11029C27.9926 7.55637 28.2157 8.09804 28.2157 8.73529V23.2647C28.2157 23.902 27.9926 24.4436 27.5466 24.8897C27.1005 25.3358 26.5588 25.5588 25.9216 25.5588H6.29412ZM8.97059 23.6471C9.92647 22.6274 11.0098 21.8415 12.2206 21.2892C13.4314 20.7369 14.7271 20.4608 16.1078 20.4608C17.4886 20.4608 18.7843 20.7369 19.9951 21.2892C21.2059 21.8415 22.2892 22.6274 23.2451 23.6471H25.9216C26.0065 23.6471 26.0915 23.6046 26.1765 23.5196C26.2614 23.4346 26.3039 23.3497 26.3039 23.2647V8.73529C26.3039 8.65033 26.2614 8.56536 26.1765 8.48039C26.0915 8.39542 26.0065 8.35294 25.9216 8.35294H6.29412C6.20915 8.35294 6.12418 8.39542 6.03922 8.48039C5.95425 8.56536 5.91176 8.65033 5.91176 8.73529V23.2647C5.91176 23.3497 5.95425 23.4346 6.03922 23.5196C6.12418 23.6046 6.20915 23.6471 6.29412 23.6471H8.97059ZM11.902 23.6471H20.3137C19.6977 23.2222 19.0341 22.9036 18.3229 22.6912C17.6109 22.4788 16.8725 22.3725 16.1078 22.3725C15.3431 22.3725 14.6052 22.4788 13.894 22.6912C13.182 22.9036 12.518 23.2222 11.902 23.6471ZM16.1078 16C15.6618 16 15.2849 15.8458 14.9774 15.5374C14.6689 15.2298 14.5147 14.8529 14.5147 14.4069C14.5147 13.9608 14.6689 13.584 14.9774 13.2764C15.2849 12.9679 15.6618 12.8137 16.1078 12.8137C16.5539 12.8137 16.9308 12.9679 17.2383 13.2764C17.5468 13.584 17.701 13.9608 17.701 14.4069C17.701 14.8529 17.5468 15.2298 17.2383 15.5374C16.9308 15.8458 16.5539 16 16.1078 16Z" fill="white"/>
</svg>
