<svg width="32" height="32" viewBox="0 0 32 32" fill="none" xmlns="http://www.w3.org/2000/svg">
<path d="M17.5638 29L17.3544 25.3356H16.1678C13.0501 25.3356 10.4094 24.2537 8.24564 22.0899C6.08188 19.9262 5 17.2855 5 14.1678C5 11.0501 6.08188 8.4094 8.24564 6.24564C10.4094 4.08188 13.0501 3 16.1678 3C17.7266 3 19.1808 3.29083 20.5302 3.87248C21.8796 4.45414 23.0606 5.25124 24.0732 6.26379C25.0848 7.2754 25.8814 8.45593 26.4631 9.80537C27.0447 11.1548 27.3356 12.6089 27.3356 14.1678C27.3356 17.3553 26.4105 20.2459 24.5604 22.8396C22.7112 25.4342 20.379 27.4877 17.5638 29ZM16.1678 21.5315C16.5168 21.5315 16.8076 21.4092 17.0403 21.1644C17.2729 20.9206 17.3893 20.6358 17.3893 20.3101C17.3893 19.9611 17.2729 19.6642 17.0403 19.4194C16.8076 19.1756 16.5168 19.0537 16.1678 19.0537C15.8188 19.0537 15.528 19.1756 15.2953 19.4194C15.0626 19.6642 14.9463 19.9611 14.9463 20.3101C14.9463 20.6358 15.0626 20.9206 15.2953 21.1644C15.528 21.4092 15.8188 21.5315 16.1678 21.5315ZM16.2027 17.2738C16.3888 17.2738 16.5694 17.198 16.7443 17.0463C16.9184 16.8955 17.0403 16.6922 17.1101 16.4362C17.1566 16.1105 17.2846 15.8081 17.494 15.5289C17.7034 15.2497 18.0756 14.8425 18.6107 14.3074C19.0295 13.9119 19.3669 13.4875 19.6228 13.0343C19.8787 12.5801 20.0067 12.0738 20.0067 11.5154C20.0067 10.4219 19.6289 9.58434 18.8732 9.00269C18.1166 8.42103 17.2264 8.1302 16.2027 8.1302C15.4349 8.1302 14.7662 8.31028 14.1967 8.67044C13.6262 9.03153 13.1664 9.47964 12.8175 10.0148C12.6779 10.2242 12.649 10.4391 12.7309 10.6597C12.8119 10.8812 12.9803 11.0385 13.2362 11.1315C13.4224 11.2013 13.6141 11.2013 13.8114 11.1315C14.0096 11.0617 14.1785 10.9221 14.3181 10.7128C14.5043 10.4336 14.7485 10.1948 15.051 9.99662C15.3535 9.79932 15.7374 9.70067 16.2027 9.70067C16.9007 9.70067 17.4242 9.89843 17.7732 10.294C18.1221 10.6895 18.2966 11.1199 18.2966 11.5852C18.2966 12.004 18.1803 12.3707 17.9477 12.6853C17.715 12.9989 17.4125 13.3418 17.0403 13.7141C16.4353 14.226 16.0226 14.668 15.802 15.0403C15.5805 15.4125 15.4465 15.8779 15.4 16.4362C15.3767 16.6456 15.4409 16.8374 15.5926 17.0114C15.7434 17.1863 15.9468 17.2738 16.2027 17.2738V17.2738ZM19.6577 23.2416V25.1262C21.3096 23.7302 22.653 22.096 23.6879 20.2235C24.7237 18.3501 25.2416 16.3315 25.2416 14.1678C25.2416 11.6318 24.3635 9.48523 22.6074 7.72816C20.8503 5.97203 18.7038 5.09396 16.1678 5.09396C13.6318 5.09396 11.4857 5.97203 9.72956 7.72816C7.97249 9.48523 7.09396 11.6318 7.09396 14.1678C7.09396 16.7038 7.97249 18.8503 9.72956 20.6074C11.4857 22.3635 13.6318 23.2416 16.1678 23.2416H19.6577Z" fill="white"/>
</svg>
