<svg width="32" height="32" viewBox="0 0 32 32" fill="none" xmlns="http://www.w3.org/2000/svg">
<path d="M17.625 24.5H4.625C3.73125 24.5 3 25.2313 3 26.125C3 27.0188 3.73125 27.75 4.625 27.75H17.625C18.5188 27.75 19.25 27.0188 19.25 26.125C19.25 25.2313 18.5188 24.5 17.625 24.5ZM27.375 11.5H4.625C3.73125 11.5 3 12.2313 3 13.125C3 14.0188 3.73125 14.75 4.625 14.75H27.375C28.2688 14.75 29 14.0188 29 13.125C29 12.2313 28.2688 11.5 27.375 11.5ZM4.625 21.25H27.375C28.2688 21.25 29 20.5188 29 19.625C29 18.7313 28.2688 18 27.375 18H4.625C3.73125 18 3 18.7313 3 19.625C3 20.5188 3.73125 21.25 4.625 21.25ZM3 6.625C3 7.51875 3.73125 8.25 4.625 8.25H27.375C28.2688 8.25 29 7.51875 29 6.625C29 5.73125 28.2688 5 27.375 5H4.625C3.73125 5 3 5.73125 3 6.625Z" fill="white"/>
</svg>
