<svg width="32" height="32" viewBox="0 0 32 32" fill="none" xmlns="http://www.w3.org/2000/svg">
<path d="M3 12.5785H29.0006V27.6315C29.0006 27.9944 28.8564 28.3425 28.5998 28.5991C28.3432 28.8558 27.9951 28.9999 27.6322 28.9999H4.36845C4.00552 28.9999 3.65745 28.8558 3.40081 28.5991C3.14418 28.3425 3 27.9944 3 27.6315V12.5785ZM3 6.42046C3 6.05752 3.14418 5.70945 3.40081 5.45281C3.65745 5.19618 4.00552 5.052 4.36845 5.052H27.6322C27.9951 5.052 28.3432 5.19618 28.5998 5.45281C28.8564 5.70945 29.0006 6.05752 29.0006 6.42046V12.5785H3V6.42046Z" stroke="white" stroke-width="2" stroke-linejoin="round"/>
<path d="M10.5303 20.7887L14.6356 24.8941L22.8464 16.6833" stroke="white" stroke-width="2" stroke-linecap="round" stroke-linejoin="round"/>
<path d="M10.5303 3V8.47382M21.4779 3V8.47382" stroke="white" stroke-width="2" stroke-linecap="round"/>
</svg>
