<svg width="32" height="32" viewBox="0 0 32 32" fill="none" xmlns="http://www.w3.org/2000/svg">
<path d="M15.4184 18.95C15.5325 19.2237 15.7263 19.3605 16 19.3605C16.2737 19.3605 16.4675 19.2237 16.5816 18.95L17.8474 16.1105L20.6868 14.8447C20.9605 14.7307 21.0974 14.5368 21.0974 14.2632C21.0974 13.9895 20.9605 13.7956 20.6868 13.6816L17.8474 12.4158L16.5816 9.57632C16.4675 9.30263 16.2737 9.16579 16 9.16579C15.7263 9.16579 15.5325 9.30263 15.4184 9.57632L14.1526 12.4158L11.3132 13.6816C11.0395 13.7956 10.9026 13.9895 10.9026 14.2632C10.9026 14.5368 11.0395 14.7307 11.3132 14.8447L14.1526 16.1105L15.4184 18.95ZM3 26.3737V6.46316C3 5.77895 3.23947 5.19737 3.71842 4.71842C4.19737 4.23947 4.77895 4 5.46316 4H26.5368C27.2211 4 27.8026 4.23947 28.2816 4.71842C28.7605 5.19737 29 5.77895 29 6.46316V22.0632C29 22.7474 28.7605 23.3289 28.2816 23.8079C27.8026 24.2868 27.2211 24.5263 26.5368 24.5263H7.8579L5.08684 27.2632C4.69912 27.6509 4.25439 27.7366 3.75263 27.5204C3.25088 27.3033 3 26.9211 3 26.3737V26.3737ZM5.05263 24.4237L7.00263 22.4737H26.5368C26.6509 22.4737 26.748 22.4335 26.8283 22.3533C26.9077 22.2739 26.9474 22.1772 26.9474 22.0632V6.46316C26.9474 6.34912 26.9077 6.25196 26.8283 6.17168C26.748 6.09232 26.6509 6.05263 26.5368 6.05263H5.46316C5.34912 6.05263 5.25242 6.09232 5.17305 6.17168C5.09277 6.25196 5.05263 6.34912 5.05263 6.46316V24.4237ZM5.05263 6.46316V6.05263V24.4237V6.46316Z" fill="white"/>
</svg>
