<svg width="32" height="32" viewBox="0 0 32 32" fill="none" xmlns="http://www.w3.org/2000/svg">
<path d="M28.7263 13.2974C28.8175 13.7307 28.886 14.1754 28.9316 14.6316C28.9772 15.0877 29 15.5439 29 16C29 17.8018 28.6579 19.4895 27.9737 21.0632C27.2895 22.6368 26.3599 24.0107 25.1848 25.1848C24.0107 26.3599 22.6368 27.2895 21.0632 27.9737C19.4895 28.6579 17.8018 29 16 29C14.1982 29 12.5105 28.6579 10.9368 27.9737C9.36316 27.2895 7.98881 26.3599 6.81379 25.1848C5.63968 24.0107 4.71053 22.6368 4.02632 21.0632C3.34211 19.4895 3 17.8018 3 16C3 14.1982 3.34211 12.5105 4.02632 10.9368C4.71053 9.36316 5.63968 7.98881 6.81379 6.81379C7.98881 5.63968 9.36316 4.71053 10.9368 4.02632C12.5105 3.34211 14.1982 3 16 3C17.2088 3 18.3719 3.15965 19.4895 3.47895C20.607 3.79825 21.6447 4.24298 22.6026 4.81316C22.8535 4.97281 23.0077 5.18947 23.0652 5.46316C23.1217 5.73684 23.0474 5.99912 22.8421 6.25C22.6596 6.47807 22.4316 6.62084 22.1579 6.67832C21.8842 6.73488 21.6219 6.68333 21.3711 6.52368C20.5956 6.04474 19.7518 5.67982 18.8395 5.42895C17.9272 5.17807 16.9807 5.05263 16 5.05263C12.9667 5.05263 10.384 6.11863 8.252 8.25063C6.11909 10.3835 5.05263 12.9667 5.05263 16C5.05263 19.0333 6.11909 21.6165 8.252 23.7494C10.384 25.8814 12.9667 26.9474 16 26.9474C19.0333 26.9474 21.6165 25.8814 23.7494 23.7494C25.8814 21.6165 26.9474 19.0333 26.9474 16C26.9474 15.6123 26.9246 15.23 26.8789 14.8533C26.8333 14.4774 26.7649 14.0956 26.6737 13.7079C26.6509 13.4798 26.6851 13.2686 26.7763 13.0743C26.8675 12.8809 27.0044 12.7272 27.1868 12.6132C27.5061 12.3851 27.82 12.3509 28.1283 12.5105C28.4358 12.6702 28.6351 12.9325 28.7263 13.2974V13.2974ZM13.1947 20.9605L9.39737 17.1632C9.21491 16.9807 9.12961 16.7467 9.14147 16.4612C9.15242 16.1765 9.24912 15.943 9.43158 15.7605C9.63684 15.5553 9.88225 15.4526 10.1678 15.4526C10.4524 15.4526 10.686 15.5553 10.8684 15.7605L14.05 18.9421L26.8789 6.11316C27.0614 5.90789 27.2954 5.81074 27.5809 5.82168C27.8656 5.83354 28.0991 5.94211 28.2816 6.14737C28.4868 6.32982 28.5895 6.56337 28.5895 6.848C28.5895 7.13354 28.4868 7.37895 28.2816 7.58421L14.9395 20.9605C14.6886 21.1886 14.3921 21.3026 14.05 21.3026C13.7079 21.3026 13.4228 21.1886 13.1947 20.9605Z" fill="white"/>
</svg>
