<svg width="24" height="24" viewBox="0 0 24 24" fill="none" xmlns="http://www.w3.org/2000/svg">
<path d="M11.8889 14.2353C11.6275 14.2353 11.4096 14.1436 11.2353 13.9603C11.061 13.7776 10.9739 13.5643 10.9739 13.3203C10.9739 13.0588 11.061 12.8364 11.2353 12.6531C11.4096 12.4704 11.6275 12.3791 11.8889 12.3791C12.1503 12.3791 12.3682 12.4704 12.5425 12.6531C12.7168 12.8364 12.8039 13.0588 12.8039 13.3203C12.8039 13.5643 12.7168 13.7776 12.5425 13.9603C12.3682 14.1436 12.1503 14.2353 11.8889 14.2353ZM7.70588 14.2353C7.44444 14.2353 7.22658 14.1436 7.05229 13.9603C6.878 13.7776 6.79085 13.5643 6.79085 13.3203C6.79085 13.0588 6.878 12.8364 7.05229 12.6531C7.22658 12.4704 7.44444 12.3791 7.70588 12.3791C7.96732 12.3791 8.18519 12.4704 8.35948 12.6531C8.53377 12.8364 8.62092 13.0588 8.62092 13.3203C8.62092 13.5643 8.53377 13.7776 8.35948 13.9603C8.18519 14.1436 7.96732 14.2353 7.70588 14.2353ZM16.0719 14.2353C15.8105 14.2353 15.5926 14.1436 15.4183 13.9603C15.244 13.7776 15.1569 13.5643 15.1569 13.3203C15.1569 13.0588 15.244 12.8364 15.4183 12.6531C15.5926 12.4704 15.8105 12.3791 16.0719 12.3791C16.3333 12.3791 16.5512 12.4704 16.7255 12.6531C16.8998 12.8364 16.9869 13.0588 16.9869 13.3203C16.9869 13.5643 16.8998 13.7776 16.7255 13.9603C16.5512 14.1436 16.3333 14.2353 16.0719 14.2353ZM11.8889 18.3399C11.6275 18.3399 11.4096 18.2485 11.2353 18.0659C11.061 17.8825 10.9739 17.6688 10.9739 17.4248C10.9739 17.1634 11.061 16.9414 11.2353 16.7587C11.4096 16.5753 11.6275 16.4837 11.8889 16.4837C12.1503 16.4837 12.3682 16.5753 12.5425 16.7587C12.7168 16.9414 12.8039 17.1634 12.8039 17.4248C12.8039 17.6688 12.7168 17.8825 12.5425 18.0659C12.3682 18.2485 12.1503 18.3399 11.8889 18.3399ZM7.70588 18.3399C7.44444 18.3399 7.22658 18.2485 7.05229 18.0659C6.878 17.8825 6.79085 17.6688 6.79085 17.4248C6.79085 17.1634 6.878 16.9414 7.05229 16.7587C7.22658 16.5753 7.44444 16.4837 7.70588 16.4837C7.96732 16.4837 8.18519 16.5753 8.35948 16.7587C8.53377 16.9414 8.62092 17.1634 8.62092 17.4248C8.62092 17.6688 8.53377 17.8825 8.35948 18.0659C8.18519 18.2485 7.96732 18.3399 7.70588 18.3399ZM16.0719 18.3399C15.8105 18.3399 15.5926 18.2485 15.4183 18.0659C15.244 17.8825 15.1569 17.6688 15.1569 17.4248C15.1569 17.1634 15.244 16.9414 15.4183 16.7587C15.5926 16.5753 15.8105 16.4837 16.0719 16.4837C16.3333 16.4837 16.5512 16.5753 16.7255 16.7587C16.8998 16.9414 16.9869 17.1634 16.9869 17.4248C16.9869 17.6688 16.8998 17.8825 16.7255 18.0659C16.5512 18.2485 16.3333 18.3399 16.0719 18.3399ZM4.88235 22C4.35948 22 3.91503 21.817 3.54902 21.451C3.18301 21.085 3 20.6405 3 20.1176V6.10458C3 5.5817 3.18301 5.13726 3.54902 4.77124C3.91503 4.40523 4.35948 4.22222 4.88235 4.22222H6.34641V2.81046C6.34641 2.58388 6.42031 2.39216 6.5681 2.23529C6.7166 2.07843 6.90414 2 7.13072 2C7.37473 2 7.57063 2.07843 7.71843 2.23529C7.86693 2.39216 7.94118 2.58388 7.94118 2.81046V4.22222H15.8627V2.78431C15.8627 2.57516 15.9412 2.39216 16.098 2.23529C16.2549 2.07843 16.4379 2 16.6471 2C16.8736 2 17.0608 2.07843 17.2086 2.23529C17.3571 2.39216 17.4314 2.57516 17.4314 2.78431V4.22222H18.8954C19.4183 4.22222 19.8627 4.40523 20.2288 4.77124C20.5948 5.13726 20.7778 5.5817 20.7778 6.10458V20.1176C20.7778 20.6405 20.5948 21.085 20.2288 21.451C19.8627 21.817 19.4183 22 18.8954 22H4.88235ZM4.88235 20.4314H18.8954C18.9826 20.4314 19.0568 20.401 19.1182 20.3404C19.1788 20.279 19.2092 20.2048 19.2092 20.1176V10.2876H4.56863V20.1176C4.56863 20.2048 4.5993 20.279 4.66065 20.3404C4.72131 20.401 4.79521 20.4314 4.88235 20.4314ZM4.56863 8.71895H19.2092V6.10458C19.2092 6.01743 19.1788 5.94353 19.1182 5.88288C19.0568 5.82153 18.9826 5.79085 18.8954 5.79085H4.88235C4.79521 5.79085 4.72131 5.82153 4.66065 5.88288C4.5993 5.94353 4.56863 6.01743 4.56863 6.10458V8.71895ZM4.56863 8.71895V5.79085V8.71895Z" fill="#A5B0CC"/>
</svg>
