<svg width="24" height="24" viewBox="0 0 24 24" fill="none" xmlns="http://www.w3.org/2000/svg">
<path fill-rule="evenodd" clip-rule="evenodd" d="M21.3327 11.2278H19.9849C19.8079 11.2278 19.6382 11.2981 19.513 11.4232C19.3879 11.5484 19.3176 11.718 19.3176 11.895C19.3176 12.072 19.3879 12.2417 19.513 12.3668C19.6382 12.4919 19.8079 12.5623 19.9849 12.5623H21.3327C21.5097 12.5623 21.6794 12.4919 21.8045 12.3668C21.9297 12.2417 22 12.072 22 11.895C22 11.718 21.9297 11.5484 21.8045 11.4232C21.6794 11.2981 21.5097 11.2278 21.3327 11.2278V11.2278ZM21.2571 15.1201L19.9084 14.2304C19.7472 14.1321 19.5555 14.0968 19.3699 14.1313C19.1843 14.1658 19.018 14.2676 18.903 14.4172C18.8161 14.5744 18.7944 14.7594 18.8425 14.9324C18.8905 15.1055 19.0046 15.2527 19.1601 15.3425L20.5089 16.2322C20.6199 16.305 20.7498 16.3437 20.8826 16.3434C20.9936 16.3442 21.103 16.3174 21.2011 16.2653C21.2992 16.2133 21.3828 16.1378 21.4444 16.0454C21.4936 15.9726 21.5278 15.8908 21.545 15.8046C21.5623 15.7185 21.5622 15.6299 21.5449 15.5438C21.5276 15.4577 21.4933 15.3758 21.444 15.3031C21.3948 15.2304 21.3315 15.1682 21.258 15.1201H21.2571ZM19.5222 9.63965C19.6501 9.64073 19.7756 9.60524 19.8839 9.53734L21.2758 8.66102C21.3502 8.61448 21.4147 8.55366 21.4654 8.48204C21.5161 8.41042 21.5522 8.32941 21.5714 8.24377C21.5906 8.15813 21.5927 8.06956 21.5775 7.98312C21.5622 7.89668 21.53 7.81407 21.4826 7.74017C21.3858 7.59008 21.2335 7.4844 21.059 7.44608C20.8846 7.40775 20.702 7.43989 20.5511 7.53556L19.1592 8.41189C19.0019 8.49871 18.8848 8.64377 18.8331 8.81589C18.7813 8.98802 18.7991 9.17355 18.8826 9.33273C18.9582 9.42969 19.0552 9.50788 19.166 9.56113C19.2768 9.61437 19.3984 9.64121 19.5213 9.63965H19.5222ZM16.7954 5H14.9444C14.7697 5.00052 14.5969 5.03548 14.4358 5.10285C14.2747 5.17022 14.1284 5.26866 14.0054 5.3926C13.8823 5.51655 13.7849 5.66355 13.7187 5.82517C13.6526 5.98679 13.6189 6.15988 13.6196 6.33452V6.37459L5.96441 9.4484C5.87063 9.18764 5.69861 8.96222 5.47183 8.80297C5.24506 8.64371 4.97462 8.55841 4.69752 8.55872H3.34875C3.17253 8.55766 2.99783 8.59136 2.83464 8.65787C2.67146 8.72439 2.523 8.82238 2.39773 8.94632C2.27247 9.07027 2.17286 9.21772 2.10461 9.38019C2.03637 9.54267 2.00082 9.71702 2 9.89324V14.3416C2.00082 14.5179 2.03637 14.6922 2.10461 14.8547C2.17286 15.0171 2.27247 15.1646 2.39773 15.2885C2.523 15.4125 2.67146 15.5105 2.83464 15.577C2.99783 15.6435 3.17253 15.6772 3.34875 15.6762H4.69573C4.97112 15.6762 5.2399 15.5918 5.46581 15.4343C5.69171 15.2768 5.86389 15.0538 5.95908 14.7954L6.7918 15.1602C6.74472 15.2509 6.71989 15.3515 6.71931 15.4537C6.70812 16.0389 6.86417 16.6151 7.16912 17.1147C7.47406 17.6143 7.91524 18.0165 8.44083 18.2741C8.83767 18.4702 9.27488 18.5707 9.71752 18.5676C10.5158 18.5584 11.2843 18.2632 11.8835 17.7357C11.9692 17.6597 12.0345 17.5634 12.0734 17.4555L13.6463 18.1673C13.7064 18.4677 13.8684 18.7379 14.105 18.9325C14.3415 19.1271 14.6381 19.2339 14.9444 19.2349H16.7954C16.966 19.2331 17.1346 19.1967 17.2908 19.1279C17.447 19.0591 17.5876 18.9592 17.704 18.8344C17.8205 18.7097 17.9104 18.5626 17.9683 18.402C18.0262 18.2414 18.0509 18.0707 18.0409 17.9004V6.33452C18.0509 6.16412 18.0262 5.99344 17.9683 5.83288C17.9104 5.67231 17.8205 5.5252 17.704 5.40042C17.5876 5.27564 17.447 5.17581 17.2908 5.10697C17.1346 5.03814 16.966 5.00175 16.7954 5V5ZM4.69573 14.3416H3.34698V9.89324H4.69573V14.3416ZM13.5925 16.5658L6.03025 13.452V10.7829L13.5925 8.11388V16.5658ZM9.04627 17.0818C8.7839 16.9554 8.55824 16.764 8.39082 16.5258C8.22341 16.2875 8.1198 16.0103 8.08986 15.7207L10.7816 16.8906C10.5339 17.0704 10.2436 17.1827 9.93926 17.2163C9.63497 17.2498 9.32721 17.2034 9.04627 17.0818V17.0818ZM16.7064 17.9004H14.927V6.33452H16.7064V17.9004Z" fill="#A5B0CC"/>
</svg>
