<svg width="24" height="24" viewBox="0 0 24 24" fill="none" xmlns="http://www.w3.org/2000/svg">
<path d="M7.72973 16.5946H20.0541C20.1441 16.5946 20.2209 16.5629 20.2843 16.4995C20.347 16.4368 20.3784 16.3604 20.3784 16.2703V3.94595C20.3784 3.85586 20.347 3.7791 20.2843 3.71568C20.2209 3.65297 20.1441 3.62162 20.0541 3.62162H18.2162V9.83784C18.2162 10.036 18.1351 10.1802 17.973 10.2703C17.8108 10.3604 17.6396 10.3604 17.4595 10.2703L15.7838 9.24324L14.1081 10.2703C13.9279 10.3604 13.7568 10.3604 13.5946 10.2703C13.4324 10.1802 13.3514 10.036 13.3514 9.83784V3.62162H7.72973C7.63964 3.62162 7.56324 3.65297 7.50054 3.71568C7.43712 3.7791 7.40541 3.85586 7.40541 3.94595V16.2703C7.40541 16.3604 7.43712 16.4368 7.50054 16.4995C7.56324 16.5629 7.63964 16.5946 7.72973 16.5946V16.5946ZM7.72973 18.2162C7.18919 18.2162 6.72973 18.027 6.35135 17.6486C5.97297 17.2703 5.78378 16.8108 5.78378 16.2703V3.94595C5.78378 3.40541 5.97297 2.94595 6.35135 2.56757C6.72973 2.18919 7.18919 2 7.72973 2H20.0541C20.5946 2 21.0541 2.18919 21.4324 2.56757C21.8108 2.94595 22 3.40541 22 3.94595V16.2703C22 16.8108 21.8108 17.2703 21.4324 17.6486C21.0541 18.027 20.5946 18.2162 20.0541 18.2162H7.72973ZM3.94595 22C3.40541 22 2.94595 21.8108 2.56757 21.4324C2.18919 21.0541 2 20.5946 2 20.0541V6.91892C2 6.7027 2.07676 6.51351 2.23027 6.35135C2.38306 6.18919 2.57658 6.10811 2.81081 6.10811C3.04505 6.10811 3.23856 6.18919 3.39135 6.35135C3.54486 6.51351 3.62162 6.7027 3.62162 6.91892V20.0541C3.62162 20.1441 3.65333 20.2209 3.71676 20.2843C3.77946 20.347 3.85586 20.3784 3.94595 20.3784H17.0811C17.2973 20.3784 17.4865 20.4548 17.6486 20.6076C17.8108 20.7611 17.8919 20.955 17.8919 21.1892C17.8919 21.4234 17.8108 21.6173 17.6486 21.7708C17.4865 21.9236 17.2973 22 17.0811 22H3.94595ZM13.3514 3.62162H18.2162H13.3514ZM7.72973 3.62162H7.40541H20.3784H20.0541H7.72973Z" fill="#A5B0CC"/>
</svg>
