<svg width="24" height="24" viewBox="0 0 24 24" fill="none" xmlns="http://www.w3.org/2000/svg">
<path d="M12.6644 22L12.5034 19.1812H11.5906C9.19239 19.1812 7.16107 18.349 5.49664 16.6846C3.83221 15.0201 3 12.9888 3 10.5906C3 8.19239 3.83221 6.16107 5.49664 4.49664C7.16107 2.83221 9.19239 2 11.5906 2C12.7897 2 13.9083 2.22371 14.9463 2.67114C15.9843 3.11857 16.8928 3.73172 17.6717 4.5106C18.4498 5.28877 19.0626 6.19687 19.5101 7.2349C19.9575 8.27293 20.1812 9.3915 20.1812 10.5906C20.1812 13.0425 19.4696 15.266 18.0464 17.2612C16.624 19.2571 14.83 20.8367 12.6644 22ZM11.5906 16.255C11.8591 16.255 12.0828 16.1609 12.2617 15.9726C12.4407 15.7851 12.5302 15.566 12.5302 15.3154C12.5302 15.047 12.4407 14.8186 12.2617 14.6303C12.0828 14.4428 11.8591 14.349 11.5906 14.349C11.3221 14.349 11.0984 14.4428 10.9195 14.6303C10.7405 14.8186 10.651 15.047 10.651 15.3154C10.651 15.566 10.7405 15.7851 10.9195 15.9726C11.0984 16.1609 11.3221 16.255 11.5906 16.255ZM11.6174 12.9799C11.7606 12.9799 11.8995 12.9215 12.0341 12.8048C12.168 12.6889 12.2617 12.5324 12.3154 12.3356C12.3512 12.085 12.4497 11.8523 12.6107 11.6376C12.7718 11.4228 13.0582 11.1096 13.4698 10.698C13.7919 10.3937 14.0515 10.0673 14.2483 9.71866C14.4452 9.36931 14.5436 8.97987 14.5436 8.55034C14.5436 7.70917 14.253 7.06488 13.6717 6.61745C13.0897 6.17002 12.4049 5.94631 11.6174 5.94631C11.0268 5.94631 10.5125 6.08483 10.0744 6.36188C9.63553 6.63964 9.28188 6.98434 9.01342 7.39597C8.90604 7.55705 8.88385 7.72242 8.94685 7.89208C9.00913 8.06246 9.1387 8.18344 9.33557 8.25503C9.47875 8.30872 9.62622 8.30872 9.77799 8.25503C9.93047 8.20134 10.0604 8.09396 10.1678 7.93289C10.311 7.71812 10.4989 7.5345 10.7315 7.38201C10.9642 7.23025 11.2595 7.15436 11.6174 7.15436C12.1544 7.15436 12.557 7.30649 12.8255 7.61074C13.094 7.91499 13.2282 8.24608 13.2282 8.60403C13.2282 8.92617 13.1387 9.20823 12.9597 9.4502C12.7808 9.69145 12.5481 9.95526 12.2617 10.2416C11.7964 10.6353 11.4789 10.9754 11.3093 11.2617C11.1389 11.5481 11.0358 11.906 11 12.3356C10.9821 12.4966 11.0315 12.6441 11.1482 12.778C11.2642 12.9126 11.4206 12.9799 11.6174 12.9799V12.9799ZM14.2752 17.5705V19.0201C15.5459 17.9463 16.5792 16.6892 17.3753 15.2489C18.1721 13.8078 18.5705 12.255 18.5705 10.5906C18.5705 8.63982 17.895 6.98864 16.5442 5.63705C15.1926 4.28617 13.5414 3.61074 11.5906 3.61074C9.63982 3.61074 7.98899 4.28617 6.63812 5.63705C5.28653 6.98864 4.61074 8.63982 4.61074 10.5906C4.61074 12.5414 5.28653 14.1926 6.63812 15.5442C7.98899 16.895 9.63982 17.5705 11.5906 17.5705H14.2752Z" fill="#A5B0CC"/>
</svg>
