<svg width="24" height="24" viewBox="0 0 24 24" fill="none" xmlns="http://www.w3.org/2000/svg">
<path d="M5.45098 22C5.23856 22 5.06307 21.9265 4.92451 21.7794C4.78529 21.6324 4.71569 21.4608 4.71569 21.2647C4.71569 21.0523 4.78529 20.8768 4.92451 20.7382C5.06307 20.599 5.23856 20.5294 5.45098 20.5294H19.1765C19.3889 20.5294 19.5647 20.599 19.7039 20.7382C19.8425 20.8768 19.9118 21.0523 19.9118 21.2647C19.9118 21.4608 19.8425 21.6324 19.7039 21.7794C19.5647 21.9265 19.3889 22 19.1765 22H5.45098ZM5.45098 3.47059C5.23856 3.47059 5.06307 3.40098 4.92451 3.26176C4.78529 3.1232 4.71569 2.94771 4.71569 2.73529C4.71569 2.53922 4.78529 2.36765 4.92451 2.22059C5.06307 2.07353 5.23856 2 5.45098 2H19.1765C19.3889 2 19.5647 2.07353 19.7039 2.22059C19.8425 2.36765 19.9118 2.53922 19.9118 2.73529C19.9118 2.94771 19.8425 3.1232 19.7039 3.26176C19.5647 3.40098 19.3889 3.47059 19.1765 3.47059H5.45098ZM12.3137 13.4706C13.0654 13.4706 13.7026 13.2091 14.2255 12.6863C14.7484 12.1634 15.0098 11.5261 15.0098 10.7745C15.0098 10.0229 14.7484 9.38562 14.2255 8.86274C13.7026 8.33987 13.0654 8.07843 12.3137 8.07843C11.5621 8.07843 10.9248 8.33987 10.402 8.86274C9.87908 9.38562 9.61765 10.0229 9.61765 10.7745C9.61765 11.5261 9.87908 12.1634 10.402 12.6863C10.9248 13.2091 11.5621 13.4706 12.3137 13.4706ZM4.76471 19.3529C4.27451 19.3529 3.85784 19.1814 3.51471 18.8382C3.17157 18.4951 3 18.0784 3 17.5882V6.41176C3 5.92157 3.17157 5.5049 3.51471 5.16176C3.85784 4.81863 4.27451 4.64706 4.76471 4.64706H19.8627C20.3529 4.64706 20.7696 4.81863 21.1127 5.16176C21.4559 5.5049 21.6274 5.92157 21.6274 6.41176V17.5882C21.6274 18.0784 21.4559 18.4951 21.1127 18.8382C20.7696 19.1814 20.3529 19.3529 19.8627 19.3529H4.76471ZM6.82353 17.8824C7.55882 17.098 8.39216 16.4935 9.32353 16.0686C10.2549 15.6438 11.2516 15.4314 12.3137 15.4314C13.3758 15.4314 14.3725 15.6438 15.3039 16.0686C16.2353 16.4935 17.0686 17.098 17.8039 17.8824H19.8627C19.9281 17.8824 19.9935 17.8497 20.0588 17.7843C20.1242 17.719 20.1569 17.6536 20.1569 17.5882V6.41176C20.1569 6.3464 20.1242 6.28105 20.0588 6.21569C19.9935 6.15033 19.9281 6.11765 19.8627 6.11765H4.76471C4.69935 6.11765 4.63399 6.15033 4.56863 6.21569C4.50327 6.28105 4.47059 6.3464 4.47059 6.41176V17.5882C4.47059 17.6536 4.50327 17.719 4.56863 17.7843C4.63399 17.8497 4.69935 17.8824 4.76471 17.8824H6.82353ZM9.07843 17.8824H15.549C15.0752 17.5556 14.5647 17.3105 14.0176 17.1471C13.4699 16.9837 12.902 16.902 12.3137 16.902C11.7255 16.902 11.1578 16.9837 10.6108 17.1471C10.0631 17.3105 9.55229 17.5556 9.07843 17.8824ZM12.3137 12C11.9706 12 11.6807 11.8814 11.4441 11.6441C11.2069 11.4075 11.0882 11.1176 11.0882 10.7745C11.0882 10.4314 11.2069 10.1415 11.4441 9.9049C11.6807 9.66765 11.9706 9.54902 12.3137 9.54902C12.6569 9.54902 12.9467 9.66765 13.1833 9.9049C13.4206 10.1415 13.5392 10.4314 13.5392 10.7745C13.5392 11.1176 13.4206 11.4075 13.1833 11.6441C12.9467 11.8814 12.6569 12 12.3137 12Z" fill="#A5B0CC"/>
</svg>
