<svg width="24" height="24" viewBox="0 0 24 24" fill="none" xmlns="http://www.w3.org/2000/svg">
<path d="M4.81818 20.1818H8.87879V12.9697H15.303V20.1818H19.3636V9.27273L12.0909 3.78788L4.81818 9.27273V20.1818ZM4.81818 22C4.31313 22 3.88404 21.823 3.53091 21.4691C3.17697 21.116 3 20.6869 3 20.1818V9.27273C3 8.9899 3.06545 8.71717 3.19636 8.45455C3.32808 8.19192 3.50505 7.9798 3.72727 7.81818L11 2.33333C11.1616 2.21212 11.3333 2.12606 11.5152 2.07515C11.697 2.02505 11.8889 2 12.0909 2C12.2929 2 12.4848 2.02505 12.6667 2.07515C12.8485 2.12606 13.0202 2.21212 13.1818 2.33333L20.4545 7.81818C20.6768 7.9798 20.8533 8.19192 20.9842 8.45455C21.116 8.71717 21.1818 8.9899 21.1818 9.27273V20.1818C21.1818 20.6869 21.0048 21.116 20.6509 21.4691C20.2978 21.823 19.8687 22 19.3636 22H13.4848V14.7879H10.697V22H4.81818Z" fill="#A5B0CC"/>
</svg>
