<svg width="24" height="24" viewBox="0 0 24 24" fill="none" xmlns="http://www.w3.org/2000/svg">
<path d="M13.25 18H3.25C2.5625 18 2 18.5625 2 19.25C2 19.9375 2.5625 20.5 3.25 20.5H13.25C13.9375 20.5 14.5 19.9375 14.5 19.25C14.5 18.5625 13.9375 18 13.25 18ZM20.75 8H3.25C2.5625 8 2 8.5625 2 9.25C2 9.9375 2.5625 10.5 3.25 10.5H20.75C21.4375 10.5 22 9.9375 22 9.25C22 8.5625 21.4375 8 20.75 8ZM3.25 15.5H20.75C21.4375 15.5 22 14.9375 22 14.25C22 13.5625 21.4375 13 20.75 13H3.25C2.5625 13 2 13.5625 2 14.25C2 14.9375 2.5625 15.5 3.25 15.5ZM2 4.25C2 4.9375 2.5625 5.5 3.25 5.5H20.75C21.4375 5.5 22 4.9375 22 4.25C22 3.5625 21.4375 3 20.75 3H3.25C2.5625 3 2 3.5625 2 4.25Z" fill="#A5B0CC"/>
</svg>
