<svg width="24" height="24" viewBox="0 0 24 24" fill="none" xmlns="http://www.w3.org/2000/svg">
<path d="M3 9.63142H21.0008V20.0529C21.0008 20.3042 20.901 20.5452 20.7233 20.7229C20.5457 20.9005 20.3047 21.0004 20.0534 21.0004H3.94741C3.69614 21.0004 3.45516 20.9005 3.27749 20.7229C3.09982 20.5452 3 20.3042 3 20.0529V9.63142ZM3 5.36807C3 5.1168 3.09982 4.87582 3.27749 4.69814C3.45516 4.52047 3.69614 4.42065 3.94741 4.42065H20.0534C20.3047 4.42065 20.5457 4.52047 20.7233 4.69814C20.901 4.87582 21.0008 5.1168 21.0008 5.36807V9.63142H3V5.36807Z" stroke="#A5B0CC" stroke-width="1.5" stroke-linejoin="round"/>
<path d="M8.21338 15.3156L11.0556 18.1579L16.7401 12.4734" stroke="#A5B0CC" stroke-width="1.5" stroke-linecap="round" stroke-linejoin="round"/>
<path d="M8.21338 3V6.78965M15.7927 3V6.78965" stroke="#A5B0CC" stroke-width="1.5" stroke-linecap="round"/>
</svg>
