<svg width="24" height="24" viewBox="0 0 24 24" fill="none" xmlns="http://www.w3.org/2000/svg">
<path d="M12 11.3333C10.7111 11.3333 9.61111 10.872 8.7 9.94933C7.78889 9.02755 7.33333 7.93333 7.33333 6.66667C7.33333 5.37778 7.78889 4.27778 8.7 3.36667C9.61111 2.45556 10.7111 2 12 2C13.2889 2 14.3889 2.45556 15.3 3.36667C16.2111 4.27778 16.6667 5.37778 16.6667 6.66667C16.6667 7.93333 16.2111 9.02755 15.3 9.94933C14.3889 10.872 13.2889 11.3333 12 11.3333ZM19.9667 21.4667H4.03333C3.45556 21.4667 2.97244 21.2724 2.584 20.884C2.19467 20.4947 2 20.0222 2 19.4667V18.5C2 17.8556 2.17778 17.2556 2.53333 16.7C2.88889 16.1444 3.36667 15.7111 3.96667 15.4C5.27778 14.7556 6.60578 14.272 7.95067 13.9493C9.29467 13.6276 10.6444 13.4667 12 13.4667C13.3556 13.4667 14.7058 13.6276 16.0507 13.9493C17.3947 14.272 18.7222 14.7556 20.0333 15.4C20.6333 15.7111 21.1111 16.1444 21.4667 16.7C21.8222 17.2556 22 17.8556 22 18.5V19.4667C22 20.0222 21.8053 20.4947 21.416 20.884C21.0276 21.2724 20.5444 21.4667 19.9667 21.4667V21.4667ZM4 19.4667H20V18.5C20 18.2333 19.9222 17.9889 19.7667 17.7667C19.6111 17.5444 19.4 17.3556 19.1333 17.2C17.9778 16.6444 16.8058 16.2164 15.6173 15.916C14.428 15.6164 13.2222 15.4667 12 15.4667C10.7778 15.4667 9.572 15.6164 8.38267 15.916C7.19422 16.2164 6.02222 16.6444 4.86667 17.2C4.6 17.3556 4.38889 17.5444 4.23333 17.7667C4.07778 17.9889 4 18.2333 4 18.5V19.4667ZM12 9.33333C12.7333 9.33333 13.3613 9.072 13.884 8.54933C14.4058 8.02756 14.6667 7.4 14.6667 6.66667C14.6667 5.93333 14.4058 5.30533 13.884 4.78267C13.3613 4.26089 12.7333 4 12 4C11.2667 4 10.6391 4.26089 10.1173 4.78267C9.59467 5.30533 9.33333 5.93333 9.33333 6.66667C9.33333 7.4 9.59467 8.02756 10.1173 8.54933C10.6391 9.072 11.2667 9.33333 12 9.33333V9.33333Z" fill="#A5B0CC"/>
</svg>
