<svg width="24" height="24" viewBox="0 0 24 24" fill="none" xmlns="http://www.w3.org/2000/svg">
<path d="M9.69231 12.1795C8.70085 12.1795 7.8547 11.8246 7.15385 11.1149C6.45299 10.4058 6.10256 9.5641 6.10256 8.58974C6.10256 7.59829 6.45299 6.75214 7.15385 6.05128C7.8547 5.35043 8.70085 5 9.69231 5C10.6838 5 11.5299 5.35043 12.2308 6.05128C12.9316 6.75214 13.2821 7.59829 13.2821 8.58974C13.2821 9.5641 12.9316 10.4058 12.2308 11.1149C11.5299 11.8246 10.6838 12.1795 9.69231 12.1795ZM15.8205 19.9744H3.5641C3.11966 19.9744 2.74803 19.825 2.44923 19.5262C2.14974 19.2267 2 18.8632 2 18.4359V17.6923C2 17.1966 2.13675 16.735 2.41026 16.3077C2.68376 15.8803 3.05128 15.547 3.51282 15.3077C4.52137 14.812 5.54291 14.44 6.57744 14.1918C7.61128 13.9443 8.64957 13.8205 9.69231 13.8205C10.735 13.8205 11.7737 13.9443 12.8082 14.1918C13.8421 14.44 14.8632 14.812 15.8718 15.3077C16.3333 15.547 16.7009 15.8803 16.9744 16.3077C17.2479 16.735 17.3846 17.1966 17.3846 17.6923V18.4359C17.3846 18.8632 17.2349 19.2267 16.9354 19.5262C16.6366 19.825 16.265 19.9744 15.8205 19.9744V19.9744ZM3.53846 18.4359H15.8462V17.6923C15.8462 17.4872 15.7863 17.2991 15.6667 17.1282C15.547 16.9573 15.3846 16.812 15.1795 16.6923C14.2906 16.265 13.3891 15.9357 12.4749 15.7046C11.56 15.4742 10.6325 15.359 9.69231 15.359C8.75214 15.359 7.82461 15.4742 6.90974 15.7046C5.99556 15.9357 5.09402 16.265 4.20513 16.6923C4 16.812 3.83761 16.9573 3.71795 17.1282C3.59829 17.2991 3.53846 17.4872 3.53846 17.6923V18.4359ZM9.69231 10.641C10.2564 10.641 10.7395 10.44 11.1415 10.0379C11.5429 9.63658 11.7436 9.15385 11.7436 8.58974C11.7436 8.02564 11.5429 7.54256 11.1415 7.14051C10.7395 6.73915 10.2564 6.53846 9.69231 6.53846C9.1282 6.53846 8.64547 6.73915 8.2441 7.14051C7.84205 7.54256 7.64103 8.02564 7.64103 8.58974C7.64103 9.15385 7.84205 9.63658 8.2441 10.0379C8.64547 10.44 9.1282 10.641 9.69231 10.641V10.641Z" fill="#A5B0CC"/>
<path d="M18.5085 19.6663V16.974C18.5085 16.3159 18.3304 15.6838 17.9743 15.0778C17.6176 14.4723 17.1119 13.9527 16.4572 13.5189C17.1992 13.6087 17.8975 13.7618 18.5521 13.9784C19.2068 14.1956 19.8178 14.4612 20.3852 14.7753C20.9089 15.0745 21.309 15.4071 21.5854 15.7733C21.8618 16.14 22.0001 16.5403 22.0001 16.974V18.6663C22.0001 19.2186 21.5523 19.6663 21.0001 19.6663H18.5085ZM18.5085 8.89712C18.5085 9.8843 18.1666 10.7294 17.4829 11.4324C16.7991 12.1354 15.9771 12.4869 15.017 12.4869C14.8569 12.4869 14.6533 12.4683 14.4059 12.4312C14.1586 12.3935 13.955 12.3522 13.7949 12.3074C14.1877 11.8287 14.4894 11.2978 14.7001 10.7144C14.9113 10.1311 15.017 9.52532 15.017 8.89712C15.017 8.26891 14.9113 7.66314 14.7001 7.07981C14.4894 6.49648 14.1877 5.96549 13.7949 5.48686C13.9986 5.41207 14.2023 5.36331 14.4059 5.34058C14.6096 5.31844 14.8133 5.30737 15.017 5.30737C15.9771 5.30737 16.7991 5.65887 17.4829 6.36186C18.1666 7.06485 18.5085 7.90994 18.5085 8.89712Z" fill="#A5B0CC"/>
</svg>
