<svg width="24" height="24" viewBox="0 0 24 24" fill="none" xmlns="http://www.w3.org/2000/svg">
<path d="M11.5526 14.5C11.6404 14.7105 11.7895 14.8158 12 14.8158C12.2105 14.8158 12.3596 14.7105 12.4474 14.5L13.4211 12.3158L15.6053 11.3421C15.8158 11.2544 15.9211 11.1053 15.9211 10.8947C15.9211 10.6842 15.8158 10.5351 15.6053 10.4474L13.4211 9.47368L12.4474 7.28947C12.3596 7.07895 12.2105 6.97368 12 6.97368C11.7895 6.97368 11.6404 7.07895 11.5526 7.28947L10.5789 9.47368L8.39474 10.4474C8.18421 10.5351 8.07895 10.6842 8.07895 10.8947C8.07895 11.1053 8.18421 11.2544 8.39474 11.3421L10.5789 12.3158L11.5526 14.5ZM2 20.2105V4.89474C2 4.36842 2.18421 3.92105 2.55263 3.55263C2.92105 3.18421 3.36842 3 3.89474 3H20.1053C20.6316 3 21.0789 3.18421 21.4474 3.55263C21.8158 3.92105 22 4.36842 22 4.89474V16.8947C22 17.4211 21.8158 17.8684 21.4474 18.2368C21.0789 18.6053 20.6316 18.7895 20.1053 18.7895H5.73684L3.60526 20.8947C3.30702 21.193 2.96491 21.2589 2.57895 21.0926C2.19298 20.9256 2 20.6316 2 20.2105V20.2105ZM3.57895 18.7105L5.07895 17.2105H20.1053C20.193 17.2105 20.2677 17.1796 20.3295 17.1179C20.3905 17.0568 20.4211 16.9825 20.4211 16.8947V4.89474C20.4211 4.80702 20.3905 4.73228 20.3295 4.67053C20.2677 4.60947 20.193 4.57895 20.1053 4.57895H3.89474C3.80702 4.57895 3.73263 4.60947 3.67158 4.67053C3.60982 4.73228 3.57895 4.80702 3.57895 4.89474V18.7105ZM3.57895 4.89474V4.57895V18.7105V4.89474Z" fill="#A5B0CC"/>
</svg>
