<svg width="24" height="24" viewBox="0 0 24 24" fill="none" xmlns="http://www.w3.org/2000/svg">
<path d="M21.7895 9.92105C21.8596 10.2544 21.9123 10.5965 21.9474 10.9474C21.9825 11.2982 22 11.6491 22 12C22 13.386 21.7368 14.6842 21.2105 15.8947C20.6842 17.1053 19.9691 18.1621 19.0653 19.0653C18.1621 19.9691 17.1053 20.6842 15.8947 21.2105C14.6842 21.7368 13.386 22 12 22C10.614 22 9.31579 21.7368 8.10526 21.2105C6.89474 20.6842 5.83754 19.9691 4.93368 19.0653C4.03053 18.1621 3.31579 17.1053 2.78947 15.8947C2.26316 14.6842 2 13.386 2 12C2 10.614 2.26316 9.31579 2.78947 8.10526C3.31579 6.89474 4.03053 5.83754 4.93368 4.93368C5.83754 4.03053 6.89474 3.31579 8.10526 2.78947C9.31579 2.26316 10.614 2 12 2C12.9298 2 13.8246 2.12281 14.6842 2.36842C15.5439 2.61404 16.3421 2.95614 17.0789 3.39474C17.2719 3.51754 17.3905 3.68421 17.4347 3.89474C17.4782 4.10526 17.4211 4.30702 17.2632 4.5C17.1228 4.67544 16.9474 4.78526 16.7368 4.82947C16.5263 4.87298 16.3246 4.83333 16.1316 4.71053C15.5351 4.34211 14.886 4.0614 14.1842 3.86842C13.4825 3.67544 12.7544 3.57895 12 3.57895C9.66667 3.57895 7.68 4.39895 6.04 6.03895C4.3993 7.67965 3.57895 9.66667 3.57895 12C3.57895 14.3333 4.3993 16.3204 6.04 17.9611C7.68 19.6011 9.66667 20.4211 12 20.4211C14.3333 20.4211 16.3204 19.6011 17.9611 17.9611C19.6011 16.3204 20.4211 14.3333 20.4211 12C20.4211 11.7018 20.4035 11.4077 20.3684 11.1179C20.3333 10.8288 20.2807 10.5351 20.2105 10.2368C20.193 10.0614 20.2193 9.89895 20.2895 9.74947C20.3596 9.6007 20.4649 9.48246 20.6053 9.39474C20.8509 9.2193 21.0923 9.19298 21.3295 9.31579C21.566 9.4386 21.7193 9.64035 21.7895 9.92105V9.92105ZM9.84211 15.8158L6.92105 12.8947C6.7807 12.7544 6.71509 12.5744 6.72421 12.3547C6.73263 12.1358 6.80702 11.9561 6.94737 11.8158C7.10526 11.6579 7.29404 11.5789 7.51368 11.5789C7.73263 11.5789 7.91228 11.6579 8.05263 11.8158L10.5 14.2632L20.3684 4.39474C20.5088 4.23684 20.6888 4.16211 20.9084 4.17053C21.1274 4.17965 21.307 4.26316 21.4474 4.42105C21.6053 4.5614 21.6842 4.74105 21.6842 4.96C21.6842 5.17965 21.6053 5.36842 21.4474 5.52632L11.1842 15.8158C10.9912 15.9912 10.7632 16.0789 10.5 16.0789C10.2368 16.0789 10.0175 15.9912 9.84211 15.8158Z" fill="#A5B0CC"/>
</svg>
