<svg width="350" height="97" viewBox="0 0 350 97" fill="none" xmlns="http://www.w3.org/2000/svg">
<rect width="350" height="97" rx="16" fill="#AEB9F1"/>
<path d="M48.9794 54V52.8864L52.4247 49.3168C52.7926 48.929 53.0959 48.5893 53.3345 48.2976C53.5765 48.0026 53.7571 47.7225 53.8764 47.4574C53.9957 47.1922 54.0554 46.9105 54.0554 46.6122C54.0554 46.2741 53.9759 45.9825 53.8168 45.7372C53.6577 45.4886 53.4406 45.2981 53.1655 45.1655C52.8904 45.0296 52.5805 44.9616 52.2358 44.9616C51.8712 44.9616 51.553 45.0362 51.2812 45.1854C51.0095 45.3345 50.8007 45.545 50.6548 45.8168C50.509 46.0885 50.4361 46.4067 50.4361 46.7713H48.9695C48.9695 46.1515 49.112 45.6096 49.397 45.1456C49.6821 44.6816 50.0732 44.322 50.5703 44.0668C51.0675 43.8082 51.6326 43.679 52.2656 43.679C52.9053 43.679 53.4688 43.8066 53.956 44.0618C54.4465 44.3137 54.8293 44.6584 55.1044 45.0959C55.3795 45.5301 55.517 46.0206 55.517 46.5675C55.517 46.9453 55.4458 47.3149 55.3033 47.6761C55.1641 48.0374 54.9205 48.4401 54.5724 48.8842C54.2244 49.325 53.7405 49.8603 53.1207 50.4901L51.0973 52.608V52.6825H55.6811V54H48.9794ZM60.9261 54.1392C60.303 54.1392 59.7429 54.0199 59.2457 53.7812C58.7519 53.5393 58.3575 53.2079 58.0625 52.7869C57.7675 52.366 57.6101 51.8854 57.5902 51.3452H59.0817C59.1181 51.7827 59.312 52.1423 59.6634 52.424C60.0147 52.7057 60.4356 52.8466 60.9261 52.8466C61.3172 52.8466 61.6636 52.7571 61.9652 52.5781C62.2701 52.3958 62.5088 52.1456 62.6811 51.8274C62.8568 51.5092 62.9446 51.1463 62.9446 50.7386C62.9446 50.3243 62.8551 49.9548 62.6761 49.63C62.4972 49.3052 62.2502 49.05 61.9354 48.8643C61.6238 48.6787 61.2659 48.5843 60.8615 48.581C60.5533 48.581 60.2434 48.634 59.9318 48.7401C59.6203 48.8461 59.3684 48.9853 59.1761 49.1577L57.7692 48.9489L58.3409 43.8182H63.9389V45.1357H59.6186L59.2955 47.9844H59.3551C59.554 47.7921 59.8175 47.6314 60.1456 47.5021C60.477 47.3729 60.8317 47.3082 61.2095 47.3082C61.8293 47.3082 62.3812 47.4557 62.8651 47.7507C63.3523 48.0457 63.7351 48.4484 64.0135 48.9588C64.2952 49.4659 64.4344 50.0492 64.4311 50.7088C64.4344 51.3684 64.2853 51.9567 63.9837 52.4737C63.6854 52.9908 63.2711 53.3984 62.7408 53.6967C62.2138 53.9917 61.6089 54.1392 60.9261 54.1392ZM71.5616 52.0909V51.554C71.5616 51.1695 71.6412 50.8182 71.8002 50.5C71.9627 50.1785 72.198 49.9216 72.5062 49.7294C72.8178 49.5339 73.194 49.4361 73.6348 49.4361C74.0855 49.4361 74.4634 49.5322 74.7683 49.7244C75.0732 49.9167 75.3036 50.1735 75.4593 50.495C75.6184 50.8165 75.698 51.1695 75.698 51.554V52.0909C75.698 52.4754 75.6184 52.8284 75.4593 53.1499C75.3002 53.468 75.0666 53.7249 74.7583 53.9205C74.4534 54.1127 74.0789 54.2088 73.6348 54.2088C73.1873 54.2088 72.8095 54.1127 72.5012 53.9205C72.193 53.7249 71.9593 53.468 71.8002 53.1499C71.6412 52.8284 71.5616 52.4754 71.5616 52.0909ZM72.72 51.554V52.0909C72.72 52.3759 72.7879 52.6345 72.9238 52.8665C73.0597 53.0985 73.2967 53.2145 73.6348 53.2145C73.9695 53.2145 74.2032 53.0985 74.3358 52.8665C74.4683 52.6345 74.5346 52.3759 74.5346 52.0909V51.554C74.5346 51.2689 74.47 51.0104 74.3407 50.7784C74.2148 50.5464 73.9795 50.4304 73.6348 50.4304C73.3033 50.4304 73.068 50.5464 72.9288 50.7784C72.7896 51.0104 72.72 51.2689 72.72 51.554ZM66.4409 46.2642V45.7273C66.4409 45.3428 66.5204 44.9898 66.6795 44.6683C66.8419 44.3468 67.0772 44.09 67.3855 43.8977C67.697 43.7055 68.0732 43.6094 68.514 43.6094C68.9648 43.6094 69.3426 43.7055 69.6475 43.8977C69.9525 44.09 70.1828 44.3468 70.3386 44.6683C70.4944 44.9898 70.5723 45.3428 70.5723 45.7273V46.2642C70.5723 46.6487 70.4927 47.0017 70.3336 47.3232C70.1779 47.6413 69.9458 47.8982 69.6376 48.0938C69.3327 48.286 68.9582 48.3821 68.514 48.3821C68.0633 48.3821 67.6838 48.286 67.3755 48.0938C67.0706 47.8982 66.8386 47.6413 66.6795 47.3232C66.5204 47.0017 66.4409 46.6487 66.4409 46.2642ZM67.6042 45.7273V46.2642C67.6042 46.5492 67.6705 46.8078 67.8031 47.0398C67.939 47.2718 68.176 47.3878 68.514 47.3878C68.8455 47.3878 69.0775 47.2718 69.21 47.0398C69.3459 46.8078 69.4139 46.5492 69.4139 46.2642V45.7273C69.4139 45.4422 69.3493 45.1837 69.22 44.9517C69.0907 44.7197 68.8554 44.6037 68.514 44.6037C68.1826 44.6037 67.9473 44.7197 67.8081 44.9517C67.6722 45.1837 67.6042 45.4422 67.6042 45.7273ZM66.9132 54L73.9132 43.8182H75.1014L68.1014 54H66.9132Z" fill="white"/>
<path fill-rule="evenodd" clip-rule="evenodd" d="M308.293 55.7071C307.902 55.3166 307.902 54.6834 308.293 54.2929L314.086 48.5L308.293 42.7071C307.902 42.3166 307.902 41.6834 308.293 41.2929C308.683 40.9024 309.317 40.9024 309.707 41.2929L315.5 47.0858C316.281 47.8668 316.281 49.1332 315.5 49.9142L309.707 55.7071C309.317 56.0976 308.683 56.0976 308.293 55.7071Z" fill="white"/>
<path d="M108.756 58.5483V69H107.491V59.8752H107.429L104.878 61.5695V60.2834L107.491 58.5483H108.756ZM115.028 69.1429C114.43 69.1429 113.89 69.0238 113.411 68.7857C112.931 68.5475 112.546 68.2209 112.257 67.8058C111.968 67.3907 111.81 66.9178 111.783 66.3871H113.007C113.055 66.86 113.269 67.2512 113.65 67.5609C114.035 67.8671 114.494 68.0202 115.028 68.0202C115.457 68.0202 115.838 67.9198 116.172 67.7191C116.508 67.5183 116.772 67.2427 116.963 66.8923C117.156 66.5385 117.253 66.1387 117.253 65.693C117.253 65.2371 117.153 64.8305 116.952 64.4733C116.755 64.1127 116.483 63.8286 116.136 63.6211C115.789 63.4135 115.392 63.308 114.947 63.3046C114.627 63.3012 114.299 63.3506 113.962 63.4526C113.625 63.5513 113.348 63.6789 113.13 63.8354L111.946 63.6925L112.579 58.5483H118.009V59.671H113.64L113.273 62.7535H113.334C113.548 62.5834 113.817 62.4422 114.14 62.3299C114.464 62.2176 114.8 62.1615 115.151 62.1615C115.79 62.1615 116.36 62.3146 116.86 62.6208C117.364 62.9236 117.759 63.3387 118.044 63.866C118.334 64.3934 118.478 64.9956 118.478 65.6726C118.478 66.3394 118.329 66.9348 118.029 67.4588C117.733 67.9793 117.325 68.391 116.804 68.6938C116.284 68.9932 115.692 69.1429 115.028 69.1429ZM123.772 69.1429C123.173 69.1429 122.634 69.0238 122.154 68.7857C121.674 68.5475 121.29 68.2209 121.001 67.8058C120.711 67.3907 120.553 66.9178 120.526 66.3871H121.751C121.798 66.86 122.013 67.2512 122.394 67.5609C122.778 67.8671 123.238 68.0202 123.772 68.0202C124.2 68.0202 124.581 67.9198 124.915 67.7191C125.252 67.5183 125.515 67.2427 125.706 66.8923C125.9 66.5385 125.997 66.1387 125.997 65.693C125.997 65.2371 125.896 64.8305 125.696 64.4733C125.498 64.1127 125.226 63.8286 124.879 63.6211C124.532 63.4135 124.136 63.308 123.69 63.3046C123.37 63.3012 123.042 63.3506 122.705 63.4526C122.368 63.5513 122.091 63.6789 121.873 63.8354L120.689 63.6925L121.322 58.5483H126.752V59.671H122.384L122.016 62.7535H122.077C122.292 62.5834 122.561 62.4422 122.884 62.3299C123.207 62.2176 123.544 62.1615 123.894 62.1615C124.534 62.1615 125.104 62.3146 125.604 62.6208C126.107 62.9236 126.502 63.3387 126.788 63.866C127.077 64.3934 127.222 64.9956 127.222 65.6726C127.222 66.3394 127.072 66.9348 126.773 67.4588C126.477 67.9793 126.068 68.391 125.548 68.6938C125.027 68.9932 124.435 69.1429 123.772 69.1429ZM141.293 58.5483V69H140.027V59.671H134.761V69H133.495V58.5483H141.293ZM146.969 69.1633C146.214 69.1633 145.562 68.9966 145.014 68.6632C144.47 68.3264 144.05 67.8568 143.754 67.2546C143.461 66.649 143.315 65.9448 143.315 65.1419C143.315 64.3389 143.461 63.6313 143.754 63.0189C144.05 62.403 144.462 61.9233 144.989 61.5797C145.52 61.2327 146.139 61.0592 146.847 61.0592C147.255 61.0592 147.658 61.1272 148.056 61.2633C148.454 61.3994 148.817 61.6205 149.143 61.9267C149.47 62.2295 149.73 62.631 149.924 63.1311C150.118 63.6313 150.215 64.2471 150.215 64.9785V65.4889H144.172V64.4478H148.99C148.99 64.0055 148.902 63.6108 148.725 63.2638C148.551 62.9168 148.303 62.6429 147.98 62.4422C147.66 62.2414 147.282 62.1411 146.847 62.1411C146.367 62.1411 145.952 62.2602 145.601 62.4983C145.254 62.7331 144.987 63.0393 144.8 63.4169C144.613 63.7946 144.519 64.1994 144.519 64.6315V65.3256C144.519 65.9176 144.622 66.4194 144.826 66.8311C145.033 67.2393 145.321 67.5506 145.688 67.765C146.056 67.9759 146.483 68.0814 146.969 68.0814C147.285 68.0814 147.571 68.0372 147.826 67.9487C148.085 67.8568 148.308 67.7208 148.495 67.5404C148.682 67.3567 148.827 67.1288 148.929 66.8566L150.092 67.1832C149.97 67.5779 149.764 67.9249 149.475 68.2243C149.186 68.5203 148.828 68.7516 148.403 68.9183C147.978 69.0817 147.5 69.1633 146.969 69.1633ZM152.047 71.9395V61.1612H153.211V62.4064H153.353C153.442 62.2704 153.564 62.0968 153.721 61.8859C153.881 61.6716 154.109 61.481 154.405 61.3143C154.704 61.1442 155.109 61.0592 155.619 61.0592C156.279 61.0592 156.861 61.2242 157.365 61.5542C157.868 61.8842 158.261 62.352 158.544 62.9576C158.826 63.5632 158.967 64.2777 158.967 65.101C158.967 65.9312 158.826 66.6507 158.544 67.2598C158.261 67.8654 157.87 68.3349 157.37 68.6683C156.87 68.9983 156.293 69.1633 155.64 69.1633C155.136 69.1633 154.733 69.08 154.43 68.9132C154.127 68.7431 153.894 68.5509 153.731 68.3366C153.568 68.1188 153.442 67.9385 153.353 67.7956H153.251V71.9395H152.047ZM153.231 65.0806C153.231 65.6726 153.318 66.1948 153.491 66.6473C153.665 67.0964 153.918 67.4486 154.252 67.7037C154.585 67.9555 154.993 68.0814 155.476 68.0814C155.98 68.0814 156.4 67.9487 156.737 67.6833C157.077 67.4146 157.332 67.0539 157.502 66.6014C157.676 66.1455 157.763 65.6386 157.763 65.0806C157.763 64.5294 157.678 64.0327 157.508 63.5904C157.341 63.1447 157.087 62.7926 156.747 62.534C156.41 62.2721 155.987 62.1411 155.476 62.1411C154.986 62.1411 154.575 62.2653 154.241 62.5136C153.908 62.7586 153.656 63.1022 153.486 63.5445C153.316 63.9834 153.231 64.4954 153.231 65.0806ZM164.091 69.1633C163.336 69.1633 162.684 68.9966 162.136 68.6632C161.592 68.3264 161.172 67.8568 160.876 67.2546C160.583 66.649 160.437 65.9448 160.437 65.1419C160.437 64.3389 160.583 63.6313 160.876 63.0189C161.172 62.403 161.583 61.9233 162.111 61.5797C162.642 61.2327 163.261 61.0592 163.968 61.0592C164.377 61.0592 164.78 61.1272 165.178 61.2633C165.576 61.3994 165.938 61.6205 166.265 61.9267C166.592 62.2295 166.852 62.631 167.046 63.1311C167.24 63.6313 167.337 64.2471 167.337 64.9785V65.4889H161.294V64.4478H166.112C166.112 64.0055 166.023 63.6108 165.846 63.2638C165.673 62.9168 165.425 62.6429 165.101 62.4422C164.782 62.2414 164.404 62.1411 163.968 62.1411C163.489 62.1411 163.074 62.2602 162.723 62.4983C162.376 62.7331 162.109 63.0393 161.922 63.4169C161.735 63.7946 161.641 64.1994 161.641 64.6315V65.3256C161.641 65.9176 161.743 66.4194 161.947 66.8311C162.155 67.2393 162.442 67.5506 162.81 67.765C163.177 67.9759 163.604 68.0814 164.091 68.0814C164.407 68.0814 164.693 68.0372 164.948 67.9487C165.207 67.8568 165.43 67.7208 165.617 67.5404C165.804 67.3567 165.949 67.1288 166.051 66.8566L167.214 67.1832C167.092 67.5779 166.886 67.9249 166.597 68.2243C166.307 68.5203 165.95 68.7516 165.525 68.9183C165.1 69.0817 164.622 69.1633 164.091 69.1633ZM174.007 61.1612V62.284H170.373V69H169.169V61.1612H174.007ZM174.411 69V67.8773H174.697C174.932 67.8773 175.127 67.8313 175.284 67.7395C175.44 67.6442 175.566 67.4792 175.661 67.2444C175.76 67.0063 175.835 66.6763 175.886 66.2544C175.94 65.8291 175.98 65.2882 176.003 64.6315L176.146 61.1612H181.372V69H180.168V62.284H177.289L177.167 65.0806C177.14 65.7236 177.082 66.2901 176.993 66.78C176.908 67.2666 176.777 67.6748 176.601 68.0048C176.427 68.3349 176.196 68.5832 175.906 68.7499C175.617 68.9166 175.255 69 174.819 69H174.411ZM188.297 69V62.2636H186.215C185.746 62.2636 185.377 62.3724 185.108 62.5902C184.839 62.8079 184.705 63.1073 184.705 63.4884C184.705 63.8626 184.825 64.1569 185.067 64.3712C185.312 64.5856 185.647 64.6928 186.072 64.6928H188.604V65.8155H186.072C185.542 65.8155 185.084 65.7219 184.7 65.5348C184.315 65.3477 184.019 65.0806 183.812 64.7336C183.604 64.3832 183.5 63.9681 183.5 63.4884C183.5 63.0052 183.609 62.5902 183.827 62.2431C184.045 61.8961 184.356 61.629 184.761 61.4419C185.169 61.2548 185.654 61.1612 186.215 61.1612H189.441V69H188.297ZM183.072 69L185.297 65.101H186.603L184.378 69H183.072ZM190.815 71.2455V67.8773H191.468C191.628 67.7105 191.766 67.5302 191.881 67.3363C191.997 67.1424 192.097 66.9127 192.182 66.6473C192.271 66.3786 192.346 66.052 192.407 65.6675C192.468 65.2796 192.523 64.8118 192.57 64.2641L192.836 61.1612H197.816V67.8773H199.021V71.2455H197.816V69H192.019V71.2455H190.815ZM192.836 67.8773H196.612V62.284H193.958L193.754 64.2641C193.669 65.084 193.564 65.8002 193.438 66.4126C193.312 67.025 193.111 67.5132 192.836 67.8773ZM200.62 69V61.1612H201.824V69H200.62ZM201.232 59.8548C200.997 59.8548 200.795 59.7748 200.625 59.6149C200.458 59.455 200.375 59.2628 200.375 59.0382C200.375 58.8137 200.458 58.6215 200.625 58.4615C200.795 58.3016 200.997 58.2217 201.232 58.2217C201.467 58.2217 201.667 58.3016 201.834 58.4615C202.004 58.6215 202.089 58.8137 202.089 59.0382C202.089 59.2628 202.004 59.455 201.834 59.6149C201.667 59.7748 201.467 59.8548 201.232 59.8548ZM204.03 69V61.1612H207.235C208.079 61.1612 208.749 61.3518 209.245 61.7328C209.742 62.1139 209.991 62.6174 209.991 63.2434C209.991 63.7197 209.849 64.0889 209.567 64.3508C209.285 64.6094 208.922 64.7846 208.48 64.8765C208.769 64.9173 209.05 65.0194 209.322 65.1827C209.598 65.346 209.826 65.5705 210.006 65.8563C210.186 66.1387 210.276 66.4857 210.276 66.8974C210.276 67.2989 210.174 67.6578 209.97 67.9742C209.766 68.2906 209.473 68.5407 209.092 68.7244C208.711 68.9081 208.255 69 207.725 69H204.03ZM205.173 67.8977H207.725C208.14 67.8977 208.465 67.799 208.699 67.6017C208.934 67.4043 209.052 67.1356 209.052 66.7953C209.052 66.3905 208.934 66.0724 208.699 65.841C208.465 65.6063 208.14 65.4889 207.725 65.4889H205.173V67.8977ZM205.173 64.4478H207.235C207.558 64.4478 207.835 64.4036 208.067 64.3151C208.298 64.2232 208.475 64.094 208.597 63.9273C208.723 63.7571 208.786 63.5564 208.786 63.3251C208.786 62.995 208.648 62.7365 208.373 62.5493C208.097 62.3588 207.718 62.2636 207.235 62.2636H205.173V64.4478Z" fill="white"/>
<path d="M105.381 29.4277H107.683L111.686 39.2007H111.833L115.836 29.4277H118.138V42H116.333V32.9022H116.216L112.508 41.9816H111.011L107.303 32.8961H107.186V42H105.381V29.4277ZM123.492 42.2087C122.895 42.2087 122.355 42.0982 121.872 41.8772C121.389 41.6521 121.006 41.3268 120.724 40.9011C120.445 40.4755 120.306 39.9537 120.306 39.3357C120.306 38.8037 120.409 38.3658 120.613 38.022C120.818 37.6783 121.094 37.4061 121.442 37.2056C121.79 37.005 122.179 36.8536 122.608 36.7513C123.038 36.649 123.476 36.5712 123.922 36.518C124.487 36.4525 124.945 36.3993 125.297 36.3584C125.649 36.3134 125.905 36.2418 126.065 36.1436C126.224 36.0453 126.304 35.8857 126.304 35.6647V35.6218C126.304 35.0856 126.152 34.6702 125.85 34.3756C125.551 34.0809 125.105 33.9336 124.511 33.9336C123.893 33.9336 123.406 34.0707 123.05 34.3449C122.698 34.615 122.455 34.9158 122.32 35.2473L120.595 34.8544C120.799 34.2814 121.098 33.819 121.491 33.467C121.888 33.111 122.344 32.8531 122.86 32.6935C123.376 32.5298 123.918 32.448 124.487 32.448C124.863 32.448 125.262 32.493 125.684 32.583C126.11 32.669 126.507 32.8286 126.875 33.0619C127.247 33.2951 127.552 33.6287 127.79 34.0625C128.027 34.4922 128.146 35.0508 128.146 35.7384V42H126.353V40.7108H126.279C126.161 40.9482 125.983 41.1815 125.745 41.4107C125.508 41.6399 125.203 41.8302 124.831 41.9816C124.458 42.133 124.012 42.2087 123.492 42.2087ZM123.891 40.7354C124.399 40.7354 124.833 40.6351 125.193 40.4346C125.557 40.2341 125.833 39.9721 126.022 39.6488C126.214 39.3214 126.31 38.9715 126.31 38.5991V37.3836C126.245 37.4491 126.118 37.5105 125.929 37.5678C125.745 37.621 125.535 37.668 125.297 37.709C125.06 37.7458 124.829 37.7806 124.603 37.8133C124.378 37.842 124.19 37.8665 124.039 37.887C123.683 37.932 123.357 38.0077 123.063 38.1141C122.772 38.2205 122.539 38.374 122.363 38.5745C122.191 38.771 122.105 39.0329 122.105 39.3603C122.105 39.8146 122.273 40.1583 122.608 40.3916C122.944 40.6208 123.372 40.7354 123.891 40.7354ZM132.389 39.4278L136.545 32.5708H138.522V42H136.723V35.1368L132.585 42H130.59V32.5708H132.389V39.4278ZM135.759 29.3786H137.269C137.269 30.0702 137.024 30.6329 136.533 31.0667C136.046 31.4965 135.387 31.7113 134.556 31.7113C133.729 31.7113 133.072 31.4965 132.585 31.0667C132.098 30.6329 131.855 30.0702 131.855 29.3786H133.359C133.359 29.6855 133.449 29.9577 133.629 30.195C133.809 30.4283 134.118 30.5449 134.556 30.5449C134.986 30.5449 135.293 30.4283 135.477 30.195C135.665 29.9617 135.759 29.6896 135.759 29.3786ZM144.961 42.1903C144.049 42.1903 143.263 41.9836 142.604 41.5703C141.949 41.1528 141.446 40.5778 141.094 39.8453C140.742 39.1127 140.566 38.2737 140.566 37.3283C140.566 36.3707 140.746 35.5256 141.106 34.793C141.466 34.0563 141.974 33.4813 142.629 33.068C143.283 32.6546 144.055 32.448 144.943 32.448C145.659 32.448 146.298 32.581 146.858 32.847C147.419 33.1089 147.871 33.4773 148.215 33.952C148.563 34.4267 148.769 34.9813 148.835 35.6156H147.049C146.95 35.1736 146.725 34.793 146.373 34.4738C146.025 34.1546 145.559 33.995 144.974 33.995C144.462 33.995 144.014 34.13 143.629 34.4001C143.249 34.6661 142.952 35.0467 142.739 35.5419C142.526 36.0331 142.42 36.6142 142.42 37.2854C142.42 37.9729 142.524 38.5663 142.733 39.0656C142.942 39.5649 143.236 39.9517 143.617 40.2259C144.002 40.5001 144.454 40.6372 144.974 40.6372C145.322 40.6372 145.637 40.5737 145.919 40.4469C146.206 40.3159 146.445 40.1297 146.637 39.8882C146.834 39.6468 146.971 39.3562 147.049 39.0165H148.835C148.769 39.6263 148.571 40.1706 148.24 40.6495C147.908 41.1283 147.464 41.5048 146.907 41.779C146.355 42.0532 145.706 42.1903 144.961 42.1903ZM150.084 34.1546V32.5708H158.04V34.1546H154.965V42H153.172V34.1546H150.084ZM163.607 42.1903C162.678 42.1903 161.877 41.9918 161.206 41.5948C160.539 41.1938 160.024 40.631 159.659 39.9067C159.299 39.1782 159.119 38.3249 159.119 37.3468C159.119 36.3809 159.299 35.5297 159.659 34.793C160.024 34.0563 160.531 33.4813 161.182 33.068C161.837 32.6546 162.602 32.448 163.478 32.448C164.01 32.448 164.525 32.536 165.025 32.7119C165.524 32.8879 165.972 33.1642 166.369 33.5407C166.766 33.9172 167.079 34.4063 167.308 35.0079C167.537 35.6054 167.652 36.3318 167.652 37.1872V37.8379H160.157V36.4628H165.853C165.853 35.9799 165.755 35.5522 165.559 35.1798C165.362 34.8032 165.086 34.5065 164.73 34.2896C164.378 34.0727 163.965 33.9643 163.49 33.9643C162.974 33.9643 162.524 34.0911 162.139 34.3449C161.759 34.5945 161.464 34.9219 161.255 35.3271C161.051 35.7282 160.948 36.164 160.948 36.6347V37.709C160.948 38.3392 161.059 38.8753 161.28 39.3173C161.505 39.7593 161.818 40.097 162.219 40.3302C162.62 40.5594 163.089 40.674 163.625 40.674C163.973 40.674 164.29 40.6249 164.576 40.5267C164.863 40.4244 165.111 40.2729 165.319 40.0724C165.528 39.8719 165.688 39.6243 165.798 39.3296L167.535 39.6427C167.396 40.1543 167.147 40.6024 166.786 40.9871C166.43 41.3677 165.982 41.6644 165.442 41.8772C164.906 42.0859 164.294 42.1903 163.607 42.1903ZM169.689 45.536V32.5708H171.481V34.0993H171.635C171.741 33.9029 171.894 33.6757 172.095 33.4179C172.296 33.1601 172.574 32.935 172.93 32.7426C173.286 32.5462 173.757 32.448 174.342 32.448C175.103 32.448 175.782 32.6403 176.38 33.025C176.977 33.4097 177.446 33.9643 177.786 34.6886C178.129 35.413 178.301 36.2847 178.301 37.3038C178.301 38.3228 178.132 39.1966 177.792 39.9251C177.452 40.6495 176.986 41.2081 176.392 41.601C175.799 41.9898 175.121 42.1842 174.36 42.1842C173.787 42.1842 173.319 42.088 172.954 41.8956C172.594 41.7033 172.312 41.4782 172.107 41.2204C171.903 40.9625 171.745 40.7334 171.635 40.5328H171.524V45.536H169.689ZM171.487 37.2854C171.487 37.9484 171.583 38.5295 171.776 39.0288C171.968 39.5281 172.246 39.9189 172.611 40.2013C172.975 40.4796 173.421 40.6188 173.949 40.6188C174.497 40.6188 174.956 40.4735 175.324 40.1829C175.692 39.8882 175.971 39.4892 176.159 38.9858C176.351 38.4824 176.447 37.9156 176.447 37.2854C176.447 36.6633 176.353 36.1047 176.165 35.6095C175.981 35.1143 175.703 34.7234 175.33 34.437C174.962 34.1505 174.501 34.0072 173.949 34.0072C173.417 34.0072 172.967 34.1443 172.598 34.4185C172.234 34.6927 171.958 35.0754 171.77 35.5665C171.581 36.0576 171.487 36.6306 171.487 37.2854ZM185.914 35.8919V37.4818H180.339V35.8919H185.914ZM188.36 42V32.5708H190.195V36.5242H191.079L194.192 32.5708H196.463L192.811 37.1565L196.506 42H194.229L191.386 38.2308H190.195V42H188.36ZM197.189 42L197.183 40.41H197.521C197.782 40.41 198.001 40.3548 198.177 40.2443C198.357 40.1297 198.505 39.9374 198.619 39.6672C198.734 39.3971 198.822 39.0247 198.883 38.55C198.945 38.0711 198.99 37.4695 199.018 36.7452L199.184 32.5708H205.765V42H203.966V34.1546H200.885L200.737 37.359C200.7 38.1366 200.621 38.816 200.498 39.3971C200.379 39.9783 200.205 40.4632 199.976 40.852C199.747 41.2367 199.452 41.5253 199.092 41.7176C198.732 41.9059 198.294 42 197.778 42H197.189ZM210.957 42.2087C210.359 42.2087 209.819 42.0982 209.336 41.8772C208.853 41.6521 208.471 41.3268 208.188 40.9011C207.91 40.4755 207.771 39.9537 207.771 39.3357C207.771 38.8037 207.873 38.3658 208.078 38.022C208.282 37.6783 208.559 37.4061 208.907 37.2056C209.254 37.005 209.643 36.8536 210.073 36.7513C210.503 36.649 210.941 36.5712 211.387 36.518C211.951 36.4525 212.41 36.3993 212.762 36.3584C213.114 36.3134 213.369 36.2418 213.529 36.1436C213.689 36.0453 213.768 35.8857 213.768 35.6647V35.6218C213.768 35.0856 213.617 34.6702 213.314 34.3756C213.015 34.0809 212.569 33.9336 211.976 33.9336C211.358 33.9336 210.871 34.0707 210.515 34.3449C210.163 34.615 209.919 34.9158 209.784 35.2473L208.059 34.8544C208.264 34.2814 208.563 33.819 208.956 33.467C209.353 33.111 209.809 32.8531 210.325 32.6935C210.84 32.5298 211.383 32.448 211.951 32.448C212.328 32.448 212.727 32.493 213.148 32.583C213.574 32.669 213.971 32.8286 214.339 33.0619C214.712 33.2951 215.017 33.6287 215.254 34.0625C215.491 34.4922 215.61 35.0508 215.61 35.7384V42H213.818V40.7108H213.744C213.625 40.9482 213.447 41.1815 213.21 41.4107C212.972 41.6399 212.668 41.8302 212.295 41.9816C211.923 42.133 211.477 42.2087 210.957 42.2087ZM211.356 40.7354C211.863 40.7354 212.297 40.6351 212.657 40.4346C213.022 40.2341 213.298 39.9721 213.486 39.6488C213.678 39.3214 213.775 38.9715 213.775 38.5991V37.3836C213.709 37.4491 213.582 37.5105 213.394 37.5678C213.21 37.621 212.999 37.668 212.762 37.709C212.524 37.7458 212.293 37.7806 212.068 37.8133C211.843 37.842 211.655 37.8665 211.503 37.887C211.147 37.932 210.822 38.0077 210.527 38.1141C210.237 38.2205 210.003 38.374 209.827 38.5745C209.655 38.771 209.57 39.0329 209.57 39.3603C209.57 39.8146 209.737 40.1583 210.073 40.3916C210.409 40.6208 210.836 40.7354 211.356 40.7354ZM222.027 42.1903C221.114 42.1903 220.328 41.9836 219.669 41.5703C219.015 41.1528 218.511 40.5778 218.159 39.8453C217.807 39.1127 217.631 38.2737 217.631 37.3283C217.631 36.3707 217.811 35.5256 218.172 34.793C218.532 34.0563 219.039 33.4813 219.694 33.068C220.349 32.6546 221.12 32.448 222.008 32.448C222.725 32.448 223.363 32.581 223.924 32.847C224.484 33.1089 224.937 33.4773 225.28 33.952C225.628 34.4267 225.835 34.9813 225.9 35.6156H224.114C224.016 35.1736 223.791 34.793 223.439 34.4738C223.091 34.1546 222.624 33.995 222.039 33.995C221.527 33.995 221.079 34.13 220.695 34.4001C220.314 34.6661 220.017 35.0467 219.805 35.5419C219.592 36.0331 219.485 36.6142 219.485 37.2854C219.485 37.9729 219.59 38.5663 219.798 39.0656C220.007 39.5649 220.302 39.9517 220.682 40.2259C221.067 40.5001 221.519 40.6372 222.039 40.6372C222.387 40.6372 222.702 40.5737 222.984 40.4469C223.271 40.3159 223.51 40.1297 223.703 39.8882C223.899 39.6468 224.036 39.3562 224.114 39.0165H225.9C225.835 39.6263 225.636 40.1706 225.305 40.6495C224.973 41.1283 224.529 41.5048 223.973 41.779C223.42 42.0532 222.772 42.1903 222.027 42.1903Z" fill="#4F4F4F"/>
<path d="M87.9674 49.8379C88.1589 45.9078 87.5047 41.9824 86.0491 38.3268C84.5935 34.6712 82.3704 31.3706 79.5299 28.6477C76.6894 25.9249 73.2977 23.8433 69.5838 22.5436C65.8699 21.2439 61.9204 20.7563 58.0019 21.1137L58.4708 26.2541C61.6538 25.9638 64.862 26.3599 67.8788 27.4157C70.8956 28.4714 73.6506 30.1623 75.958 32.374C78.2653 34.5858 80.0711 37.2669 81.2535 40.2364C82.4359 43.2058 82.9673 46.3944 82.8118 49.5868L87.9674 49.8379Z" fill="white"/>
<path d="M58.076 21.107C52.8058 21.5734 47.782 23.5502 43.6071 26.8003C39.4322 30.0503 36.2835 34.4358 34.5386 39.4306C32.7937 44.4254 32.5267 49.8175 33.7696 54.9603C35.0125 60.103 37.7126 64.7781 41.5459 68.4247C45.3793 72.0713 50.1833 74.5347 55.3816 75.5195C60.58 76.5042 65.9521 75.9685 70.8536 73.9765C75.7551 71.9845 79.978 68.6209 83.0157 64.2891C86.0534 59.9572 87.777 54.841 87.9798 49.5541L82.8218 49.3562C82.6571 53.6508 81.257 57.8067 78.7895 61.3254C76.3219 64.8442 72.8917 67.5765 68.9102 69.1945C64.9287 70.8126 60.565 71.2478 56.3424 70.4479C52.1197 69.648 48.2175 67.647 45.1036 64.6848C41.9898 61.7226 39.7965 57.9251 38.7869 53.7477C37.7773 49.5702 37.9942 45.1902 39.4116 41.1329C40.829 37.0756 43.3866 33.5134 46.7779 30.8733C50.1692 28.2333 54.25 26.6276 58.531 26.2487L58.076 21.107Z" fill="#F2982A"/>
</svg>
