<svg width="265" height="157" viewBox="0 0 265 157" fill="none" xmlns="http://www.w3.org/2000/svg">
<path d="M15.6385 106.09L12.6226 107.014C5.90053 109.074 1.31087 115.281 1.31087 122.312V156H264V92.0646C264 88.6515 262.908 85.3278 260.885 82.5792L232.27 43.7089C229.255 39.6127 224.472 37.1943 219.385 37.1943H212.166C207.843 37.1943 203.704 38.9434 200.692 42.0434L191.474 51.5283C189.306 53.7589 186.535 55.3093 183.5 55.9898L155.668 62.23L130.855 65.7651C128.267 66.1339 125.628 65.8628 123.169 64.9756L112.101 60.9824C107.873 59.4572 103.199 59.7803 99.222 61.8725L75.3564 74.4263C74.0893 75.0928 72.7386 75.5863 71.3403 75.8934L66.3773 76.9835C62.9007 77.7471 59.7781 79.6482 57.5034 82.386L52.8795 87.9511C50.7882 90.4681 47.9755 92.2833 44.8205 93.152L33.7353 96.2043C32.2411 96.6157 30.8146 97.242 29.5006 98.0636L19.4324 104.358C18.2487 105.099 16.9732 105.681 15.6385 106.09Z" fill="#7492E7" fill-opacity="0.2" stroke="#AEB9F1" stroke-width="2" stroke-linejoin="round"/>
</svg>
