<svg width="313" height="26" viewBox="0 0 313 26" fill="none" xmlns="http://www.w3.org/2000/svg">
<rect width="37.7179" height="1" transform="translate(0.455513 0.835449)" fill="#D1D5DB"/>
<rect width="1" height="8" transform="translate(23.9555 1.83545)" fill="#D1D5DB"/>
<path d="M16.6215 17.7104C16.8051 17.8042 16.9711 17.9097 17.1196 18.0269C17.2719 18.144 17.4008 18.2808 17.5063 18.437C17.6118 18.5933 17.6918 18.771 17.7465 18.9702C17.8051 19.1694 17.8344 19.3999 17.8344 19.6616C17.8344 20.0288 17.7661 20.3569 17.6293 20.646C17.4965 20.9312 17.311 21.1733 17.0727 21.3726C16.8344 21.5679 16.5532 21.7183 16.229 21.8237C15.9086 21.9253 15.559 21.9761 15.1801 21.9761C14.8012 21.9761 14.4497 21.9253 14.1254 21.8237C13.8012 21.7183 13.52 21.5659 13.2817 21.3667C13.0473 21.1636 12.8618 20.9155 12.725 20.6226C12.5922 20.3296 12.5258 19.9956 12.5258 19.6206C12.5258 19.394 12.5571 19.1831 12.6196 18.9878C12.6821 18.7886 12.768 18.6069 12.8774 18.4429C12.9907 18.2788 13.1254 18.1304 13.2817 17.9976C13.4379 17.8647 13.6118 17.7476 13.8032 17.646C13.686 17.564 13.5766 17.4722 13.475 17.3706C13.3735 17.269 13.2836 17.1538 13.2055 17.0249C13.1313 16.8921 13.0727 16.7417 13.0297 16.5737C12.9868 16.4058 12.9653 16.2144 12.9653 15.9995C12.9653 15.6987 13.0258 15.4331 13.1469 15.2026C13.268 14.9722 13.4321 14.7788 13.6391 14.6226C13.8461 14.4624 14.0844 14.3413 14.354 14.2593C14.6235 14.1772 14.9086 14.1362 15.2094 14.1362C15.5141 14.1362 15.8032 14.1772 16.0766 14.2593C16.35 14.3413 16.5903 14.4624 16.7973 14.6226C17.0043 14.7788 17.1684 14.9741 17.2895 15.2085C17.4106 15.439 17.4711 15.7026 17.4711 15.9995C17.4711 16.3472 17.3969 16.6636 17.2485 16.9487C17.1 17.2339 16.8911 17.4878 16.6215 17.7104ZM15.2094 14.9624C15.0258 14.9624 14.854 14.9858 14.6938 15.0327C14.5336 15.0757 14.395 15.1421 14.2778 15.2319C14.1606 15.3179 14.0668 15.4272 13.9965 15.5601C13.9301 15.6929 13.8969 15.8472 13.8969 16.0229C13.8969 16.2886 13.9633 16.5015 14.0961 16.6616C14.229 16.8218 14.395 16.9507 14.5942 17.0483C14.7934 17.1421 15.0082 17.2163 15.2387 17.271C15.4731 17.3218 15.6918 17.3726 15.895 17.4233C16.0161 17.314 16.1176 17.2065 16.1997 17.1011C16.2817 16.9956 16.3481 16.8882 16.3989 16.7788C16.4497 16.6655 16.4848 16.5483 16.5043 16.4272C16.5278 16.3022 16.5395 16.1675 16.5395 16.0229C16.5395 15.8433 16.5024 15.687 16.4282 15.5542C16.3579 15.4214 16.2622 15.312 16.1411 15.2261C16.02 15.1362 15.8793 15.0698 15.7192 15.0269C15.559 14.9839 15.3891 14.9624 15.2094 14.9624ZM15.1801 21.1499C15.4379 21.1499 15.6704 21.1147 15.8774 21.0444C16.0844 20.9741 16.2582 20.8745 16.3989 20.7456C16.5434 20.6167 16.6528 20.4604 16.727 20.2769C16.8051 20.0933 16.8442 19.8882 16.8442 19.6616C16.8442 19.4624 16.809 19.2886 16.7387 19.1401C16.6723 18.9917 16.5805 18.8647 16.4633 18.7593C16.3461 18.6538 16.2094 18.5659 16.0532 18.4956C15.8969 18.4214 15.7329 18.3589 15.561 18.3081C15.3891 18.2534 15.2114 18.2065 15.0278 18.1675C14.8481 18.1284 14.6762 18.0894 14.5122 18.0503C14.184 18.2378 13.936 18.4604 13.768 18.7183C13.6 18.9761 13.5161 19.2769 13.5161 19.6206C13.5161 19.8589 13.5532 20.0737 13.6274 20.2651C13.7055 20.4526 13.8149 20.6128 13.9555 20.7456C14.1 20.8745 14.2758 20.9741 14.4829 21.0444C14.6899 21.1147 14.9223 21.1499 15.1801 21.1499ZM20.2602 16.6382C20.3696 16.6382 20.4711 16.6597 20.5649 16.7026C20.6625 16.7417 20.7465 16.7964 20.8168 16.8667C20.8872 16.937 20.9418 17.021 20.9809 17.1187C21.0239 17.2124 21.0454 17.314 21.0454 17.4233C21.0454 17.5288 21.0239 17.6304 20.9809 17.728C20.9418 17.8218 20.8872 17.9038 20.8168 17.9741C20.7465 18.0483 20.6625 18.1069 20.5649 18.1499C20.4711 18.189 20.3696 18.2085 20.2602 18.2085C20.1508 18.2085 20.0473 18.189 19.9497 18.1499C19.8559 18.1069 19.7739 18.0483 19.7036 17.9741C19.6332 17.9038 19.5766 17.8218 19.5336 17.728C19.4946 17.6304 19.475 17.5288 19.475 17.4233C19.475 17.314 19.4946 17.2124 19.5336 17.1187C19.5766 17.021 19.6332 16.937 19.7036 16.8667C19.7739 16.7964 19.8559 16.7417 19.9497 16.7026C20.0473 16.6597 20.1508 16.6382 20.2602 16.6382ZM20.2602 20.3823C20.3696 20.3823 20.4711 20.4038 20.5649 20.4468C20.6625 20.4858 20.7465 20.5405 20.8168 20.6108C20.8872 20.6812 20.9418 20.7651 20.9809 20.8628C21.0239 20.9565 21.0454 21.0581 21.0454 21.1675C21.0454 21.2729 21.0239 21.3745 20.9809 21.4722C20.9418 21.5659 20.8872 21.6479 20.8168 21.7183C20.7465 21.7925 20.6625 21.8491 20.5649 21.8882C20.4711 21.9312 20.3696 21.9526 20.2602 21.9526C20.1508 21.9526 20.0473 21.9312 19.9497 21.8882C19.8559 21.8491 19.7739 21.7925 19.7036 21.7183C19.6332 21.6479 19.5766 21.5659 19.5336 21.4722C19.4946 21.3745 19.475 21.2729 19.475 21.1675C19.475 21.0581 19.4946 20.9565 19.5336 20.8628C19.5766 20.7651 19.6332 20.6812 19.7036 20.6108C19.7739 20.5405 19.8559 20.4858 19.9497 20.4468C20.0473 20.4038 20.1508 20.3823 20.2602 20.3823ZM25.8793 15.5015C26.3247 15.5015 26.7387 15.5874 27.1215 15.7593C27.5043 15.9272 27.8344 16.1577 28.1118 16.4507C28.3891 16.7437 28.6059 17.0874 28.7622 17.4819C28.9223 17.8765 29.0024 18.2964 29.0024 18.7417C29.0024 19.1909 28.9223 19.6128 28.7622 20.0073C28.6059 20.4019 28.3891 20.7456 28.1118 21.0386C27.8344 21.3315 27.5043 21.564 27.1215 21.7358C26.7387 21.9038 26.3247 21.9878 25.8793 21.9878C25.4301 21.9878 25.0141 21.9038 24.6313 21.7358C24.2524 21.564 23.9223 21.3315 23.6411 21.0386C23.3637 20.7456 23.145 20.4019 22.9848 20.0073C22.8286 19.6128 22.7504 19.1909 22.7504 18.7417C22.7504 18.2964 22.8286 17.8765 22.9848 17.4819C23.145 17.0874 23.3637 16.7437 23.6411 16.4507C23.9223 16.1577 24.2524 15.9272 24.6313 15.7593C25.0141 15.5874 25.4301 15.5015 25.8793 15.5015ZM25.8793 16.4272C25.5747 16.4272 25.2934 16.4878 25.0356 16.6089C24.7778 16.7261 24.5551 16.8901 24.3676 17.1011C24.1801 17.3081 24.0336 17.5522 23.9282 17.8335C23.8227 18.1147 23.77 18.4175 23.77 18.7417C23.77 19.0659 23.8227 19.3706 23.9282 19.6558C24.0336 19.937 24.1801 20.1831 24.3676 20.394C24.5551 20.6011 24.7778 20.7651 25.0356 20.8862C25.2934 21.0034 25.5747 21.062 25.8793 21.062C26.184 21.062 26.4653 21.0034 26.7231 20.8862C26.9809 20.7651 27.2016 20.6011 27.3852 20.394C27.5727 20.1831 27.7192 19.937 27.8247 19.6558C27.9301 19.3706 27.9829 19.0659 27.9829 18.7417C27.9829 18.4175 27.9301 18.1147 27.8247 17.8335C27.7192 17.5522 27.5727 17.3081 27.3852 17.1011C27.2016 16.8901 26.9809 16.7261 26.7231 16.6089C26.4653 16.4878 26.184 16.4272 25.8793 16.4272ZM33.1918 15.5015C33.6372 15.5015 34.0512 15.5874 34.434 15.7593C34.8168 15.9272 35.1469 16.1577 35.4243 16.4507C35.7016 16.7437 35.9184 17.0874 36.0747 17.4819C36.2348 17.8765 36.3149 18.2964 36.3149 18.7417C36.3149 19.1909 36.2348 19.6128 36.0747 20.0073C35.9184 20.4019 35.7016 20.7456 35.4243 21.0386C35.1469 21.3315 34.8168 21.564 34.434 21.7358C34.0512 21.9038 33.6372 21.9878 33.1918 21.9878C32.7426 21.9878 32.3266 21.9038 31.9438 21.7358C31.5649 21.564 31.2348 21.3315 30.9536 21.0386C30.6762 20.7456 30.4575 20.4019 30.2973 20.0073C30.1411 19.6128 30.0629 19.1909 30.0629 18.7417C30.0629 18.2964 30.1411 17.8765 30.2973 17.4819C30.4575 17.0874 30.6762 16.7437 30.9536 16.4507C31.2348 16.1577 31.5649 15.9272 31.9438 15.7593C32.3266 15.5874 32.7426 15.5015 33.1918 15.5015ZM33.1918 16.4272C32.8872 16.4272 32.6059 16.4878 32.3481 16.6089C32.0903 16.7261 31.8676 16.8901 31.6801 17.1011C31.4926 17.3081 31.3461 17.5522 31.2407 17.8335C31.1352 18.1147 31.0825 18.4175 31.0825 18.7417C31.0825 19.0659 31.1352 19.3706 31.2407 19.6558C31.3461 19.937 31.4926 20.1831 31.6801 20.394C31.8676 20.6011 32.0903 20.7651 32.3481 20.8862C32.6059 21.0034 32.8872 21.062 33.1918 21.062C33.4965 21.062 33.7778 21.0034 34.0356 20.8862C34.2934 20.7651 34.5141 20.6011 34.6977 20.394C34.8852 20.1831 35.0317 19.937 35.1372 19.6558C35.2426 19.3706 35.2954 19.0659 35.2954 18.7417C35.2954 18.4175 35.2426 18.1147 35.1372 17.8335C35.0317 17.5522 34.8852 17.3081 34.6977 17.1011C34.5141 16.8901 34.2934 16.7261 34.0356 16.6089C33.7778 16.4878 33.4965 16.4272 33.1918 16.4272Z" fill="#5F6B7A"/>
<rect width="37.7179" height="1" transform="translate(38.1734 0.835449)" fill="#D1D5DB"/>
<rect width="1" height="8" transform="translate(61.6734 1.83545)" fill="#D1D5DB"/>
<path d="M47.5425 16.4272L49.6402 15.4897L50.1499 15.7476V21.8354H49.1304V16.7144L47.8999 17.2358L47.5425 16.4272ZM55.1246 15.5015C55.5699 15.5015 55.9839 15.5874 56.3667 15.7593C56.7496 15.9272 57.0796 16.1577 57.357 16.4507C57.6343 16.7437 57.8511 17.0874 58.0074 17.4819C58.1675 17.8765 58.2476 18.2964 58.2476 18.7417C58.2476 19.1909 58.1675 19.6128 58.0074 20.0073C57.8511 20.4019 57.6343 20.7456 57.357 21.0386C57.0796 21.3315 56.7496 21.564 56.3667 21.7358C55.9839 21.9038 55.5699 21.9878 55.1246 21.9878C54.6753 21.9878 54.2593 21.9038 53.8765 21.7358C53.4976 21.564 53.1675 21.3315 52.8863 21.0386C52.6089 20.7456 52.3902 20.4019 52.23 20.0073C52.0738 19.6128 51.9957 19.1909 51.9957 18.7417C51.9957 18.2964 52.0738 17.8765 52.23 17.4819C52.3902 17.0874 52.6089 16.7437 52.8863 16.4507C53.1675 16.1577 53.4976 15.9272 53.8765 15.7593C54.2593 15.5874 54.6753 15.5015 55.1246 15.5015ZM55.1246 16.4272C54.8199 16.4272 54.5386 16.4878 54.2808 16.6089C54.023 16.7261 53.8003 16.8901 53.6128 17.1011C53.4253 17.3081 53.2789 17.5522 53.1734 17.8335C53.0679 18.1147 53.0152 18.4175 53.0152 18.7417C53.0152 19.0659 53.0679 19.3706 53.1734 19.6558C53.2789 19.937 53.4253 20.1831 53.6128 20.394C53.8003 20.6011 54.023 20.7651 54.2808 20.8862C54.5386 21.0034 54.8199 21.062 55.1246 21.062C55.4292 21.062 55.7105 21.0034 55.9683 20.8862C56.2261 20.7651 56.4468 20.6011 56.6304 20.394C56.8179 20.1831 56.9644 19.937 57.0699 19.6558C57.1753 19.3706 57.2281 19.0659 57.2281 18.7417C57.2281 18.4175 57.1753 18.1147 57.0699 17.8335C56.9644 17.5522 56.8179 17.3081 56.6304 17.1011C56.4468 16.8901 56.2261 16.7261 55.9683 16.6089C55.7105 16.4878 55.4292 16.4272 55.1246 16.4272ZM60.7437 16.6382C60.8531 16.6382 60.9546 16.6597 61.0484 16.7026C61.146 16.7417 61.23 16.7964 61.3003 16.8667C61.3707 16.937 61.4253 17.021 61.4644 17.1187C61.5074 17.2124 61.5289 17.314 61.5289 17.4233C61.5289 17.5288 61.5074 17.6304 61.4644 17.728C61.4253 17.8218 61.3707 17.9038 61.3003 17.9741C61.23 18.0483 61.146 18.1069 61.0484 18.1499C60.9546 18.189 60.8531 18.2085 60.7437 18.2085C60.6343 18.2085 60.5308 18.189 60.4332 18.1499C60.3394 18.1069 60.2574 18.0483 60.1871 17.9741C60.1167 17.9038 60.0601 17.8218 60.0171 17.728C59.9781 17.6304 59.9585 17.5288 59.9585 17.4233C59.9585 17.314 59.9781 17.2124 60.0171 17.1187C60.0601 17.021 60.1167 16.937 60.1871 16.8667C60.2574 16.7964 60.3394 16.7417 60.4332 16.7026C60.5308 16.6597 60.6343 16.6382 60.7437 16.6382ZM60.7437 20.3823C60.8531 20.3823 60.9546 20.4038 61.0484 20.4468C61.146 20.4858 61.23 20.5405 61.3003 20.6108C61.3707 20.6812 61.4253 20.7651 61.4644 20.8628C61.5074 20.9565 61.5289 21.0581 61.5289 21.1675C61.5289 21.2729 61.5074 21.3745 61.4644 21.4722C61.4253 21.5659 61.3707 21.6479 61.3003 21.7183C61.23 21.7925 61.146 21.8491 61.0484 21.8882C60.9546 21.9312 60.8531 21.9526 60.7437 21.9526C60.6343 21.9526 60.5308 21.9312 60.4332 21.8882C60.3394 21.8491 60.2574 21.7925 60.1871 21.7183C60.1167 21.6479 60.0601 21.5659 60.0171 21.4722C59.9781 21.3745 59.9585 21.2729 59.9585 21.1675C59.9585 21.0581 59.9781 20.9565 60.0171 20.8628C60.0601 20.7651 60.1167 20.6812 60.1871 20.6108C60.2574 20.5405 60.3394 20.4858 60.4332 20.4468C60.5308 20.4038 60.6343 20.3823 60.7437 20.3823ZM66.3628 15.5015C66.8082 15.5015 67.2222 15.5874 67.605 15.7593C67.9878 15.9272 68.3179 16.1577 68.5953 16.4507C68.8726 16.7437 69.0894 17.0874 69.2457 17.4819C69.4058 17.8765 69.4859 18.2964 69.4859 18.7417C69.4859 19.1909 69.4058 19.6128 69.2457 20.0073C69.0894 20.4019 68.8726 20.7456 68.5953 21.0386C68.3179 21.3315 67.9878 21.564 67.605 21.7358C67.2222 21.9038 66.8082 21.9878 66.3628 21.9878C65.9136 21.9878 65.4976 21.9038 65.1148 21.7358C64.7359 21.564 64.4058 21.3315 64.1246 21.0386C63.8472 20.7456 63.6285 20.4019 63.4683 20.0073C63.3121 19.6128 63.2339 19.1909 63.2339 18.7417C63.2339 18.2964 63.3121 17.8765 63.4683 17.4819C63.6285 17.0874 63.8472 16.7437 64.1246 16.4507C64.4058 16.1577 64.7359 15.9272 65.1148 15.7593C65.4976 15.5874 65.9136 15.5015 66.3628 15.5015ZM66.3628 16.4272C66.0582 16.4272 65.7769 16.4878 65.5191 16.6089C65.2613 16.7261 65.0386 16.8901 64.8511 17.1011C64.6636 17.3081 64.5171 17.5522 64.4117 17.8335C64.3062 18.1147 64.2535 18.4175 64.2535 18.7417C64.2535 19.0659 64.3062 19.3706 64.4117 19.6558C64.5171 19.937 64.6636 20.1831 64.8511 20.394C65.0386 20.6011 65.2613 20.7651 65.5191 20.8862C65.7769 21.0034 66.0582 21.062 66.3628 21.062C66.6675 21.062 66.9488 21.0034 67.2066 20.8862C67.4644 20.7651 67.6851 20.6011 67.8687 20.394C68.0562 20.1831 68.2027 19.937 68.3082 19.6558C68.4136 19.3706 68.4664 19.0659 68.4664 18.7417C68.4664 18.4175 68.4136 18.1147 68.3082 17.8335C68.2027 17.5522 68.0562 17.3081 67.8687 17.1011C67.6851 16.8901 67.4644 16.7261 67.2066 16.6089C66.9488 16.4878 66.6675 16.4272 66.3628 16.4272ZM73.6753 15.5015C74.1207 15.5015 74.5347 15.5874 74.9175 15.7593C75.3003 15.9272 75.6304 16.1577 75.9078 16.4507C76.1851 16.7437 76.4019 17.0874 76.5582 17.4819C76.7183 17.8765 76.7984 18.2964 76.7984 18.7417C76.7984 19.1909 76.7183 19.6128 76.5582 20.0073C76.4019 20.4019 76.1851 20.7456 75.9078 21.0386C75.6304 21.3315 75.3003 21.564 74.9175 21.7358C74.5347 21.9038 74.1207 21.9878 73.6753 21.9878C73.2261 21.9878 72.8101 21.9038 72.4273 21.7358C72.0484 21.564 71.7183 21.3315 71.4371 21.0386C71.1597 20.7456 70.941 20.4019 70.7808 20.0073C70.6246 19.6128 70.5464 19.1909 70.5464 18.7417C70.5464 18.2964 70.6246 17.8765 70.7808 17.4819C70.941 17.0874 71.1597 16.7437 71.4371 16.4507C71.7183 16.1577 72.0484 15.9272 72.4273 15.7593C72.8101 15.5874 73.2261 15.5015 73.6753 15.5015ZM73.6753 16.4272C73.3707 16.4272 73.0894 16.4878 72.8316 16.6089C72.5738 16.7261 72.3511 16.8901 72.1636 17.1011C71.9761 17.3081 71.8296 17.5522 71.7242 17.8335C71.6187 18.1147 71.566 18.4175 71.566 18.7417C71.566 19.0659 71.6187 19.3706 71.7242 19.6558C71.8296 19.937 71.9761 20.1831 72.1636 20.394C72.3511 20.6011 72.5738 20.7651 72.8316 20.8862C73.0894 21.0034 73.3707 21.062 73.6753 21.062C73.98 21.062 74.2613 21.0034 74.5191 20.8862C74.7769 20.7651 74.9976 20.6011 75.1812 20.394C75.3687 20.1831 75.5152 19.937 75.6207 19.6558C75.7261 19.3706 75.7789 19.0659 75.7789 18.7417C75.7789 18.4175 75.7261 18.1147 75.6207 17.8335C75.5152 17.5522 75.3687 17.3081 75.1812 17.1011C74.9976 16.8901 74.7769 16.7261 74.5191 16.6089C74.2613 16.4878 73.98 16.4272 73.6753 16.4272Z" fill="#5F6B7A"/>
<rect width="37.7179" height="1" transform="translate(75.8913 0.835449)" fill="#D1D5DB"/>
<rect width="1" height="8" transform="translate(99.3913 1.83545)" fill="#D1D5DB"/>
<path d="M86.1217 16.4272L88.2194 15.4897L88.7291 15.7476V21.8354H87.7096V16.7144L86.4791 17.2358L86.1217 16.4272ZM90.8034 16.0288C91.5104 15.6694 92.237 15.4897 92.9831 15.4897C93.2721 15.4897 93.5358 15.5229 93.7741 15.5894C94.0163 15.6519 94.2331 15.7515 94.4245 15.8882C94.6198 16.0249 94.7721 16.2104 94.8815 16.4448C94.9909 16.6753 95.0456 16.9448 95.0456 17.2534C95.0456 17.5073 95.0163 17.73 94.9577 17.9214C94.8483 18.2651 94.6061 18.5522 94.2311 18.7827C94.0436 18.8999 93.6354 19.0952 93.0065 19.3687C92.9987 19.3726 92.9889 19.3784 92.9772 19.3862C92.9655 19.3901 92.9557 19.394 92.9479 19.3979C92.9401 19.3979 92.9303 19.4019 92.9186 19.4097C92.692 19.5073 92.5456 19.5718 92.4791 19.603C92.4166 19.6343 92.3131 19.6987 92.1686 19.7964C92.028 19.894 91.9362 19.9858 91.8932 20.0718C91.8541 20.1577 91.8112 20.2769 91.7643 20.4292C91.7213 20.5815 91.6999 20.7573 91.6999 20.9565H94.9284V21.8354H90.692V21.0151C90.692 20.7183 90.7272 20.4526 90.7975 20.2183C90.8678 19.98 90.9577 19.7788 91.067 19.6147C91.1764 19.4507 91.3288 19.2983 91.5241 19.1577C91.7233 19.0132 91.9186 18.894 92.11 18.8003C92.3053 18.7026 92.5495 18.5952 92.8424 18.478C93.0651 18.3882 93.2331 18.3159 93.3463 18.2612C93.4596 18.2065 93.5768 18.1343 93.6979 18.0444C93.819 17.9507 93.903 17.8433 93.9499 17.7222C94.0006 17.6011 94.026 17.4565 94.026 17.2886C94.026 16.9565 93.9225 16.7144 93.7155 16.562C93.5084 16.4097 93.2311 16.3335 92.8834 16.3335C92.3249 16.3335 91.737 16.4839 91.1198 16.7847L90.8034 16.0288ZM97.6002 16.6382C97.7096 16.6382 97.8112 16.6597 97.9049 16.7026C98.0026 16.7417 98.0866 16.7964 98.1569 16.8667C98.2272 16.937 98.2819 17.021 98.3209 17.1187C98.3639 17.2124 98.3854 17.314 98.3854 17.4233C98.3854 17.5288 98.3639 17.6304 98.3209 17.728C98.2819 17.8218 98.2272 17.9038 98.1569 17.9741C98.0866 18.0483 98.0026 18.1069 97.9049 18.1499C97.8112 18.189 97.7096 18.2085 97.6002 18.2085C97.4909 18.2085 97.3874 18.189 97.2897 18.1499C97.1959 18.1069 97.1139 18.0483 97.0436 17.9741C96.9733 17.9038 96.9166 17.8218 96.8737 17.728C96.8346 17.6304 96.8151 17.5288 96.8151 17.4233C96.8151 17.314 96.8346 17.2124 96.8737 17.1187C96.9166 17.021 96.9733 16.937 97.0436 16.8667C97.1139 16.7964 97.1959 16.7417 97.2897 16.7026C97.3874 16.6597 97.4909 16.6382 97.6002 16.6382ZM97.6002 20.3823C97.7096 20.3823 97.8112 20.4038 97.9049 20.4468C98.0026 20.4858 98.0866 20.5405 98.1569 20.6108C98.2272 20.6812 98.2819 20.7651 98.3209 20.8628C98.3639 20.9565 98.3854 21.0581 98.3854 21.1675C98.3854 21.2729 98.3639 21.3745 98.3209 21.4722C98.2819 21.5659 98.2272 21.6479 98.1569 21.7183C98.0866 21.7925 98.0026 21.8491 97.9049 21.8882C97.8112 21.9312 97.7096 21.9526 97.6002 21.9526C97.4909 21.9526 97.3874 21.9312 97.2897 21.8882C97.1959 21.8491 97.1139 21.7925 97.0436 21.7183C96.9733 21.6479 96.9166 21.5659 96.8737 21.4722C96.8346 21.3745 96.8151 21.2729 96.8151 21.1675C96.8151 21.0581 96.8346 20.9565 96.8737 20.8628C96.9166 20.7651 96.9733 20.6812 97.0436 20.6108C97.1139 20.5405 97.1959 20.4858 97.2897 20.4468C97.3874 20.4038 97.4909 20.3823 97.6002 20.3823ZM103.219 15.5015C103.665 15.5015 104.079 15.5874 104.462 15.7593C104.844 15.9272 105.174 16.1577 105.452 16.4507C105.729 16.7437 105.946 17.0874 106.102 17.4819C106.262 17.8765 106.342 18.2964 106.342 18.7417C106.342 19.1909 106.262 19.6128 106.102 20.0073C105.946 20.4019 105.729 20.7456 105.452 21.0386C105.174 21.3315 104.844 21.564 104.462 21.7358C104.079 21.9038 103.665 21.9878 103.219 21.9878C102.77 21.9878 102.354 21.9038 101.971 21.7358C101.592 21.564 101.262 21.3315 100.981 21.0386C100.704 20.7456 100.485 20.4019 100.325 20.0073C100.169 19.6128 100.09 19.1909 100.09 18.7417C100.09 18.2964 100.169 17.8765 100.325 17.4819C100.485 17.0874 100.704 16.7437 100.981 16.4507C101.262 16.1577 101.592 15.9272 101.971 15.7593C102.354 15.5874 102.77 15.5015 103.219 15.5015ZM103.219 16.4272C102.915 16.4272 102.633 16.4878 102.376 16.6089C102.118 16.7261 101.895 16.8901 101.708 17.1011C101.52 17.3081 101.374 17.5522 101.268 17.8335C101.163 18.1147 101.11 18.4175 101.11 18.7417C101.11 19.0659 101.163 19.3706 101.268 19.6558C101.374 19.937 101.52 20.1831 101.708 20.394C101.895 20.6011 102.118 20.7651 102.376 20.8862C102.633 21.0034 102.915 21.062 103.219 21.062C103.524 21.062 103.805 21.0034 104.063 20.8862C104.321 20.7651 104.542 20.6011 104.725 20.394C104.913 20.1831 105.059 19.937 105.165 19.6558C105.27 19.3706 105.323 19.0659 105.323 18.7417C105.323 18.4175 105.27 18.1147 105.165 17.8335C105.059 17.5522 104.913 17.3081 104.725 17.1011C104.542 16.8901 104.321 16.7261 104.063 16.6089C103.805 16.4878 103.524 16.4272 103.219 16.4272ZM110.532 15.5015C110.977 15.5015 111.391 15.5874 111.774 15.7593C112.157 15.9272 112.487 16.1577 112.764 16.4507C113.042 16.7437 113.258 17.0874 113.415 17.4819C113.575 17.8765 113.655 18.2964 113.655 18.7417C113.655 19.1909 113.575 19.6128 113.415 20.0073C113.258 20.4019 113.042 20.7456 112.764 21.0386C112.487 21.3315 112.157 21.564 111.774 21.7358C111.391 21.9038 110.977 21.9878 110.532 21.9878C110.083 21.9878 109.667 21.9038 109.284 21.7358C108.905 21.564 108.575 21.3315 108.294 21.0386C108.016 20.7456 107.798 20.4019 107.637 20.0073C107.481 19.6128 107.403 19.1909 107.403 18.7417C107.403 18.2964 107.481 17.8765 107.637 17.4819C107.798 17.0874 108.016 16.7437 108.294 16.4507C108.575 16.1577 108.905 15.9272 109.284 15.7593C109.667 15.5874 110.083 15.5015 110.532 15.5015ZM110.532 16.4272C110.227 16.4272 109.946 16.4878 109.688 16.6089C109.43 16.7261 109.208 16.8901 109.02 17.1011C108.833 17.3081 108.686 17.5522 108.581 17.8335C108.475 18.1147 108.423 18.4175 108.423 18.7417C108.423 19.0659 108.475 19.3706 108.581 19.6558C108.686 19.937 108.833 20.1831 109.02 20.394C109.208 20.6011 109.43 20.7651 109.688 20.8862C109.946 21.0034 110.227 21.062 110.532 21.062C110.837 21.062 111.118 21.0034 111.376 20.8862C111.633 20.7651 111.854 20.6011 112.038 20.394C112.225 20.1831 112.372 19.937 112.477 19.6558C112.583 19.3706 112.635 19.0659 112.635 18.7417C112.635 18.4175 112.583 18.1147 112.477 17.8335C112.372 17.5522 112.225 17.3081 112.038 17.1011C111.854 16.8901 111.633 16.7261 111.376 16.6089C111.118 16.4878 110.837 16.4272 110.532 16.4272Z" fill="#5F6B7A"/>
<rect width="37.7179" height="1" transform="translate(113.609 0.835449)" fill="#D1D5DB"/>
<rect width="1" height="8" transform="translate(137.109 1.83545)" fill="#D1D5DB"/>
<path d="M123.324 16.4272L125.422 15.4897L125.931 15.7476V21.8354H124.912V16.7144L123.681 17.2358L123.324 16.4272ZM130.267 15.4897L131.234 15.7007C131.176 16.228 130.994 16.7964 130.689 17.4058L128.908 20.9565H131.369V19.3394H132.353V20.9565H133.455V21.8354H132.353V23.4409H131.369V21.8354H127.894L127.66 21.1089L129.582 17.312C129.801 16.8784 129.951 16.5601 130.033 16.3569C130.115 16.1499 130.193 15.8608 130.267 15.4897ZM135.834 16.6382C135.943 16.6382 136.045 16.6597 136.138 16.7026C136.236 16.7417 136.32 16.7964 136.39 16.8667C136.461 16.937 136.515 17.021 136.554 17.1187C136.597 17.2124 136.619 17.314 136.619 17.4233C136.619 17.5288 136.597 17.6304 136.554 17.728C136.515 17.8218 136.461 17.9038 136.39 17.9741C136.32 18.0483 136.236 18.1069 136.138 18.1499C136.045 18.189 135.943 18.2085 135.834 18.2085C135.724 18.2085 135.621 18.189 135.523 18.1499C135.429 18.1069 135.347 18.0483 135.277 17.9741C135.207 17.9038 135.15 17.8218 135.107 17.728C135.068 17.6304 135.049 17.5288 135.049 17.4233C135.049 17.314 135.068 17.2124 135.107 17.1187C135.15 17.021 135.207 16.937 135.277 16.8667C135.347 16.7964 135.429 16.7417 135.523 16.7026C135.621 16.6597 135.724 16.6382 135.834 16.6382ZM135.834 20.3823C135.943 20.3823 136.045 20.4038 136.138 20.4468C136.236 20.4858 136.32 20.5405 136.39 20.6108C136.461 20.6812 136.515 20.7651 136.554 20.8628C136.597 20.9565 136.619 21.0581 136.619 21.1675C136.619 21.2729 136.597 21.3745 136.554 21.4722C136.515 21.5659 136.461 21.6479 136.39 21.7183C136.32 21.7925 136.236 21.8491 136.138 21.8882C136.045 21.9312 135.943 21.9526 135.834 21.9526C135.724 21.9526 135.621 21.9312 135.523 21.8882C135.429 21.8491 135.347 21.7925 135.277 21.7183C135.207 21.6479 135.15 21.5659 135.107 21.4722C135.068 21.3745 135.049 21.2729 135.049 21.1675C135.049 21.0581 135.068 20.9565 135.107 20.8628C135.15 20.7651 135.207 20.6812 135.277 20.6108C135.347 20.5405 135.429 20.4858 135.523 20.4468C135.621 20.4038 135.724 20.3823 135.834 20.3823ZM141.453 15.5015C141.898 15.5015 142.312 15.5874 142.695 15.7593C143.078 15.9272 143.408 16.1577 143.685 16.4507C143.963 16.7437 144.179 17.0874 144.336 17.4819C144.496 17.8765 144.576 18.2964 144.576 18.7417C144.576 19.1909 144.496 19.6128 144.336 20.0073C144.179 20.4019 143.963 20.7456 143.685 21.0386C143.408 21.3315 143.078 21.564 142.695 21.7358C142.312 21.9038 141.898 21.9878 141.453 21.9878C141.004 21.9878 140.588 21.9038 140.205 21.7358C139.826 21.564 139.496 21.3315 139.215 21.0386C138.937 20.7456 138.719 20.4019 138.558 20.0073C138.402 19.6128 138.324 19.1909 138.324 18.7417C138.324 18.2964 138.402 17.8765 138.558 17.4819C138.719 17.0874 138.937 16.7437 139.215 16.4507C139.496 16.1577 139.826 15.9272 140.205 15.7593C140.588 15.5874 141.004 15.5015 141.453 15.5015ZM141.453 16.4272C141.148 16.4272 140.867 16.4878 140.609 16.6089C140.351 16.7261 140.129 16.8901 139.941 17.1011C139.754 17.3081 139.607 17.5522 139.502 17.8335C139.396 18.1147 139.344 18.4175 139.344 18.7417C139.344 19.0659 139.396 19.3706 139.502 19.6558C139.607 19.937 139.754 20.1831 139.941 20.394C140.129 20.6011 140.351 20.7651 140.609 20.8862C140.867 21.0034 141.148 21.062 141.453 21.062C141.758 21.062 142.039 21.0034 142.297 20.8862C142.554 20.7651 142.775 20.6011 142.959 20.394C143.146 20.1831 143.293 19.937 143.398 19.6558C143.504 19.3706 143.556 19.0659 143.556 18.7417C143.556 18.4175 143.504 18.1147 143.398 17.8335C143.293 17.5522 143.146 17.3081 142.959 17.1011C142.775 16.8901 142.554 16.7261 142.297 16.6089C142.039 16.4878 141.758 16.4272 141.453 16.4272ZM148.765 15.5015C149.211 15.5015 149.625 15.5874 150.008 15.7593C150.39 15.9272 150.72 16.1577 150.998 16.4507C151.275 16.7437 151.492 17.0874 151.648 17.4819C151.808 17.8765 151.888 18.2964 151.888 18.7417C151.888 19.1909 151.808 19.6128 151.648 20.0073C151.492 20.4019 151.275 20.7456 150.998 21.0386C150.72 21.3315 150.39 21.564 150.008 21.7358C149.625 21.9038 149.211 21.9878 148.765 21.9878C148.316 21.9878 147.9 21.9038 147.517 21.7358C147.138 21.564 146.808 21.3315 146.527 21.0386C146.25 20.7456 146.031 20.4019 145.871 20.0073C145.715 19.6128 145.636 19.1909 145.636 18.7417C145.636 18.2964 145.715 17.8765 145.871 17.4819C146.031 17.0874 146.25 16.7437 146.527 16.4507C146.808 16.1577 147.138 15.9272 147.517 15.7593C147.9 15.5874 148.316 15.5015 148.765 15.5015ZM148.765 16.4272C148.461 16.4272 148.179 16.4878 147.922 16.6089C147.664 16.7261 147.441 16.8901 147.254 17.1011C147.066 17.3081 146.92 17.5522 146.814 17.8335C146.709 18.1147 146.656 18.4175 146.656 18.7417C146.656 19.0659 146.709 19.3706 146.814 19.6558C146.92 19.937 147.066 20.1831 147.254 20.394C147.441 20.6011 147.664 20.7651 147.922 20.8862C148.179 21.0034 148.461 21.062 148.765 21.062C149.07 21.062 149.351 21.0034 149.609 20.8862C149.867 20.7651 150.088 20.6011 150.271 20.394C150.459 20.1831 150.605 19.937 150.711 19.6558C150.816 19.3706 150.869 19.0659 150.869 18.7417C150.869 18.4175 150.816 18.1147 150.711 17.8335C150.605 17.5522 150.459 17.3081 150.271 17.1011C150.088 16.8901 149.867 16.7261 149.609 16.6089C149.351 16.4878 149.07 16.4272 148.765 16.4272Z" fill="#5F6B7A"/>
<rect width="37.7179" height="1" transform="translate(151.327 0.835449)" fill="#D1D5DB"/>
<rect width="1" height="8" transform="translate(174.827 1.83545)" fill="#D1D5DB"/>
<path d="M161.229 16.4272L163.327 15.4897L163.837 15.7476V21.8354H162.817V16.7144L161.587 17.2358L161.229 16.4272ZM170.264 14.0776V14.8745C169.292 14.8315 168.532 15.0073 167.985 15.4019C167.438 15.7964 167.087 16.4312 166.931 17.3062C167.181 17.1382 167.462 17.0054 167.774 16.9077C168.091 16.8062 168.386 16.7554 168.659 16.7554C169.354 16.7554 169.905 16.9683 170.311 17.394C170.718 17.8511 170.921 18.4819 170.921 19.2866C170.921 19.6382 170.868 19.9722 170.763 20.2886C170.661 20.6011 170.509 20.8862 170.306 21.144C170.102 21.3979 169.831 21.6011 169.491 21.7534C169.151 21.9019 168.764 21.9761 168.331 21.9761C167.729 21.9761 167.227 21.8433 166.825 21.5776C166.427 21.312 166.139 20.9487 165.964 20.4878C165.792 20.0229 165.714 19.4683 165.729 18.8237C165.753 17.9526 165.888 17.1597 166.134 16.4448C166.294 15.9878 166.514 15.5952 166.796 15.2671C167.077 14.939 167.401 14.687 167.768 14.5112C168.139 14.3354 168.53 14.2124 168.94 14.1421C169.35 14.0718 169.792 14.0503 170.264 14.0776ZM166.819 18.2788C166.772 18.5093 166.749 18.7671 166.749 19.0522C166.749 19.3491 166.776 19.6187 166.831 19.8608C166.886 20.103 166.972 20.3218 167.089 20.5171C167.21 20.7124 167.374 20.8647 167.581 20.9741C167.792 21.0796 168.042 21.1323 168.331 21.1323C168.835 21.1323 169.222 20.9683 169.491 20.6401C169.764 20.312 169.901 19.8687 169.901 19.3101C169.901 18.7007 169.766 18.2573 169.497 17.98C169.247 17.7261 168.899 17.5991 168.454 17.5991C168.2 17.5991 167.925 17.6636 167.628 17.7925C167.335 17.9175 167.065 18.0796 166.819 18.2788ZM173.364 16.6382C173.473 16.6382 173.575 16.6597 173.669 16.7026C173.766 16.7417 173.85 16.7964 173.921 16.8667C173.991 16.937 174.046 17.021 174.085 17.1187C174.128 17.2124 174.149 17.314 174.149 17.4233C174.149 17.5288 174.128 17.6304 174.085 17.728C174.046 17.8218 173.991 17.9038 173.921 17.9741C173.85 18.0483 173.766 18.1069 173.669 18.1499C173.575 18.189 173.473 18.2085 173.364 18.2085C173.255 18.2085 173.151 18.189 173.054 18.1499C172.96 18.1069 172.878 18.0483 172.807 17.9741C172.737 17.9038 172.681 17.8218 172.638 17.728C172.598 17.6304 172.579 17.5288 172.579 17.4233C172.579 17.314 172.598 17.2124 172.638 17.1187C172.681 17.021 172.737 16.937 172.807 16.8667C172.878 16.7964 172.96 16.7417 173.054 16.7026C173.151 16.6597 173.255 16.6382 173.364 16.6382ZM173.364 20.3823C173.473 20.3823 173.575 20.4038 173.669 20.4468C173.766 20.4858 173.85 20.5405 173.921 20.6108C173.991 20.6812 174.046 20.7651 174.085 20.8628C174.128 20.9565 174.149 21.0581 174.149 21.1675C174.149 21.2729 174.128 21.3745 174.085 21.4722C174.046 21.5659 173.991 21.6479 173.921 21.7183C173.85 21.7925 173.766 21.8491 173.669 21.8882C173.575 21.9312 173.473 21.9526 173.364 21.9526C173.255 21.9526 173.151 21.9312 173.054 21.8882C172.96 21.8491 172.878 21.7925 172.807 21.7183C172.737 21.6479 172.681 21.5659 172.638 21.4722C172.598 21.3745 172.579 21.2729 172.579 21.1675C172.579 21.0581 172.598 20.9565 172.638 20.8628C172.681 20.7651 172.737 20.6812 172.807 20.6108C172.878 20.5405 172.96 20.4858 173.054 20.4468C173.151 20.4038 173.255 20.3823 173.364 20.3823ZM178.983 15.5015C179.429 15.5015 179.843 15.5874 180.225 15.7593C180.608 15.9272 180.938 16.1577 181.216 16.4507C181.493 16.7437 181.71 17.0874 181.866 17.4819C182.026 17.8765 182.106 18.2964 182.106 18.7417C182.106 19.1909 182.026 19.6128 181.866 20.0073C181.71 20.4019 181.493 20.7456 181.216 21.0386C180.938 21.3315 180.608 21.564 180.225 21.7358C179.843 21.9038 179.429 21.9878 178.983 21.9878C178.534 21.9878 178.118 21.9038 177.735 21.7358C177.356 21.564 177.026 21.3315 176.745 21.0386C176.468 20.7456 176.249 20.4019 176.089 20.0073C175.932 19.6128 175.854 19.1909 175.854 18.7417C175.854 18.2964 175.932 17.8765 176.089 17.4819C176.249 17.0874 176.468 16.7437 176.745 16.4507C177.026 16.1577 177.356 15.9272 177.735 15.7593C178.118 15.5874 178.534 15.5015 178.983 15.5015ZM178.983 16.4272C178.679 16.4272 178.397 16.4878 178.139 16.6089C177.882 16.7261 177.659 16.8901 177.472 17.1011C177.284 17.3081 177.138 17.5522 177.032 17.8335C176.927 18.1147 176.874 18.4175 176.874 18.7417C176.874 19.0659 176.927 19.3706 177.032 19.6558C177.138 19.937 177.284 20.1831 177.472 20.394C177.659 20.6011 177.882 20.7651 178.139 20.8862C178.397 21.0034 178.679 21.062 178.983 21.062C179.288 21.062 179.569 21.0034 179.827 20.8862C180.085 20.7651 180.306 20.6011 180.489 20.394C180.677 20.1831 180.823 19.937 180.929 19.6558C181.034 19.3706 181.087 19.0659 181.087 18.7417C181.087 18.4175 181.034 18.1147 180.929 17.8335C180.823 17.5522 180.677 17.3081 180.489 17.1011C180.306 16.8901 180.085 16.7261 179.827 16.6089C179.569 16.4878 179.288 16.4272 178.983 16.4272ZM186.296 15.5015C186.741 15.5015 187.155 15.5874 187.538 15.7593C187.921 15.9272 188.251 16.1577 188.528 16.4507C188.806 16.7437 189.022 17.0874 189.179 17.4819C189.339 17.8765 189.419 18.2964 189.419 18.7417C189.419 19.1909 189.339 19.6128 189.179 20.0073C189.022 20.4019 188.806 20.7456 188.528 21.0386C188.251 21.3315 187.921 21.564 187.538 21.7358C187.155 21.9038 186.741 21.9878 186.296 21.9878C185.847 21.9878 185.431 21.9038 185.048 21.7358C184.669 21.564 184.339 21.3315 184.057 21.0386C183.78 20.7456 183.561 20.4019 183.401 20.0073C183.245 19.6128 183.167 19.1909 183.167 18.7417C183.167 18.2964 183.245 17.8765 183.401 17.4819C183.561 17.0874 183.78 16.7437 184.057 16.4507C184.339 16.1577 184.669 15.9272 185.048 15.7593C185.431 15.5874 185.847 15.5015 186.296 15.5015ZM186.296 16.4272C185.991 16.4272 185.71 16.4878 185.452 16.6089C185.194 16.7261 184.972 16.8901 184.784 17.1011C184.597 17.3081 184.45 17.5522 184.345 17.8335C184.239 18.1147 184.186 18.4175 184.186 18.7417C184.186 19.0659 184.239 19.3706 184.345 19.6558C184.45 19.937 184.597 20.1831 184.784 20.394C184.972 20.6011 185.194 20.7651 185.452 20.8862C185.71 21.0034 185.991 21.062 186.296 21.062C186.6 21.062 186.882 21.0034 187.139 20.8862C187.397 20.7651 187.618 20.6011 187.802 20.394C187.989 20.1831 188.136 19.937 188.241 19.6558C188.347 19.3706 188.399 19.0659 188.399 18.7417C188.399 18.4175 188.347 18.1147 188.241 17.8335C188.136 17.5522 187.989 17.3081 187.802 17.1011C187.618 16.8901 187.397 16.7261 187.139 16.6089C186.882 16.4878 186.6 16.4272 186.296 16.4272Z" fill="#5F6B7A"/>
<rect width="37.7179" height="1" transform="translate(189.045 0.835449)" fill="#D1D5DB"/>
<rect width="1" height="8" transform="translate(212.545 1.83545)" fill="#D1D5DB"/>
<path d="M198.953 16.4272L201.051 15.4897L201.56 15.7476V21.8354H200.541V16.7144L199.31 17.2358L198.953 16.4272ZM207.437 17.7104C207.621 17.8042 207.787 17.9097 207.935 18.0269C208.088 18.144 208.217 18.2808 208.322 18.437C208.428 18.5933 208.508 18.771 208.562 18.9702C208.621 19.1694 208.65 19.3999 208.65 19.6616C208.65 20.0288 208.582 20.3569 208.445 20.646C208.312 20.9312 208.127 21.1733 207.889 21.3726C207.65 21.5679 207.369 21.7183 207.045 21.8237C206.725 21.9253 206.375 21.9761 205.996 21.9761C205.617 21.9761 205.266 21.9253 204.941 21.8237C204.617 21.7183 204.336 21.5659 204.098 21.3667C203.863 21.1636 203.678 20.9155 203.541 20.6226C203.408 20.3296 203.342 19.9956 203.342 19.6206C203.342 19.394 203.373 19.1831 203.435 18.9878C203.498 18.7886 203.584 18.6069 203.693 18.4429C203.807 18.2788 203.941 18.1304 204.098 17.9976C204.254 17.8647 204.428 17.7476 204.619 17.646C204.502 17.564 204.393 17.4722 204.291 17.3706C204.189 17.269 204.1 17.1538 204.021 17.0249C203.947 16.8921 203.889 16.7417 203.846 16.5737C203.803 16.4058 203.781 16.2144 203.781 15.9995C203.781 15.6987 203.842 15.4331 203.963 15.2026C204.084 14.9722 204.248 14.7788 204.455 14.6226C204.662 14.4624 204.9 14.3413 205.17 14.2593C205.439 14.1772 205.725 14.1362 206.025 14.1362C206.33 14.1362 206.619 14.1772 206.893 14.2593C207.166 14.3413 207.406 14.4624 207.613 14.6226C207.82 14.7788 207.984 14.9741 208.105 15.2085C208.227 15.439 208.287 15.7026 208.287 15.9995C208.287 16.3472 208.213 16.6636 208.064 16.9487C207.916 17.2339 207.707 17.4878 207.437 17.7104ZM206.025 14.9624C205.842 14.9624 205.67 14.9858 205.51 15.0327C205.35 15.0757 205.211 15.1421 205.094 15.2319C204.977 15.3179 204.883 15.4272 204.812 15.5601C204.746 15.6929 204.713 15.8472 204.713 16.0229C204.713 16.2886 204.779 16.5015 204.912 16.6616C205.045 16.8218 205.211 16.9507 205.41 17.0483C205.609 17.1421 205.824 17.2163 206.055 17.271C206.289 17.3218 206.508 17.3726 206.711 17.4233C206.832 17.314 206.934 17.2065 207.016 17.1011C207.098 16.9956 207.164 16.8882 207.215 16.7788C207.266 16.6655 207.301 16.5483 207.32 16.4272C207.344 16.3022 207.355 16.1675 207.355 16.0229C207.355 15.8433 207.318 15.687 207.244 15.5542C207.174 15.4214 207.078 15.312 206.957 15.2261C206.836 15.1362 206.695 15.0698 206.535 15.0269C206.375 14.9839 206.205 14.9624 206.025 14.9624ZM205.996 21.1499C206.254 21.1499 206.486 21.1147 206.693 21.0444C206.9 20.9741 207.074 20.8745 207.215 20.7456C207.359 20.6167 207.469 20.4604 207.543 20.2769C207.621 20.0933 207.66 19.8882 207.66 19.6616C207.66 19.4624 207.625 19.2886 207.555 19.1401C207.488 18.9917 207.396 18.8647 207.279 18.7593C207.162 18.6538 207.025 18.5659 206.869 18.4956C206.713 18.4214 206.549 18.3589 206.377 18.3081C206.205 18.2534 206.027 18.2065 205.844 18.1675C205.664 18.1284 205.492 18.0894 205.328 18.0503C205 18.2378 204.752 18.4604 204.584 18.7183C204.416 18.9761 204.332 19.2769 204.332 19.6206C204.332 19.8589 204.369 20.0737 204.443 20.2651C204.521 20.4526 204.631 20.6128 204.771 20.7456C204.916 20.8745 205.092 20.9741 205.299 21.0444C205.506 21.1147 205.738 21.1499 205.996 21.1499ZM211.076 16.6382C211.185 16.6382 211.287 16.6597 211.381 16.7026C211.478 16.7417 211.562 16.7964 211.633 16.8667C211.703 16.937 211.758 17.021 211.797 17.1187C211.84 17.2124 211.861 17.314 211.861 17.4233C211.861 17.5288 211.84 17.6304 211.797 17.728C211.758 17.8218 211.703 17.9038 211.633 17.9741C211.562 18.0483 211.478 18.1069 211.381 18.1499C211.287 18.189 211.185 18.2085 211.076 18.2085C210.967 18.2085 210.863 18.189 210.766 18.1499C210.672 18.1069 210.59 18.0483 210.519 17.9741C210.449 17.9038 210.393 17.8218 210.35 17.728C210.31 17.6304 210.291 17.5288 210.291 17.4233C210.291 17.314 210.31 17.2124 210.35 17.1187C210.393 17.021 210.449 16.937 210.519 16.8667C210.59 16.7964 210.672 16.7417 210.766 16.7026C210.863 16.6597 210.967 16.6382 211.076 16.6382ZM211.076 20.3823C211.185 20.3823 211.287 20.4038 211.381 20.4468C211.478 20.4858 211.562 20.5405 211.633 20.6108C211.703 20.6812 211.758 20.7651 211.797 20.8628C211.84 20.9565 211.861 21.0581 211.861 21.1675C211.861 21.2729 211.84 21.3745 211.797 21.4722C211.758 21.5659 211.703 21.6479 211.633 21.7183C211.562 21.7925 211.478 21.8491 211.381 21.8882C211.287 21.9312 211.185 21.9526 211.076 21.9526C210.967 21.9526 210.863 21.9312 210.766 21.8882C210.672 21.8491 210.59 21.7925 210.519 21.7183C210.449 21.6479 210.393 21.5659 210.35 21.4722C210.31 21.3745 210.291 21.2729 210.291 21.1675C210.291 21.0581 210.31 20.9565 210.35 20.8628C210.393 20.7651 210.449 20.6812 210.519 20.6108C210.59 20.5405 210.672 20.4858 210.766 20.4468C210.863 20.4038 210.967 20.3823 211.076 20.3823ZM216.695 15.5015C217.141 15.5015 217.555 15.5874 217.937 15.7593C218.32 15.9272 218.65 16.1577 218.928 16.4507C219.205 16.7437 219.422 17.0874 219.578 17.4819C219.738 17.8765 219.818 18.2964 219.818 18.7417C219.818 19.1909 219.738 19.6128 219.578 20.0073C219.422 20.4019 219.205 20.7456 218.928 21.0386C218.65 21.3315 218.32 21.564 217.937 21.7358C217.555 21.9038 217.141 21.9878 216.695 21.9878C216.246 21.9878 215.83 21.9038 215.447 21.7358C215.068 21.564 214.738 21.3315 214.457 21.0386C214.18 20.7456 213.961 20.4019 213.801 20.0073C213.644 19.6128 213.566 19.1909 213.566 18.7417C213.566 18.2964 213.644 17.8765 213.801 17.4819C213.961 17.0874 214.18 16.7437 214.457 16.4507C214.738 16.1577 215.068 15.9272 215.447 15.7593C215.83 15.5874 216.246 15.5015 216.695 15.5015ZM216.695 16.4272C216.391 16.4272 216.109 16.4878 215.852 16.6089C215.594 16.7261 215.371 16.8901 215.184 17.1011C214.996 17.3081 214.85 17.5522 214.744 17.8335C214.639 18.1147 214.586 18.4175 214.586 18.7417C214.586 19.0659 214.639 19.3706 214.744 19.6558C214.85 19.937 214.996 20.1831 215.184 20.394C215.371 20.6011 215.594 20.7651 215.852 20.8862C216.109 21.0034 216.391 21.062 216.695 21.062C217 21.062 217.281 21.0034 217.539 20.8862C217.797 20.7651 218.018 20.6011 218.201 20.394C218.389 20.1831 218.535 19.937 218.641 19.6558C218.746 19.3706 218.799 19.0659 218.799 18.7417C218.799 18.4175 218.746 18.1147 218.641 17.8335C218.535 17.5522 218.389 17.3081 218.201 17.1011C218.018 16.8901 217.797 16.7261 217.539 16.6089C217.281 16.4878 217 16.4272 216.695 16.4272ZM224.008 15.5015C224.453 15.5015 224.867 15.5874 225.25 15.7593C225.633 15.9272 225.963 16.1577 226.24 16.4507C226.518 16.7437 226.734 17.0874 226.891 17.4819C227.051 17.8765 227.131 18.2964 227.131 18.7417C227.131 19.1909 227.051 19.6128 226.891 20.0073C226.734 20.4019 226.518 20.7456 226.24 21.0386C225.963 21.3315 225.633 21.564 225.25 21.7358C224.867 21.9038 224.453 21.9878 224.008 21.9878C223.559 21.9878 223.143 21.9038 222.76 21.7358C222.381 21.564 222.051 21.3315 221.769 21.0386C221.492 20.7456 221.273 20.4019 221.113 20.0073C220.957 19.6128 220.879 19.1909 220.879 18.7417C220.879 18.2964 220.957 17.8765 221.113 17.4819C221.273 17.0874 221.492 16.7437 221.769 16.4507C222.051 16.1577 222.381 15.9272 222.76 15.7593C223.143 15.5874 223.559 15.5015 224.008 15.5015ZM224.008 16.4272C223.703 16.4272 223.422 16.4878 223.164 16.6089C222.906 16.7261 222.684 16.8901 222.496 17.1011C222.309 17.3081 222.162 17.5522 222.057 17.8335C221.951 18.1147 221.898 18.4175 221.898 18.7417C221.898 19.0659 221.951 19.3706 222.057 19.6558C222.162 19.937 222.309 20.1831 222.496 20.394C222.684 20.6011 222.906 20.7651 223.164 20.8862C223.422 21.0034 223.703 21.062 224.008 21.062C224.312 21.062 224.594 21.0034 224.852 20.8862C225.109 20.7651 225.33 20.6011 225.514 20.394C225.701 20.1831 225.848 19.937 225.953 19.6558C226.059 19.3706 226.111 19.0659 226.111 18.7417C226.111 18.4175 226.059 18.1147 225.953 17.8335C225.848 17.5522 225.701 17.3081 225.514 17.1011C225.33 16.8901 225.109 16.7261 224.852 16.6089C224.594 16.4878 224.312 16.4272 224.008 16.4272Z" fill="#5F6B7A"/>
<rect width="37.7179" height="1" transform="translate(226.763 0.835449)" fill="#D1D5DB"/>
<rect width="1" height="8" transform="translate(250.263 1.83545)" fill="#D1D5DB"/>
<path d="M235.792 16.0288C236.499 15.6694 237.226 15.4897 237.972 15.4897C238.261 15.4897 238.524 15.5229 238.763 15.5894C239.005 15.6519 239.222 15.7515 239.413 15.8882C239.608 16.0249 239.761 16.2104 239.87 16.4448C239.98 16.6753 240.034 16.9448 240.034 17.2534C240.034 17.5073 240.005 17.73 239.946 17.9214C239.837 18.2651 239.595 18.5522 239.22 18.7827C239.032 18.8999 238.624 19.0952 237.995 19.3687C237.987 19.3726 237.978 19.3784 237.966 19.3862C237.954 19.3901 237.944 19.394 237.937 19.3979C237.929 19.3979 237.919 19.4019 237.907 19.4097C237.681 19.5073 237.534 19.5718 237.468 19.603C237.405 19.6343 237.302 19.6987 237.157 19.7964C237.017 19.894 236.925 19.9858 236.882 20.0718C236.843 20.1577 236.8 20.2769 236.753 20.4292C236.71 20.5815 236.689 20.7573 236.689 20.9565H239.917V21.8354H235.681V21.0151C235.681 20.7183 235.716 20.4526 235.786 20.2183C235.856 19.98 235.946 19.7788 236.056 19.6147C236.165 19.4507 236.317 19.2983 236.513 19.1577C236.712 19.0132 236.907 18.894 237.099 18.8003C237.294 18.7026 237.538 18.5952 237.831 18.478C238.054 18.3882 238.222 18.3159 238.335 18.2612C238.448 18.2065 238.565 18.1343 238.687 18.0444C238.808 17.9507 238.892 17.8433 238.939 17.7222C238.989 17.6011 239.015 17.4565 239.015 17.2886C239.015 16.9565 238.911 16.7144 238.704 16.562C238.497 16.4097 238.22 16.3335 237.872 16.3335C237.314 16.3335 236.726 16.4839 236.108 16.7847L235.792 16.0288ZM244.282 15.5015C244.728 15.5015 245.142 15.5874 245.524 15.7593C245.907 15.9272 246.237 16.1577 246.515 16.4507C246.792 16.7437 247.009 17.0874 247.165 17.4819C247.325 17.8765 247.405 18.2964 247.405 18.7417C247.405 19.1909 247.325 19.6128 247.165 20.0073C247.009 20.4019 246.792 20.7456 246.515 21.0386C246.237 21.3315 245.907 21.564 245.524 21.7358C245.142 21.9038 244.728 21.9878 244.282 21.9878C243.833 21.9878 243.417 21.9038 243.034 21.7358C242.655 21.564 242.325 21.3315 242.044 21.0386C241.767 20.7456 241.548 20.4019 241.388 20.0073C241.231 19.6128 241.153 19.1909 241.153 18.7417C241.153 18.2964 241.231 17.8765 241.388 17.4819C241.548 17.0874 241.767 16.7437 242.044 16.4507C242.325 16.1577 242.655 15.9272 243.034 15.7593C243.417 15.5874 243.833 15.5015 244.282 15.5015ZM244.282 16.4272C243.978 16.4272 243.696 16.4878 243.439 16.6089C243.181 16.7261 242.958 16.8901 242.771 17.1011C242.583 17.3081 242.437 17.5522 242.331 17.8335C242.226 18.1147 242.173 18.4175 242.173 18.7417C242.173 19.0659 242.226 19.3706 242.331 19.6558C242.437 19.937 242.583 20.1831 242.771 20.394C242.958 20.6011 243.181 20.7651 243.439 20.8862C243.696 21.0034 243.978 21.062 244.282 21.062C244.587 21.062 244.868 21.0034 245.126 20.8862C245.384 20.7651 245.605 20.6011 245.788 20.394C245.976 20.1831 246.122 19.937 246.228 19.6558C246.333 19.3706 246.386 19.0659 246.386 18.7417C246.386 18.4175 246.333 18.1147 246.228 17.8335C246.122 17.5522 245.976 17.3081 245.788 17.1011C245.605 16.8901 245.384 16.7261 245.126 16.6089C244.868 16.4878 244.587 16.4272 244.282 16.4272ZM249.901 16.6382C250.011 16.6382 250.112 16.6597 250.206 16.7026C250.304 16.7417 250.388 16.7964 250.458 16.8667C250.528 16.937 250.583 17.021 250.622 17.1187C250.665 17.2124 250.687 17.314 250.687 17.4233C250.687 17.5288 250.665 17.6304 250.622 17.728C250.583 17.8218 250.528 17.9038 250.458 17.9741C250.388 18.0483 250.304 18.1069 250.206 18.1499C250.112 18.189 250.011 18.2085 249.901 18.2085C249.792 18.2085 249.689 18.189 249.591 18.1499C249.497 18.1069 249.415 18.0483 249.345 17.9741C249.274 17.9038 249.218 17.8218 249.175 17.728C249.136 17.6304 249.116 17.5288 249.116 17.4233C249.116 17.314 249.136 17.2124 249.175 17.1187C249.218 17.021 249.274 16.937 249.345 16.8667C249.415 16.7964 249.497 16.7417 249.591 16.7026C249.689 16.6597 249.792 16.6382 249.901 16.6382ZM249.901 20.3823C250.011 20.3823 250.112 20.4038 250.206 20.4468C250.304 20.4858 250.388 20.5405 250.458 20.6108C250.528 20.6812 250.583 20.7651 250.622 20.8628C250.665 20.9565 250.687 21.0581 250.687 21.1675C250.687 21.2729 250.665 21.3745 250.622 21.4722C250.583 21.5659 250.528 21.6479 250.458 21.7183C250.388 21.7925 250.304 21.8491 250.206 21.8882C250.112 21.9312 250.011 21.9526 249.901 21.9526C249.792 21.9526 249.689 21.9312 249.591 21.8882C249.497 21.8491 249.415 21.7925 249.345 21.7183C249.274 21.6479 249.218 21.5659 249.175 21.4722C249.136 21.3745 249.116 21.2729 249.116 21.1675C249.116 21.0581 249.136 20.9565 249.175 20.8628C249.218 20.7651 249.274 20.6812 249.345 20.6108C249.415 20.5405 249.497 20.4858 249.591 20.4468C249.689 20.4038 249.792 20.3823 249.901 20.3823ZM255.521 15.5015C255.966 15.5015 256.38 15.5874 256.763 15.7593C257.146 15.9272 257.476 16.1577 257.753 16.4507C258.03 16.7437 258.247 17.0874 258.403 17.4819C258.564 17.8765 258.644 18.2964 258.644 18.7417C258.644 19.1909 258.564 19.6128 258.403 20.0073C258.247 20.4019 258.03 20.7456 257.753 21.0386C257.476 21.3315 257.146 21.564 256.763 21.7358C256.38 21.9038 255.966 21.9878 255.521 21.9878C255.071 21.9878 254.655 21.9038 254.272 21.7358C253.894 21.564 253.564 21.3315 253.282 21.0386C253.005 20.7456 252.786 20.4019 252.626 20.0073C252.47 19.6128 252.392 19.1909 252.392 18.7417C252.392 18.2964 252.47 17.8765 252.626 17.4819C252.786 17.0874 253.005 16.7437 253.282 16.4507C253.564 16.1577 253.894 15.9272 254.272 15.7593C254.655 15.5874 255.071 15.5015 255.521 15.5015ZM255.521 16.4272C255.216 16.4272 254.935 16.4878 254.677 16.6089C254.419 16.7261 254.196 16.8901 254.009 17.1011C253.821 17.3081 253.675 17.5522 253.569 17.8335C253.464 18.1147 253.411 18.4175 253.411 18.7417C253.411 19.0659 253.464 19.3706 253.569 19.6558C253.675 19.937 253.821 20.1831 254.009 20.394C254.196 20.6011 254.419 20.7651 254.677 20.8862C254.935 21.0034 255.216 21.062 255.521 21.062C255.825 21.062 256.106 21.0034 256.364 20.8862C256.622 20.7651 256.843 20.6011 257.026 20.394C257.214 20.1831 257.36 19.937 257.466 19.6558C257.571 19.3706 257.624 19.0659 257.624 18.7417C257.624 18.4175 257.571 18.1147 257.466 17.8335C257.36 17.5522 257.214 17.3081 257.026 17.1011C256.843 16.8901 256.622 16.7261 256.364 16.6089C256.106 16.4878 255.825 16.4272 255.521 16.4272ZM262.833 15.5015C263.278 15.5015 263.692 15.5874 264.075 15.7593C264.458 15.9272 264.788 16.1577 265.065 16.4507C265.343 16.7437 265.56 17.0874 265.716 17.4819C265.876 17.8765 265.956 18.2964 265.956 18.7417C265.956 19.1909 265.876 19.6128 265.716 20.0073C265.56 20.4019 265.343 20.7456 265.065 21.0386C264.788 21.3315 264.458 21.564 264.075 21.7358C263.692 21.9038 263.278 21.9878 262.833 21.9878C262.384 21.9878 261.968 21.9038 261.585 21.7358C261.206 21.564 260.876 21.3315 260.595 21.0386C260.317 20.7456 260.099 20.4019 259.939 20.0073C259.782 19.6128 259.704 19.1909 259.704 18.7417C259.704 18.2964 259.782 17.8765 259.939 17.4819C260.099 17.0874 260.317 16.7437 260.595 16.4507C260.876 16.1577 261.206 15.9272 261.585 15.7593C261.968 15.5874 262.384 15.5015 262.833 15.5015ZM262.833 16.4272C262.528 16.4272 262.247 16.4878 261.989 16.6089C261.731 16.7261 261.509 16.8901 261.321 17.1011C261.134 17.3081 260.987 17.5522 260.882 17.8335C260.776 18.1147 260.724 18.4175 260.724 18.7417C260.724 19.0659 260.776 19.3706 260.882 19.6558C260.987 19.937 261.134 20.1831 261.321 20.394C261.509 20.6011 261.731 20.7651 261.989 20.8862C262.247 21.0034 262.528 21.062 262.833 21.062C263.138 21.062 263.419 21.0034 263.677 20.8862C263.935 20.7651 264.155 20.6011 264.339 20.394C264.526 20.1831 264.673 19.937 264.778 19.6558C264.884 19.3706 264.937 19.0659 264.937 18.7417C264.937 18.4175 264.884 18.1147 264.778 17.8335C264.673 17.5522 264.526 17.3081 264.339 17.1011C264.155 16.8901 263.935 16.7261 263.677 16.6089C263.419 16.4878 263.138 16.4272 262.833 16.4272Z" fill="#5F6B7A"/>
<rect width="37.7179" height="1" transform="translate(264.481 0.835449)" fill="#D1D5DB"/>
<rect width="1" height="8" transform="translate(287.981 1.83545)" fill="#D1D5DB"/>
<path d="M274.371 16.0288C275.078 15.6694 275.805 15.4897 276.551 15.4897C276.84 15.4897 277.104 15.5229 277.342 15.5894C277.584 15.6519 277.801 15.7515 277.992 15.8882C278.188 16.0249 278.34 16.2104 278.449 16.4448C278.559 16.6753 278.613 16.9448 278.613 17.2534C278.613 17.5073 278.584 17.73 278.526 17.9214C278.416 18.2651 278.174 18.5522 277.799 18.7827C277.611 18.8999 277.203 19.0952 276.574 19.3687C276.567 19.3726 276.557 19.3784 276.545 19.3862C276.533 19.3901 276.524 19.394 276.516 19.3979C276.508 19.3979 276.498 19.4019 276.486 19.4097C276.26 19.5073 276.113 19.5718 276.047 19.603C275.984 19.6343 275.881 19.6987 275.736 19.7964C275.596 19.894 275.504 19.9858 275.461 20.0718C275.422 20.1577 275.379 20.2769 275.332 20.4292C275.289 20.5815 275.268 20.7573 275.268 20.9565H278.496V21.8354H274.26V21.0151C274.26 20.7183 274.295 20.4526 274.365 20.2183C274.436 19.98 274.526 19.7788 274.635 19.6147C274.744 19.4507 274.897 19.2983 275.092 19.1577C275.291 19.0132 275.486 18.894 275.678 18.8003C275.873 18.7026 276.117 18.5952 276.41 18.478C276.633 18.3882 276.801 18.3159 276.914 18.2612C277.027 18.2065 277.145 18.1343 277.266 18.0444C277.387 17.9507 277.471 17.8433 277.518 17.7222C277.568 17.6011 277.594 17.4565 277.594 17.2886C277.594 16.9565 277.49 16.7144 277.283 16.562C277.076 16.4097 276.799 16.3335 276.451 16.3335C275.893 16.3335 275.305 16.4839 274.688 16.7847L274.371 16.0288ZM279.961 16.0288C280.668 15.6694 281.395 15.4897 282.141 15.4897C282.43 15.4897 282.693 15.5229 282.932 15.5894C283.174 15.6519 283.391 15.7515 283.582 15.8882C283.777 16.0249 283.93 16.2104 284.039 16.4448C284.149 16.6753 284.203 16.9448 284.203 17.2534C284.203 17.5073 284.174 17.73 284.115 17.9214C284.006 18.2651 283.764 18.5522 283.389 18.7827C283.201 18.8999 282.793 19.0952 282.164 19.3687C282.156 19.3726 282.147 19.3784 282.135 19.3862C282.123 19.3901 282.113 19.394 282.106 19.3979C282.098 19.3979 282.088 19.4019 282.076 19.4097C281.85 19.5073 281.703 19.5718 281.637 19.603C281.574 19.6343 281.471 19.6987 281.326 19.7964C281.186 19.894 281.094 19.9858 281.051 20.0718C281.012 20.1577 280.969 20.2769 280.922 20.4292C280.879 20.5815 280.858 20.7573 280.858 20.9565H284.086V21.8354H279.85V21.0151C279.85 20.7183 279.885 20.4526 279.955 20.2183C280.026 19.98 280.115 19.7788 280.225 19.6147C280.334 19.4507 280.486 19.2983 280.682 19.1577C280.881 19.0132 281.076 18.894 281.268 18.8003C281.463 18.7026 281.707 18.5952 282 18.478C282.223 18.3882 282.391 18.3159 282.504 18.2612C282.617 18.2065 282.734 18.1343 282.856 18.0444C282.977 17.9507 283.061 17.8433 283.108 17.7222C283.158 17.6011 283.184 17.4565 283.184 17.2886C283.184 16.9565 283.08 16.7144 282.873 16.562C282.666 16.4097 282.389 16.3335 282.041 16.3335C281.483 16.3335 280.895 16.4839 280.277 16.7847L279.961 16.0288ZM286.758 16.6382C286.867 16.6382 286.969 16.6597 287.063 16.7026C287.16 16.7417 287.244 16.7964 287.315 16.8667C287.385 16.937 287.44 17.021 287.479 17.1187C287.522 17.2124 287.543 17.314 287.543 17.4233C287.543 17.5288 287.522 17.6304 287.479 17.728C287.44 17.8218 287.385 17.9038 287.315 17.9741C287.244 18.0483 287.16 18.1069 287.063 18.1499C286.969 18.189 286.867 18.2085 286.758 18.2085C286.649 18.2085 286.545 18.189 286.447 18.1499C286.354 18.1069 286.272 18.0483 286.201 17.9741C286.131 17.9038 286.074 17.8218 286.031 17.728C285.992 17.6304 285.973 17.5288 285.973 17.4233C285.973 17.314 285.992 17.2124 286.031 17.1187C286.074 17.021 286.131 16.937 286.201 16.8667C286.272 16.7964 286.354 16.7417 286.447 16.7026C286.545 16.6597 286.649 16.6382 286.758 16.6382ZM286.758 20.3823C286.867 20.3823 286.969 20.4038 287.063 20.4468C287.16 20.4858 287.244 20.5405 287.315 20.6108C287.385 20.6812 287.44 20.7651 287.479 20.8628C287.522 20.9565 287.543 21.0581 287.543 21.1675C287.543 21.2729 287.522 21.3745 287.479 21.4722C287.44 21.5659 287.385 21.6479 287.315 21.7183C287.244 21.7925 287.16 21.8491 287.063 21.8882C286.969 21.9312 286.867 21.9526 286.758 21.9526C286.649 21.9526 286.545 21.9312 286.447 21.8882C286.354 21.8491 286.272 21.7925 286.201 21.7183C286.131 21.6479 286.074 21.5659 286.031 21.4722C285.992 21.3745 285.973 21.2729 285.973 21.1675C285.973 21.0581 285.992 20.9565 286.031 20.8628C286.074 20.7651 286.131 20.6812 286.201 20.6108C286.272 20.5405 286.354 20.4858 286.447 20.4468C286.545 20.4038 286.649 20.3823 286.758 20.3823ZM292.377 15.5015C292.822 15.5015 293.236 15.5874 293.619 15.7593C294.002 15.9272 294.332 16.1577 294.609 16.4507C294.887 16.7437 295.104 17.0874 295.26 17.4819C295.42 17.8765 295.5 18.2964 295.5 18.7417C295.5 19.1909 295.42 19.6128 295.26 20.0073C295.104 20.4019 294.887 20.7456 294.609 21.0386C294.332 21.3315 294.002 21.564 293.619 21.7358C293.236 21.9038 292.822 21.9878 292.377 21.9878C291.928 21.9878 291.512 21.9038 291.129 21.7358C290.75 21.564 290.42 21.3315 290.139 21.0386C289.861 20.7456 289.643 20.4019 289.483 20.0073C289.326 19.6128 289.248 19.1909 289.248 18.7417C289.248 18.2964 289.326 17.8765 289.483 17.4819C289.643 17.0874 289.861 16.7437 290.139 16.4507C290.42 16.1577 290.75 15.9272 291.129 15.7593C291.512 15.5874 291.928 15.5015 292.377 15.5015ZM292.377 16.4272C292.072 16.4272 291.791 16.4878 291.533 16.6089C291.276 16.7261 291.053 16.8901 290.865 17.1011C290.678 17.3081 290.531 17.5522 290.426 17.8335C290.32 18.1147 290.268 18.4175 290.268 18.7417C290.268 19.0659 290.32 19.3706 290.426 19.6558C290.531 19.937 290.678 20.1831 290.865 20.394C291.053 20.6011 291.276 20.7651 291.533 20.8862C291.791 21.0034 292.072 21.062 292.377 21.062C292.682 21.062 292.963 21.0034 293.221 20.8862C293.479 20.7651 293.699 20.6011 293.883 20.394C294.07 20.1831 294.217 19.937 294.322 19.6558C294.428 19.3706 294.481 19.0659 294.481 18.7417C294.481 18.4175 294.428 18.1147 294.322 17.8335C294.217 17.5522 294.07 17.3081 293.883 17.1011C293.699 16.8901 293.479 16.7261 293.221 16.6089C292.963 16.4878 292.682 16.4272 292.377 16.4272ZM299.69 15.5015C300.135 15.5015 300.549 15.5874 300.932 15.7593C301.315 15.9272 301.645 16.1577 301.922 16.4507C302.199 16.7437 302.416 17.0874 302.572 17.4819C302.733 17.8765 302.813 18.2964 302.813 18.7417C302.813 19.1909 302.733 19.6128 302.572 20.0073C302.416 20.4019 302.199 20.7456 301.922 21.0386C301.645 21.3315 301.315 21.564 300.932 21.7358C300.549 21.9038 300.135 21.9878 299.69 21.9878C299.24 21.9878 298.824 21.9038 298.442 21.7358C298.063 21.564 297.733 21.3315 297.451 21.0386C297.174 20.7456 296.955 20.4019 296.795 20.0073C296.639 19.6128 296.561 19.1909 296.561 18.7417C296.561 18.2964 296.639 17.8765 296.795 17.4819C296.955 17.0874 297.174 16.7437 297.451 16.4507C297.733 16.1577 298.063 15.9272 298.442 15.7593C298.824 15.5874 299.24 15.5015 299.69 15.5015ZM299.69 16.4272C299.385 16.4272 299.104 16.4878 298.846 16.6089C298.588 16.7261 298.365 16.8901 298.178 17.1011C297.99 17.3081 297.844 17.5522 297.738 17.8335C297.633 18.1147 297.58 18.4175 297.58 18.7417C297.58 19.0659 297.633 19.3706 297.738 19.6558C297.844 19.937 297.99 20.1831 298.178 20.394C298.365 20.6011 298.588 20.7651 298.846 20.8862C299.104 21.0034 299.385 21.062 299.69 21.062C299.994 21.062 300.276 21.0034 300.533 20.8862C300.791 20.7651 301.012 20.6011 301.195 20.394C301.383 20.1831 301.529 19.937 301.635 19.6558C301.74 19.3706 301.793 19.0659 301.793 18.7417C301.793 18.4175 301.74 18.1147 301.635 17.8335C301.529 17.5522 301.383 17.3081 301.195 17.1011C301.012 16.8901 300.791 16.7261 300.533 16.6089C300.276 16.4878 299.994 16.4272 299.69 16.4272Z" fill="#5F6B7A"/>
</svg>
