<svg width="372" height="153" viewBox="0 0 372 153" fill="none" xmlns="http://www.w3.org/2000/svg">
<path d="M32.4727 6.7207H31.5469C31.1992 6.7207 30.9199 6.70508 30.709 6.67383C30.3965 6.62695 30.1133 6.55469 29.8594 6.45703L30.1934 5.61914C30.4668 5.72461 30.7266 5.79297 30.9727 5.82422C31.2227 5.85547 31.623 5.87109 32.1738 5.87109H33.7207V6.53906L32.2324 8.37891C32.5293 8.35547 32.8008 8.38086 33.0469 8.45508C33.293 8.5293 33.498 8.63867 33.6621 8.7832C33.8301 8.92383 33.9727 9.0918 34.0898 9.28711C34.207 9.48242 34.291 9.68945 34.3418 9.9082C34.3965 10.123 34.4238 10.3438 34.4238 10.5703C34.4238 11.8867 33.5977 12.7891 31.9453 13.2773C31.2734 13.4766 30.543 13.5879 29.7539 13.6113V12.7031C30.4805 12.6562 31.0703 12.5703 31.5234 12.4453C32.1094 12.2812 32.5684 12.0469 32.9004 11.7422C33.2363 11.4375 33.4043 11.0312 33.4043 10.5234C33.4043 10.0859 33.2832 9.75195 33.041 9.52148C32.8027 9.29102 32.4766 9.17578 32.0625 9.17578C31.7812 9.17578 31.4746 9.23633 31.1426 9.35742L30.8613 8.80078L32.4727 6.7207ZM35.4844 13.6113V12.709C36.2109 12.6621 36.8008 12.5762 37.2539 12.4512C37.8398 12.2871 38.2988 12.0527 38.6309 11.748C38.9668 11.4434 39.1348 11.0352 39.1348 10.5234C39.1348 10.0859 39.0098 9.74805 38.7598 9.50977C38.5254 9.28711 38.1992 9.17578 37.7812 9.17578C37.3398 9.17578 36.8867 9.28516 36.4219 9.50391L35.9121 9.15234L36.1055 5.87109H37.4766C38.0273 5.87109 38.4277 5.85547 38.6777 5.82422C38.9238 5.79297 39.1836 5.72461 39.457 5.61914L39.791 6.45703C39.5371 6.55469 39.2539 6.62695 38.9414 6.67383C38.7305 6.70508 38.4512 6.7207 38.1035 6.7207H37.0078L36.9023 8.53125C37.2656 8.41797 37.6289 8.36133 37.9922 8.36133C38.6641 8.36133 39.1758 8.54297 39.5273 8.90625C39.7344 9.11328 39.8906 9.36328 39.9961 9.65625C40.1016 9.94922 40.1543 10.2539 40.1543 10.5703C40.1543 11.8867 39.3281 12.7891 37.6758 13.2773C37.0039 13.4766 36.2734 13.5879 35.4844 13.6113ZM44.3438 5.66602C44.7891 5.66602 45.2031 5.75195 45.5859 5.92383C45.9688 6.0918 46.2988 6.32227 46.5762 6.61523C46.8535 6.9082 47.0703 7.25195 47.2266 7.64648C47.3867 8.04102 47.4668 8.46094 47.4668 8.90625C47.4668 9.35547 47.3867 9.77734 47.2266 10.1719C47.0703 10.5664 46.8535 10.9102 46.5762 11.2031C46.2988 11.4961 45.9688 11.7285 45.5859 11.9004C45.2031 12.0684 44.7891 12.1523 44.3438 12.1523C43.8945 12.1523 43.4785 12.0684 43.0957 11.9004C42.7168 11.7285 42.3867 11.4961 42.1055 11.2031C41.8281 10.9102 41.6094 10.5664 41.4492 10.1719C41.293 9.77734 41.2148 9.35547 41.2148 8.90625C41.2148 8.46094 41.293 8.04102 41.4492 7.64648C41.6094 7.25195 41.8281 6.9082 42.1055 6.61523C42.3867 6.32227 42.7168 6.0918 43.0957 5.92383C43.4785 5.75195 43.8945 5.66602 44.3438 5.66602ZM44.3438 6.5918C44.0391 6.5918 43.7578 6.65234 43.5 6.77344C43.2422 6.89062 43.0195 7.05469 42.832 7.26562C42.6445 7.47266 42.498 7.7168 42.3926 7.99805C42.2871 8.2793 42.2344 8.58203 42.2344 8.90625C42.2344 9.23047 42.2871 9.53516 42.3926 9.82031C42.498 10.1016 42.6445 10.3477 42.832 10.5586C43.0195 10.7656 43.2422 10.9297 43.5 11.0508C43.7578 11.168 44.0391 11.2266 44.3438 11.2266C44.6484 11.2266 44.9297 11.168 45.1875 11.0508C45.4453 10.9297 45.666 10.7656 45.8496 10.5586C46.0371 10.3477 46.1836 10.1016 46.2891 9.82031C46.3945 9.53516 46.4473 9.23047 46.4473 8.90625C46.4473 8.58203 46.3945 8.2793 46.2891 7.99805C46.1836 7.7168 46.0371 7.47266 45.8496 7.26562C45.666 7.05469 45.4453 6.89062 45.1875 6.77344C44.9297 6.65234 44.6484 6.5918 44.3438 6.5918Z" fill="#5F6B7A"/>
<rect width="320" height="1" transform="translate(52 7.5)" fill="#E9EBED"/>
<path d="M30.8906 34.1206H29.9648C29.6172 34.1206 29.3379 34.105 29.127 34.0737C28.8145 34.0269 28.5312 33.9546 28.2773 33.8569L28.6113 33.019C28.8848 33.1245 29.1445 33.1929 29.3906 33.2241C29.6406 33.2554 30.041 33.271 30.5918 33.271H32.1387V33.939L30.6504 35.7788C30.9473 35.7554 31.2188 35.7808 31.4648 35.855C31.7109 35.9292 31.916 36.0386 32.0801 36.1831C32.248 36.3237 32.3906 36.4917 32.5078 36.687C32.625 36.8823 32.709 37.0894 32.7598 37.3081C32.8145 37.5229 32.8418 37.7437 32.8418 37.9702C32.8418 39.2866 32.0156 40.189 30.3633 40.6772C29.6914 40.8765 28.9609 40.9878 28.1719 41.0112V40.103C28.8984 40.0562 29.4883 39.9702 29.9414 39.8452C30.5273 39.6812 30.9863 39.4468 31.3184 39.1421C31.6543 38.8374 31.8223 38.4312 31.8223 37.9233C31.8223 37.4858 31.7012 37.1519 31.459 36.9214C31.2207 36.6909 30.8945 36.5757 30.4805 36.5757C30.1992 36.5757 29.8926 36.6362 29.5605 36.7573L29.2793 36.2007L30.8906 34.1206ZM37.0312 33.0659C37.4766 33.0659 37.8906 33.1519 38.2734 33.3237C38.6562 33.4917 38.9863 33.7222 39.2637 34.0151C39.541 34.3081 39.7578 34.6519 39.9141 35.0464C40.0742 35.4409 40.1543 35.8608 40.1543 36.3062C40.1543 36.7554 40.0742 37.1772 39.9141 37.5718C39.7578 37.9663 39.541 38.3101 39.2637 38.603C38.9863 38.896 38.6562 39.1284 38.2734 39.3003C37.8906 39.4683 37.4766 39.5522 37.0312 39.5522C36.582 39.5522 36.166 39.4683 35.7832 39.3003C35.4043 39.1284 35.0742 38.896 34.793 38.603C34.5156 38.3101 34.2969 37.9663 34.1367 37.5718C33.9805 37.1772 33.9023 36.7554 33.9023 36.3062C33.9023 35.8608 33.9805 35.4409 34.1367 35.0464C34.2969 34.6519 34.5156 34.3081 34.793 34.0151C35.0742 33.7222 35.4043 33.4917 35.7832 33.3237C36.166 33.1519 36.582 33.0659 37.0312 33.0659ZM37.0312 33.9917C36.7266 33.9917 36.4453 34.0522 36.1875 34.1733C35.9297 34.2905 35.707 34.4546 35.5195 34.6655C35.332 34.8726 35.1855 35.1167 35.0801 35.3979C34.9746 35.6792 34.9219 35.9819 34.9219 36.3062C34.9219 36.6304 34.9746 36.9351 35.0801 37.2202C35.1855 37.5015 35.332 37.7476 35.5195 37.9585C35.707 38.1655 35.9297 38.3296 36.1875 38.4507C36.4453 38.5679 36.7266 38.6265 37.0312 38.6265C37.3359 38.6265 37.6172 38.5679 37.875 38.4507C38.1328 38.3296 38.3535 38.1655 38.5371 37.9585C38.7246 37.7476 38.8711 37.5015 38.9766 37.2202C39.082 36.9351 39.1348 36.6304 39.1348 36.3062C39.1348 35.9819 39.082 35.6792 38.9766 35.3979C38.8711 35.1167 38.7246 34.8726 38.5371 34.6655C38.3535 34.4546 38.1328 34.2905 37.875 34.1733C37.6172 34.0522 37.3359 33.9917 37.0312 33.9917ZM44.3438 33.0659C44.7891 33.0659 45.2031 33.1519 45.5859 33.3237C45.9688 33.4917 46.2988 33.7222 46.5762 34.0151C46.8535 34.3081 47.0703 34.6519 47.2266 35.0464C47.3867 35.4409 47.4668 35.8608 47.4668 36.3062C47.4668 36.7554 47.3867 37.1772 47.2266 37.5718C47.0703 37.9663 46.8535 38.3101 46.5762 38.603C46.2988 38.896 45.9688 39.1284 45.5859 39.3003C45.2031 39.4683 44.7891 39.5522 44.3438 39.5522C43.8945 39.5522 43.4785 39.4683 43.0957 39.3003C42.7168 39.1284 42.3867 38.896 42.1055 38.603C41.8281 38.3101 41.6094 37.9663 41.4492 37.5718C41.293 37.1772 41.2148 36.7554 41.2148 36.3062C41.2148 35.8608 41.293 35.4409 41.4492 35.0464C41.6094 34.6519 41.8281 34.3081 42.1055 34.0151C42.3867 33.7222 42.7168 33.4917 43.0957 33.3237C43.4785 33.1519 43.8945 33.0659 44.3438 33.0659ZM44.3438 33.9917C44.0391 33.9917 43.7578 34.0522 43.5 34.1733C43.2422 34.2905 43.0195 34.4546 42.832 34.6655C42.6445 34.8726 42.498 35.1167 42.3926 35.3979C42.2871 35.6792 42.2344 35.9819 42.2344 36.3062C42.2344 36.6304 42.2871 36.9351 42.3926 37.2202C42.498 37.5015 42.6445 37.7476 42.832 37.9585C43.0195 38.1655 43.2422 38.3296 43.5 38.4507C43.7578 38.5679 44.0391 38.6265 44.3438 38.6265C44.6484 38.6265 44.9297 38.5679 45.1875 38.4507C45.4453 38.3296 45.666 38.1655 45.8496 37.9585C46.0371 37.7476 46.1836 37.5015 46.2891 37.2202C46.3945 36.9351 46.4473 36.6304 46.4473 36.3062C46.4473 35.9819 46.3945 35.6792 46.2891 35.3979C46.1836 35.1167 46.0371 34.8726 45.8496 34.6655C45.666 34.4546 45.4453 34.2905 45.1875 34.1733C44.9297 34.0522 44.6484 33.9917 44.3438 33.9917Z" fill="#5F6B7A"/>
<rect width="320" height="1" transform="translate(52 34.8999)" fill="#E9EBED"/>
<path d="M30.123 60.9932C30.8301 60.6338 31.5566 60.4541 32.3027 60.4541C32.5918 60.4541 32.8555 60.4873 33.0938 60.5537C33.3359 60.6162 33.5527 60.7158 33.7441 60.8525C33.9395 60.9893 34.0918 61.1748 34.2012 61.4092C34.3105 61.6396 34.3652 61.9092 34.3652 62.2178C34.3652 62.4717 34.3359 62.6943 34.2773 62.8857C34.168 63.2295 33.9258 63.5166 33.5508 63.7471C33.3633 63.8643 32.9551 64.0596 32.3262 64.333C32.3184 64.3369 32.3086 64.3428 32.2969 64.3506C32.2852 64.3545 32.2754 64.3584 32.2676 64.3623C32.2598 64.3623 32.25 64.3662 32.2383 64.374C32.0117 64.4717 31.8652 64.5361 31.7988 64.5674C31.7363 64.5986 31.6328 64.6631 31.4883 64.7607C31.3477 64.8584 31.2559 64.9502 31.2129 65.0361C31.1738 65.1221 31.1309 65.2412 31.084 65.3936C31.041 65.5459 31.0195 65.7217 31.0195 65.9209H34.248V66.7998H30.0117V65.9795C30.0117 65.6826 30.0469 65.417 30.1172 65.1826C30.1875 64.9443 30.2773 64.7432 30.3867 64.5791C30.4961 64.415 30.6484 64.2627 30.8438 64.1221C31.043 63.9775 31.2383 63.8584 31.4297 63.7646C31.625 63.667 31.8691 63.5596 32.1621 63.4424C32.3848 63.3525 32.5527 63.2803 32.666 63.2256C32.7793 63.1709 32.8965 63.0986 33.0176 63.0088C33.1387 62.915 33.2227 62.8076 33.2695 62.6865C33.3203 62.5654 33.3457 62.4209 33.3457 62.2529C33.3457 61.9209 33.2422 61.6787 33.0352 61.5264C32.8281 61.374 32.5508 61.2979 32.2031 61.2979C31.6445 61.2979 31.0566 61.4482 30.4395 61.749L30.123 60.9932ZM35.4844 68.4111V67.5088C36.2109 67.4619 36.8008 67.376 37.2539 67.251C37.8398 67.0869 38.2988 66.8525 38.6309 66.5479C38.9668 66.2432 39.1348 65.835 39.1348 65.3232C39.1348 64.8857 39.0098 64.5479 38.7598 64.3096C38.5254 64.0869 38.1992 63.9756 37.7812 63.9756C37.3398 63.9756 36.8867 64.085 36.4219 64.3037L35.9121 63.9521L36.1055 60.6709H37.4766C38.0273 60.6709 38.4277 60.6553 38.6777 60.624C38.9238 60.5928 39.1836 60.5244 39.457 60.4189L39.791 61.2568C39.5371 61.3545 39.2539 61.4268 38.9414 61.4736C38.7305 61.5049 38.4512 61.5205 38.1035 61.5205H37.0078L36.9023 63.3311C37.2656 63.2178 37.6289 63.1611 37.9922 63.1611C38.6641 63.1611 39.1758 63.3428 39.5273 63.7061C39.7344 63.9131 39.8906 64.1631 39.9961 64.4561C40.1016 64.749 40.1543 65.0537 40.1543 65.3701C40.1543 66.6865 39.3281 67.5889 37.6758 68.0771C37.0039 68.2764 36.2734 68.3877 35.4844 68.4111ZM44.3438 60.4658C44.7891 60.4658 45.2031 60.5518 45.5859 60.7236C45.9688 60.8916 46.2988 61.1221 46.5762 61.415C46.8535 61.708 47.0703 62.0518 47.2266 62.4463C47.3867 62.8408 47.4668 63.2607 47.4668 63.7061C47.4668 64.1553 47.3867 64.5771 47.2266 64.9717C47.0703 65.3662 46.8535 65.71 46.5762 66.0029C46.2988 66.2959 45.9688 66.5283 45.5859 66.7002C45.2031 66.8682 44.7891 66.9521 44.3438 66.9521C43.8945 66.9521 43.4785 66.8682 43.0957 66.7002C42.7168 66.5283 42.3867 66.2959 42.1055 66.0029C41.8281 65.71 41.6094 65.3662 41.4492 64.9717C41.293 64.5771 41.2148 64.1553 41.2148 63.7061C41.2148 63.2607 41.293 62.8408 41.4492 62.4463C41.6094 62.0518 41.8281 61.708 42.1055 61.415C42.3867 61.1221 42.7168 60.8916 43.0957 60.7236C43.4785 60.5518 43.8945 60.4658 44.3438 60.4658ZM44.3438 61.3916C44.0391 61.3916 43.7578 61.4521 43.5 61.5732C43.2422 61.6904 43.0195 61.8545 42.832 62.0654C42.6445 62.2725 42.498 62.5166 42.3926 62.7979C42.2871 63.0791 42.2344 63.3818 42.2344 63.7061C42.2344 64.0303 42.2871 64.335 42.3926 64.6201C42.498 64.9014 42.6445 65.1475 42.832 65.3584C43.0195 65.5654 43.2422 65.7295 43.5 65.8506C43.7578 65.9678 44.0391 66.0264 44.3438 66.0264C44.6484 66.0264 44.9297 65.9678 45.1875 65.8506C45.4453 65.7295 45.666 65.5654 45.8496 65.3584C46.0371 65.1475 46.1836 64.9014 46.2891 64.6201C46.3945 64.335 46.4473 64.0303 46.4473 63.7061C46.4473 63.3818 46.3945 63.0791 46.2891 62.7979C46.1836 62.5166 46.0371 62.2725 45.8496 62.0654C45.666 61.8545 45.4453 61.6904 45.1875 61.5732C44.9297 61.4521 44.6484 61.3916 44.3438 61.3916Z" fill="#5F6B7A"/>
<rect width="320" height="1" transform="translate(52 62.2998)" fill="#E9EBED"/>
<path d="M28.541 88.3936C29.248 88.0342 29.9746 87.8545 30.7207 87.8545C31.0098 87.8545 31.2734 87.8877 31.5117 87.9541C31.7539 88.0166 31.9707 88.1162 32.1621 88.2529C32.3574 88.3896 32.5098 88.5752 32.6191 88.8096C32.7285 89.04 32.7832 89.3096 32.7832 89.6182C32.7832 89.8721 32.7539 90.0947 32.6953 90.2861C32.5859 90.6299 32.3438 90.917 31.9688 91.1475C31.7812 91.2646 31.373 91.46 30.7441 91.7334C30.7363 91.7373 30.7266 91.7432 30.7148 91.751C30.7031 91.7549 30.6934 91.7588 30.6855 91.7627C30.6777 91.7627 30.668 91.7666 30.6562 91.7744C30.4297 91.8721 30.2832 91.9365 30.2168 91.9678C30.1543 91.999 30.0508 92.0635 29.9062 92.1611C29.7656 92.2588 29.6738 92.3506 29.6309 92.4365C29.5918 92.5225 29.5488 92.6416 29.502 92.7939C29.459 92.9463 29.4375 93.1221 29.4375 93.3213H32.666V94.2002H28.4297V93.3799C28.4297 93.083 28.4648 92.8174 28.5352 92.583C28.6055 92.3447 28.6953 92.1436 28.8047 91.9795C28.9141 91.8154 29.0664 91.6631 29.2617 91.5225C29.4609 91.3779 29.6562 91.2588 29.8477 91.165C30.043 91.0674 30.2871 90.96 30.5801 90.8428C30.8027 90.7529 30.9707 90.6807 31.084 90.626C31.1973 90.5713 31.3145 90.499 31.4355 90.4092C31.5566 90.3154 31.6406 90.208 31.6875 90.0869C31.7383 89.9658 31.7637 89.8213 31.7637 89.6533C31.7637 89.3213 31.6602 89.0791 31.4531 88.9268C31.2461 88.7744 30.9688 88.6982 30.6211 88.6982C30.0625 88.6982 29.4746 88.8486 28.8574 89.1494L28.541 88.3936ZM37.0312 87.8662C37.4766 87.8662 37.8906 87.9521 38.2734 88.124C38.6562 88.292 38.9863 88.5225 39.2637 88.8154C39.541 89.1084 39.7578 89.4521 39.9141 89.8467C40.0742 90.2412 40.1543 90.6611 40.1543 91.1064C40.1543 91.5557 40.0742 91.9775 39.9141 92.3721C39.7578 92.7666 39.541 93.1104 39.2637 93.4033C38.9863 93.6963 38.6562 93.9287 38.2734 94.1006C37.8906 94.2686 37.4766 94.3525 37.0312 94.3525C36.582 94.3525 36.166 94.2686 35.7832 94.1006C35.4043 93.9287 35.0742 93.6963 34.793 93.4033C34.5156 93.1104 34.2969 92.7666 34.1367 92.3721C33.9805 91.9775 33.9023 91.5557 33.9023 91.1064C33.9023 90.6611 33.9805 90.2412 34.1367 89.8467C34.2969 89.4521 34.5156 89.1084 34.793 88.8154C35.0742 88.5225 35.4043 88.292 35.7832 88.124C36.166 87.9521 36.582 87.8662 37.0312 87.8662ZM37.0312 88.792C36.7266 88.792 36.4453 88.8525 36.1875 88.9736C35.9297 89.0908 35.707 89.2549 35.5195 89.4658C35.332 89.6729 35.1855 89.917 35.0801 90.1982C34.9746 90.4795 34.9219 90.7822 34.9219 91.1064C34.9219 91.4307 34.9746 91.7354 35.0801 92.0205C35.1855 92.3018 35.332 92.5479 35.5195 92.7588C35.707 92.9658 35.9297 93.1299 36.1875 93.251C36.4453 93.3682 36.7266 93.4268 37.0312 93.4268C37.3359 93.4268 37.6172 93.3682 37.875 93.251C38.1328 93.1299 38.3535 92.9658 38.5371 92.7588C38.7246 92.5479 38.8711 92.3018 38.9766 92.0205C39.082 91.7354 39.1348 91.4307 39.1348 91.1064C39.1348 90.7822 39.082 90.4795 38.9766 90.1982C38.8711 89.917 38.7246 89.6729 38.5371 89.4658C38.3535 89.2549 38.1328 89.0908 37.875 88.9736C37.6172 88.8525 37.3359 88.792 37.0312 88.792ZM44.3438 87.8662C44.7891 87.8662 45.2031 87.9521 45.5859 88.124C45.9688 88.292 46.2988 88.5225 46.5762 88.8154C46.8535 89.1084 47.0703 89.4521 47.2266 89.8467C47.3867 90.2412 47.4668 90.6611 47.4668 91.1064C47.4668 91.5557 47.3867 91.9775 47.2266 92.3721C47.0703 92.7666 46.8535 93.1104 46.5762 93.4033C46.2988 93.6963 45.9688 93.9287 45.5859 94.1006C45.2031 94.2686 44.7891 94.3525 44.3438 94.3525C43.8945 94.3525 43.4785 94.2686 43.0957 94.1006C42.7168 93.9287 42.3867 93.6963 42.1055 93.4033C41.8281 93.1104 41.6094 92.7666 41.4492 92.3721C41.293 91.9775 41.2148 91.5557 41.2148 91.1064C41.2148 90.6611 41.293 90.2412 41.4492 89.8467C41.6094 89.4521 41.8281 89.1084 42.1055 88.8154C42.3867 88.5225 42.7168 88.292 43.0957 88.124C43.4785 87.9521 43.8945 87.8662 44.3438 87.8662ZM44.3438 88.792C44.0391 88.792 43.7578 88.8525 43.5 88.9736C43.2422 89.0908 43.0195 89.2549 42.832 89.4658C42.6445 89.6729 42.498 89.917 42.3926 90.1982C42.2871 90.4795 42.2344 90.7822 42.2344 91.1064C42.2344 91.4307 42.2871 91.7354 42.3926 92.0205C42.498 92.3018 42.6445 92.5479 42.832 92.7588C43.0195 92.9658 43.2422 93.1299 43.5 93.251C43.7578 93.3682 44.0391 93.4268 44.3438 93.4268C44.6484 93.4268 44.9297 93.3682 45.1875 93.251C45.4453 93.1299 45.666 92.9658 45.8496 92.7588C46.0371 92.5479 46.1836 92.3018 46.2891 92.0205C46.3945 91.7354 46.4473 91.4307 46.4473 91.1064C46.4473 90.7822 46.3945 90.4795 46.2891 90.1982C46.1836 89.917 46.0371 89.6729 45.8496 89.4658C45.666 89.2549 45.4453 89.0908 45.1875 88.9736C44.9297 88.8525 44.6484 88.792 44.3438 88.792Z" fill="#5F6B7A"/>
<rect width="320" height="1" transform="translate(52 89.7002)" fill="#E9EBED"/>
<path d="M31.0312 116.192L33.1289 115.254L33.6387 115.512V121.6H32.6191V116.479L31.3887 117L31.0312 116.192ZM35.4844 123.211V122.309C36.2109 122.262 36.8008 122.176 37.2539 122.051C37.8398 121.887 38.2988 121.653 38.6309 121.348C38.9668 121.043 39.1348 120.635 39.1348 120.124C39.1348 119.686 39.0098 119.348 38.7598 119.11C38.5254 118.887 38.1992 118.776 37.7812 118.776C37.3398 118.776 36.8867 118.885 36.4219 119.104L35.9121 118.752L36.1055 115.471H37.4766C38.0273 115.471 38.4277 115.456 38.6777 115.424C38.9238 115.393 39.1836 115.325 39.457 115.219L39.791 116.057C39.5371 116.155 39.2539 116.227 38.9414 116.274C38.7305 116.305 38.4512 116.321 38.1035 116.321H37.0078L36.9023 118.131C37.2656 118.018 37.6289 117.961 37.9922 117.961C38.6641 117.961 39.1758 118.143 39.5273 118.506C39.7344 118.713 39.8906 118.963 39.9961 119.256C40.1016 119.549 40.1543 119.854 40.1543 120.17C40.1543 121.487 39.3281 122.389 37.6758 122.877C37.0039 123.077 36.2734 123.188 35.4844 123.211ZM44.3438 115.266C44.7891 115.266 45.2031 115.352 45.5859 115.524C45.9688 115.692 46.2988 115.922 46.5762 116.215C46.8535 116.508 47.0703 116.852 47.2266 117.247C47.3867 117.641 47.4668 118.061 47.4668 118.506C47.4668 118.956 47.3867 119.377 47.2266 119.772C47.0703 120.167 46.8535 120.51 46.5762 120.803C46.2988 121.096 45.9688 121.329 45.5859 121.5C45.2031 121.668 44.7891 121.752 44.3438 121.752C43.8945 121.752 43.4785 121.668 43.0957 121.5C42.7168 121.329 42.3867 121.096 42.1055 120.803C41.8281 120.51 41.6094 120.167 41.4492 119.772C41.293 119.377 41.2148 118.956 41.2148 118.506C41.2148 118.061 41.293 117.641 41.4492 117.247C41.6094 116.852 41.8281 116.508 42.1055 116.215C42.3867 115.922 42.7168 115.692 43.0957 115.524C43.4785 115.352 43.8945 115.266 44.3438 115.266ZM44.3438 116.192C44.0391 116.192 43.7578 116.252 43.5 116.374C43.2422 116.491 43.0195 116.655 42.832 116.866C42.6445 117.073 42.498 117.317 42.3926 117.598C42.2871 117.879 42.2344 118.182 42.2344 118.506C42.2344 118.831 42.2871 119.135 42.3926 119.42C42.498 119.702 42.6445 119.948 42.832 120.159C43.0195 120.366 43.2422 120.53 43.5 120.651C43.7578 120.768 44.0391 120.827 44.3438 120.827C44.6484 120.827 44.9297 120.768 45.1875 120.651C45.4453 120.53 45.666 120.366 45.8496 120.159C46.0371 119.948 46.1836 119.702 46.2891 119.42C46.3945 119.135 46.4473 118.831 46.4473 118.506C46.4473 118.182 46.3945 117.879 46.2891 117.598C46.1836 117.317 46.0371 117.073 45.8496 116.866C45.666 116.655 45.4453 116.491 45.1875 116.374C44.9297 116.252 44.6484 116.192 44.3438 116.192Z" fill="#5F6B7A"/>
<rect width="320" height="1" transform="translate(52 117.1)" fill="#E9EBED"/>
<path d="M29.4492 143.592L31.5469 142.654L32.0566 142.912V149H31.0371V143.879L29.8066 144.4L29.4492 143.592ZM37.0312 142.666C37.4766 142.666 37.8906 142.752 38.2734 142.924C38.6562 143.092 38.9863 143.322 39.2637 143.615C39.541 143.908 39.7578 144.252 39.9141 144.646C40.0742 145.041 40.1543 145.461 40.1543 145.906C40.1543 146.355 40.0742 146.777 39.9141 147.172C39.7578 147.566 39.541 147.91 39.2637 148.203C38.9863 148.496 38.6562 148.729 38.2734 148.9C37.8906 149.068 37.4766 149.152 37.0312 149.152C36.582 149.152 36.166 149.068 35.7832 148.9C35.4043 148.729 35.0742 148.496 34.793 148.203C34.5156 147.91 34.2969 147.566 34.1367 147.172C33.9805 146.777 33.9023 146.355 33.9023 145.906C33.9023 145.461 33.9805 145.041 34.1367 144.646C34.2969 144.252 34.5156 143.908 34.793 143.615C35.0742 143.322 35.4043 143.092 35.7832 142.924C36.166 142.752 36.582 142.666 37.0312 142.666ZM37.0312 143.592C36.7266 143.592 36.4453 143.652 36.1875 143.773C35.9297 143.891 35.707 144.055 35.5195 144.266C35.332 144.473 35.1855 144.717 35.0801 144.998C34.9746 145.279 34.9219 145.582 34.9219 145.906C34.9219 146.23 34.9746 146.535 35.0801 146.82C35.1855 147.102 35.332 147.348 35.5195 147.559C35.707 147.766 35.9297 147.93 36.1875 148.051C36.4453 148.168 36.7266 148.227 37.0312 148.227C37.3359 148.227 37.6172 148.168 37.875 148.051C38.1328 147.93 38.3535 147.766 38.5371 147.559C38.7246 147.348 38.8711 147.102 38.9766 146.82C39.082 146.535 39.1348 146.23 39.1348 145.906C39.1348 145.582 39.082 145.279 38.9766 144.998C38.8711 144.717 38.7246 144.473 38.5371 144.266C38.3535 144.055 38.1328 143.891 37.875 143.773C37.6172 143.652 37.3359 143.592 37.0312 143.592ZM44.3438 142.666C44.7891 142.666 45.2031 142.752 45.5859 142.924C45.9688 143.092 46.2988 143.322 46.5762 143.615C46.8535 143.908 47.0703 144.252 47.2266 144.646C47.3867 145.041 47.4668 145.461 47.4668 145.906C47.4668 146.355 47.3867 146.777 47.2266 147.172C47.0703 147.566 46.8535 147.91 46.5762 148.203C46.2988 148.496 45.9688 148.729 45.5859 148.9C45.2031 149.068 44.7891 149.152 44.3438 149.152C43.8945 149.152 43.4785 149.068 43.0957 148.9C42.7168 148.729 42.3867 148.496 42.1055 148.203C41.8281 147.91 41.6094 147.566 41.4492 147.172C41.293 146.777 41.2148 146.355 41.2148 145.906C41.2148 145.461 41.293 145.041 41.4492 144.646C41.6094 144.252 41.8281 143.908 42.1055 143.615C42.3867 143.322 42.7168 143.092 43.0957 142.924C43.4785 142.752 43.8945 142.666 44.3438 142.666ZM44.3438 143.592C44.0391 143.592 43.7578 143.652 43.5 143.773C43.2422 143.891 43.0195 144.055 42.832 144.266C42.6445 144.473 42.498 144.717 42.3926 144.998C42.2871 145.279 42.2344 145.582 42.2344 145.906C42.2344 146.23 42.2871 146.535 42.3926 146.82C42.498 147.102 42.6445 147.348 42.832 147.559C43.0195 147.766 43.2422 147.93 43.5 148.051C43.7578 148.168 44.0391 148.227 44.3438 148.227C44.6484 148.227 44.9297 148.168 45.1875 148.051C45.4453 147.93 45.666 147.766 45.8496 147.559C46.0371 147.348 46.1836 147.102 46.2891 146.82C46.3945 146.535 46.4473 146.23 46.4473 145.906C46.4473 145.582 46.3945 145.279 46.2891 144.998C46.1836 144.717 46.0371 144.473 45.8496 144.266C45.666 144.055 45.4453 143.891 45.1875 143.773C44.9297 143.652 44.6484 143.592 44.3438 143.592Z" fill="#5F6B7A"/>
<rect width="320" height="1" transform="translate(52 144.5)" fill="#E9EBED"/>
</svg>
