<svg width="32" height="32" viewBox="0 0 32 32" fill="none" xmlns="http://www.w3.org/2000/svg">
<path d="M10.4486 21.973H26.4703C26.5874 21.973 26.6872 21.9317 26.7696 21.8493C26.8511 21.7678 26.8919 21.6685 26.8919 21.5514V5.52973C26.8919 5.41261 26.8511 5.31283 26.7696 5.23038C26.6872 5.14886 26.5874 5.10811 26.4703 5.10811H24.0811V13.1892C24.0811 13.4468 23.9757 13.6342 23.7649 13.7514C23.5541 13.8685 23.3315 13.8685 23.0973 13.7514L20.9189 12.4162L18.7405 13.7514C18.5063 13.8685 18.2838 13.8685 18.073 13.7514C17.8622 13.6342 17.7568 13.4468 17.7568 13.1892V5.10811H10.4486C10.3315 5.10811 10.2322 5.14886 10.1507 5.23038C10.0683 5.31283 10.027 5.41261 10.027 5.52973V21.5514C10.027 21.6685 10.0683 21.7678 10.1507 21.8493C10.2322 21.9317 10.3315 21.973 10.4486 21.973V21.973ZM10.4486 24.0811C9.74595 24.0811 9.14865 23.8351 8.65676 23.3432C8.16486 22.8514 7.91892 22.2541 7.91892 21.5514V5.52973C7.91892 4.82703 8.16486 4.22973 8.65676 3.73784C9.14865 3.24595 9.74595 3 10.4486 3H26.4703C27.173 3 27.7703 3.24595 28.2622 3.73784C28.7541 4.22973 29 4.82703 29 5.52973V21.5514C29 22.2541 28.7541 22.8514 28.2622 23.3432C27.7703 23.8351 27.173 24.0811 26.4703 24.0811H10.4486ZM5.52973 29C4.82703 29 4.22973 28.7541 3.73784 28.2622C3.24595 27.7703 3 27.173 3 26.4703V9.39459C3 9.11351 3.09978 8.86757 3.29935 8.65676C3.49798 8.44595 3.74955 8.34054 4.05405 8.34054C4.35856 8.34054 4.61013 8.44595 4.80876 8.65676C5.00832 8.86757 5.10811 9.11351 5.10811 9.39459V26.4703C5.10811 26.5874 5.14933 26.6872 5.23178 26.7696C5.3133 26.8511 5.41261 26.8919 5.52973 26.8919H22.6054C22.8865 26.8919 23.1324 26.9912 23.3432 27.1898C23.5541 27.3894 23.6595 27.6414 23.6595 27.9459C23.6595 28.2505 23.5541 28.5025 23.3432 28.7021C23.1324 28.9007 22.8865 29 22.6054 29H5.52973ZM17.7568 5.10811H24.0811H17.7568ZM10.4486 5.10811H10.027H26.8919H26.4703H10.4486Z" fill="#AEB9F1"/>
</svg>
