<svg width="32" height="32" viewBox="0 0 32 32" fill="none" xmlns="http://www.w3.org/2000/svg">
<path d="M6.36364 26.6364H11.6424V17.2606H19.9939V26.6364H25.2727V12.4545L15.8182 5.32424L6.36364 12.4545V26.6364ZM6.36364 29C5.70707 29 5.14925 28.7699 4.69018 28.3098C4.23006 27.8507 4 27.2929 4 26.6364V12.4545C4 12.0869 4.08509 11.7323 4.25527 11.3909C4.42651 11.0495 4.65657 10.7737 4.94545 10.5636L14.4 3.43333C14.6101 3.27576 14.8333 3.16388 15.0697 3.0977C15.3061 3.03257 15.5556 3 15.8182 3C16.0808 3 16.3303 3.03257 16.5667 3.0977C16.803 3.16388 17.0263 3.27576 17.2364 3.43333L26.6909 10.5636C26.9798 10.7737 27.2093 11.0495 27.3795 11.3909C27.5507 11.7323 27.6364 12.0869 27.6364 12.4545V26.6364C27.6364 27.2929 27.4063 27.8507 26.9462 28.3098C26.4871 28.7699 25.9293 29 25.2727 29H17.6303V19.6242H14.0061V29H6.36364Z" fill="#AEB9F1"/>
</svg>
