<svg width="32" height="32" viewBox="0 0 32 32" fill="none" xmlns="http://www.w3.org/2000/svg">
<path d="M16 15.1333C14.3244 15.1333 12.8944 14.5336 11.71 13.3341C10.5256 12.1358 9.93333 10.7133 9.93333 9.06667C9.93333 7.39111 10.5256 5.96111 11.71 4.77667C12.8944 3.59222 14.3244 3 16 3C17.6756 3 19.1056 3.59222 20.29 4.77667C21.4744 5.96111 22.0667 7.39111 22.0667 9.06667C22.0667 10.7133 21.4744 12.1358 20.29 13.3341C19.1056 14.5336 17.6756 15.1333 16 15.1333ZM26.3567 28.3067H5.64333C4.89222 28.3067 4.26418 28.0542 3.7592 27.5492C3.25307 27.0431 3 26.4289 3 25.7067V24.45C3 23.6122 3.23111 22.8322 3.69333 22.11C4.15556 21.3878 4.77667 20.8244 5.55667 20.42C7.26111 19.5822 8.98751 18.9536 10.7359 18.5341C12.4831 18.1158 14.2378 17.9067 16 17.9067C17.7622 17.9067 19.5175 18.1158 21.2659 18.5341C23.0131 18.9536 24.7389 19.5822 26.4433 20.42C27.2233 20.8244 27.8444 21.3878 28.3067 22.11C28.7689 22.8322 29 23.6122 29 24.45V25.7067C29 26.4289 28.7469 27.0431 28.2408 27.5492C27.7358 28.0542 27.1078 28.3067 26.3567 28.3067V28.3067ZM5.6 25.7067H26.4V24.45C26.4 24.1033 26.2989 23.7856 26.0967 23.4967C25.8944 23.2078 25.62 22.9622 25.2733 22.76C23.7711 22.0378 22.2475 21.4814 20.7025 21.0908C19.1564 20.7014 17.5889 20.5067 16 20.5067C14.4111 20.5067 12.8436 20.7014 11.2975 21.0908C9.75249 21.4814 8.22889 22.0378 6.72667 22.76C6.38 22.9622 6.10556 23.2078 5.90333 23.4967C5.70111 23.7856 5.6 24.1033 5.6 24.45V25.7067ZM16 12.5333C16.9533 12.5333 17.7697 12.1936 18.4492 11.5141C19.1275 10.8358 19.4667 10.02 19.4667 9.06667C19.4667 8.11333 19.1275 7.29693 18.4492 6.61747C17.7697 5.93916 16.9533 5.6 16 5.6C15.0467 5.6 14.2308 5.93916 13.5525 6.61747C12.8731 7.29693 12.5333 8.11333 12.5333 9.06667C12.5333 10.02 12.8731 10.8358 13.5525 11.5141C14.2308 12.1936 15.0467 12.5333 16 12.5333V12.5333Z" fill="#AEB9F1"/>
</svg>
