<svg width="32" height="32" viewBox="0 0 32 32" fill="none" xmlns="http://www.w3.org/2000/svg">
<path d="M13 15.3333C11.7111 15.3333 10.6111 14.872 9.7 13.9493C8.78889 13.0276 8.33333 11.9333 8.33333 10.6667C8.33333 9.37778 8.78889 8.27778 9.7 7.36667C10.6111 6.45556 11.7111 6 13 6C14.2889 6 15.3889 6.45556 16.3 7.36667C17.2111 8.27778 17.6667 9.37778 17.6667 10.6667C17.6667 11.9333 17.2111 13.0276 16.3 13.9493C15.3889 14.872 14.2889 15.3333 13 15.3333ZM20.9667 25.4667H5.03333C4.45556 25.4667 3.97244 25.2724 3.584 24.884C3.19467 24.4947 3 24.0222 3 23.4667V22.5C3 21.8556 3.17778 21.2556 3.53333 20.7C3.88889 20.1444 4.36667 19.7111 4.96667 19.4C6.27778 18.7556 7.60578 18.272 8.95067 17.9493C10.2947 17.6276 11.6444 17.4667 13 17.4667C14.3556 17.4667 15.7058 17.6276 17.0507 17.9493C18.3947 18.272 19.7222 18.7556 21.0333 19.4C21.6333 19.7111 22.1111 20.1444 22.4667 20.7C22.8222 21.2556 23 21.8556 23 22.5V23.4667C23 24.0222 22.8053 24.4947 22.416 24.884C22.0276 25.2724 21.5444 25.4667 20.9667 25.4667V25.4667ZM5 23.4667H21V22.5C21 22.2333 20.9222 21.9889 20.7667 21.7667C20.6111 21.5444 20.4 21.3556 20.1333 21.2C18.9778 20.6444 17.8058 20.2164 16.6173 19.916C15.428 19.6164 14.2222 19.4667 13 19.4667C11.7778 19.4667 10.572 19.6164 9.38267 19.916C8.19422 20.2164 7.02222 20.6444 5.86667 21.2C5.6 21.3556 5.38889 21.5444 5.23333 21.7667C5.07778 21.9889 5 22.2333 5 22.5V23.4667ZM13 13.3333C13.7333 13.3333 14.3613 13.072 14.884 12.5493C15.4058 12.0276 15.6667 11.4 15.6667 10.6667C15.6667 9.93333 15.4058 9.30533 14.884 8.78267C14.3613 8.26089 13.7333 8 13 8C12.2667 8 11.6391 8.26089 11.1173 8.78267C10.5947 9.30533 10.3333 9.93333 10.3333 10.6667C10.3333 11.4 10.5947 12.0276 11.1173 12.5493C11.6391 13.072 12.2667 13.3333 13 13.3333V13.3333Z" fill="#AEB9F1"/>
<path d="M24.4612 25.0663V21.5663C24.4612 20.7108 24.2297 19.889 23.7667 19.1012C23.303 18.314 22.6456 17.6385 21.7945 17.0747C22.759 17.1913 23.6668 17.3904 24.5179 17.672C25.369 17.9543 26.1633 18.2997 26.9009 18.708C27.5817 19.0969 28.1018 19.5293 28.4612 20.0053C28.8205 20.4821 29.0002 21.0024 29.0002 21.5663V24.0663C29.0002 24.6186 28.5524 25.0663 28.0002 25.0663H24.4612ZM24.4612 11.0663C24.4612 12.3497 24.0167 13.4483 23.1278 14.3622C22.2389 15.276 21.1704 15.733 19.9221 15.733C19.7141 15.733 19.4493 15.7089 19.1278 15.6607C18.8063 15.6117 18.5415 15.558 18.3335 15.4997C18.8441 14.8774 19.2364 14.1872 19.5102 13.4288C19.7848 12.6705 19.9221 11.883 19.9221 11.0663C19.9221 10.2497 19.7848 9.46216 19.5102 8.70382C19.2364 7.94549 18.8441 7.25521 18.3335 6.63299C18.5983 6.53577 18.863 6.47238 19.1278 6.44283C19.3926 6.41405 19.6574 6.39966 19.9221 6.39966C21.1704 6.39966 22.2389 6.8566 23.1278 7.77049C24.0167 8.68438 24.4612 9.78299 24.4612 11.0663Z" fill="#AEB9F1"/>
</svg>
