<svg width="21" height="20" viewBox="0 0 21 20" fill="none" xmlns="http://www.w3.org/2000/svg">
<path d="M9.86536 9.1731L9.90636 9.1531C10.0346 9.08903 10.1785 9.06306 10.321 9.07825C10.4636 9.09344 10.5988 9.14916 10.7106 9.23881C10.8224 9.32845 10.9063 9.44828 10.9521 9.58408C10.998 9.71989 11.004 9.86599 10.9694 10.0051L10.2614 12.8411C10.2265 12.9803 10.2323 13.1265 10.278 13.2625C10.3238 13.3985 10.4076 13.5185 10.5195 13.6083C10.6314 13.698 10.7667 13.7539 10.9094 13.7691C11.052 13.7843 11.196 13.7583 11.3244 13.6941L11.3654 13.6731M19.6154 9.9231C19.6154 11.105 19.3826 12.2753 18.9303 13.3672C18.478 14.4592 17.815 15.4513 16.9793 16.2871C16.1436 17.1228 15.1514 17.7857 14.0595 18.238C12.9676 18.6903 11.7973 18.9231 10.6154 18.9231C9.43346 18.9231 8.26314 18.6903 7.17121 18.238C6.07928 17.7857 5.08712 17.1228 4.2514 16.2871C3.41567 15.4513 2.75273 14.4592 2.30044 13.3672C1.84815 12.2753 1.61536 11.105 1.61536 9.9231C1.61536 7.53615 2.56357 5.24696 4.2514 3.55913C5.93922 1.87131 8.22841 0.923096 10.6154 0.923096C13.0023 0.923096 15.2915 1.87131 16.9793 3.55913C18.6671 5.24696 19.6154 7.53615 19.6154 9.9231ZM10.6154 6.1731H10.6234V6.1811H10.6154V6.1731Z" stroke="#F2982A" stroke-width="1.5" stroke-linecap="round" stroke-linejoin="round"/>
</svg>
