<svg width="20" height="20" viewBox="0 0 20 20" fill="none" xmlns="http://www.w3.org/2000/svg">
<path d="M1 7.63166H19.0008V18.0532C19.0008 18.3045 18.901 18.5454 18.7233 18.7231C18.5457 18.9008 18.3047 19.0006 18.0534 19.0006H1.94741C1.69614 19.0006 1.45516 18.9008 1.27749 18.7231C1.09982 18.5454 1 18.3045 1 18.0532V7.63166ZM1 3.36831C1 3.11704 1.09982 2.87606 1.27749 2.69839C1.45516 2.52071 1.69614 2.4209 1.94741 2.4209H18.0534C18.3047 2.4209 18.5457 2.52071 18.7233 2.69839C18.901 2.87606 19.0008 3.11704 19.0008 3.36831V7.63166H1V3.36831Z" stroke="#A5B0CC" stroke-width="1.5" stroke-linejoin="round"/>
<path d="M6.21289 13.3159L9.05513 16.1581L14.7396 10.4736" stroke="#A5B0CC" stroke-width="1.5" stroke-linecap="round" stroke-linejoin="round"/>
<path d="M6.21289 1V4.78965M13.7922 1V4.78965" stroke="#A5B0CC" stroke-width="1.5" stroke-linecap="round"/>
</svg>
