<svg width="15" height="14" viewBox="0 0 15 14" fill="none" xmlns="http://www.w3.org/2000/svg">
<path fill-rule="evenodd" clip-rule="evenodd" d="M2.25 12L2.25 2L12.25 2L12.25 12H10.25V14H13.25C13.8023 14 14.25 13.5523 14.25 13L14.25 1C14.25 0.447715 13.8023 0 13.25 0L1.25 0C0.697715 0 0.25 0.447715 0.25 1L0.25 13C0.25 13.5523 0.697715 14 1.25 14H4.25V12H2.25ZM10.5429 9.70711L11.9571 8.29289L7.25 3.58579L2.54289 8.29289L3.95711 9.70711L6.25 7.41421V14L8.25 14V7.41421L10.5429 9.70711Z" fill="#AEB9F1"/>
</svg>
